<?xml version="1.0"?>
<svg width="300" height="58" xmlns="http://www.w3.org/2000/svg">
 <g>
  <title>Layer 1</title>
  <g id="svg_1">
   <g id="svg_2">
    <path fill-rule="evenodd" clip-rule="evenodd" fill="#385584" d="m23.136999,448.829987c0,-3.195007 1.606001,-14.406006 14.011,-27.562988c12.405003,-13.149017 30.389988,-23.626007 36.035007,-23.626007c2.061996,0 3.57299,9.980011 15.010994,13.783997c3.986,1.324005 15.02401,3.459991 20.020996,3.937988c4.989006,0.471008 11.115005,-3.584991 10.00399,1.970001c-0.825989,4.13501 -6.278976,5.396027 -14.013985,4.921021c-2.465012,-0.153992 -22.77301,-2.873993 -30.027,-9.847015c-2.717003,-2.613983 -7.939995,-9.14798 -25.018002,5.908997c-4.791,4.225006 -13.145,12.433014 -17.013,20.671021c-0.941,1.998993 -3.240999,7.218994 -1.007999,7.880981c2.245998,0.660004 17.259998,5.91098 24.022999,10.826996c6.77,4.915039 12.599995,14.815002 15.014004,6.890015c2.417984,-7.921997 5.776001,-14.622986 13.009987,-21.658997c6.376007,-6.195007 15.188004,-11.054993 19.011002,-12.796997c2.569,-1.162018 6.652016,-0.024994 1.007011,3.937988c-2.768013,1.945007 -16.827003,9.70401 -21.014999,19.688965c-13.222,31.516052 -6.882996,29.705017 -11.754005,28.990051c-4.845001,-0.708008 -14.477997,-12.703003 -20.275997,-18.162048c-4.341,-4.088989 -10.688999,-8.375 -17.013,-10.828003c-4.458,-1.722961 -10.009001,-1.18396 -10.009001,-4.925964" id="svg_3"/>
    <g id="svg_4">
     <path fill="#999BA3" d="m143.608002,418.640991l-13.188995,31.438995l8.261002,0l2.309998,-6.17099l12.166,0l2.445999,6.17099l8.432007,0l-13.053009,-31.438995l-7.373001,0zm-0.444,19.184998l3.998001,-10.790985l3.910004,10.790985l-7.908005,0zm41.314987,5.242004c-1.125,0.589996 -2.44101,0.886993 -3.949005,0.886993c-1.300003,0 -2.498993,-0.235992 -3.595993,-0.707001c-1.098999,-0.481995 -2.036011,-1.140991 -2.820007,-1.979004c-0.787994,-0.847992 -1.39299,-1.859985 -1.841003,-3.04599c-0.444,-1.179993 -0.666992,-2.480988 -0.666992,-3.903992c0,-1.391022 0.223999,-2.674011 0.666992,-3.843994c0.448013,-1.16803 1.065002,-2.184021 1.860001,-3.037018c0.804001,-0.858002 1.757004,-1.540985 2.867004,-2.023987c1.112,-0.488007 2.334,-0.730011 3.665009,-0.730011c1.209991,0 2.405991,0.239014 3.549988,0.710999c1.160004,0.475006 2.090012,1.196014 2.797012,2.179016l5.151993,-5.154022c-1.333008,-1.509979 -3.065994,-2.656006 -5.212997,-3.441986c-2.152008,-0.779999 -4.333008,-1.179016 -6.555008,-1.179016c-2.399994,0 -4.62999,0.389008 -6.702988,1.160004c-2.070007,0.769012 -3.873001,1.872009 -5.414001,3.307007c-1.540009,1.437012 -2.748001,3.175995 -3.624008,5.217987c-0.871994,2.038025 -1.306992,4.320007 -1.306992,6.837006c0,2.455017 0.429993,4.707001 1.285995,6.748016c0.865997,2.043976 2.050995,3.798981 3.548996,5.263977c1.514008,1.465027 3.294998,2.596985 5.350998,3.395996c2.059006,0.799988 4.30101,1.200989 6.725998,1.200989c2.667999,0 5.020004,-0.470947 7.064011,-1.401978c2.050003,-0.930969 3.759995,-2.200989 5.147003,-3.799988l-5.274002,-4.968994c-0.690994,0.942993 -1.584,1.709991 -2.718002,2.30899m30.527008,0c-1.123993,0.589996 -2.438995,0.886993 -3.949005,0.886993c-1.296997,0 -2.5,-0.235992 -3.595001,-0.707001c-1.095001,-0.481995 -2.040009,-1.140991 -2.821991,-1.979004c-0.786011,-0.847992 -1.406006,-1.859985 -1.843994,-3.04599c-0.438995,-1.179993 -0.660004,-2.480988 -0.660004,-3.903992c0,-1.391022 0.220001,-2.674011 0.660004,-3.843994c0.437988,-1.16803 1.067993,-2.184021 1.86499,-3.037018c0.796997,-0.858002 1.756989,-1.540985 2.86499,-2.023987c1.113022,-0.488007 2.332001,-0.730011 3.663025,-0.730011c1.213989,0 2.394989,0.239014 3.549988,0.710999c1.160019,0.475006 2.096008,1.196014 2.804993,2.179016l5.143005,-5.154022c-1.330994,-1.509979 -3.070999,-2.656006 -5.213013,-3.441986c-2.146973,-0.779999 -4.325989,-1.179016 -6.547974,-1.179016c-2.400024,0 -4.633026,0.389008 -6.707001,1.160004c-2.074005,0.769012 -3.877014,1.872009 -5.419006,3.307007c-1.536011,1.437012 -2.741013,3.175995 -3.616013,5.217987c-0.875,2.038025 -1.304993,4.320007 -1.304993,6.837006c0,2.455017 0.421997,4.707001 1.280991,6.748016c0.858002,2.043976 2.045013,3.798981 3.549011,5.263977c1.516998,1.465027 3.292999,2.596985 5.359985,3.395996c2.048004,0.799988 4.292999,1.200989 6.719025,1.200989c2.664001,0 5.021973,-0.470947 7.052979,-1.401978c2.054016,-0.930969 3.764008,-2.200989 5.160004,-3.799988l-5.285004,-4.968994c-0.682983,0.942993 -1.579987,1.709991 -2.709991,2.30899m38.757996,-20.832977c-1.518005,-1.417999 -3.322998,-2.51001 -5.432007,-3.278015c-2.095978,-0.770996 -4.380981,-1.160004 -6.838989,-1.160004c-2.45401,0 -4.730988,0.389008 -6.812988,1.160004c-2.085022,0.769012 -3.893005,1.860016 -5.420013,3.278015c-1.519989,1.428986 -2.713013,3.149994 -3.571991,5.178986c-0.858002,2.025024 -1.287994,4.300995 -1.287994,6.813995c0,2.479004 0.430008,4.761017 1.287994,6.817017c0.858978,2.057983 2.052002,3.819 3.571991,5.283997c1.528015,1.464996 3.334991,2.596985 5.420013,3.395996c2.082001,0.799988 4.358978,1.200989 6.812988,1.200989c2.458008,0 4.743011,-0.401001 6.838989,-1.200989c2.108002,-0.799988 3.914001,-1.932007 5.432007,-3.395996c1.529999,-1.464996 2.724014,-3.22699 3.581009,-5.283997c0.859009,-2.057007 1.289001,-4.338989 1.289001,-6.817017c0,-2.513977 -0.429993,-4.788971 -1.289001,-6.813995c-0.858002,-2.028992 -2.05101,-3.751007 -3.581009,-5.178986m-3.919983,15.924988c-0.444,1.199005 -1.067993,2.22699 -1.860016,3.083008c-0.80899,0.860992 -1.746979,1.533997 -2.848999,2.022003c-1.093994,0.490997 -2.304993,0.733002 -3.641998,0.733002c-1.320984,0 -2.548004,-0.242004 -3.638977,-0.733002c-1.097015,-0.488007 -2.032013,-1.161011 -2.818024,-2.022003c-0.790985,-0.856018 -1.401001,-1.884003 -1.845978,-3.083008c-0.442017,-1.201996 -0.665009,-2.515991 -0.665009,-3.933014c0,-1.358002 0.217987,-2.634003 0.645996,-3.815979c0.428009,-1.187012 1.041016,-2.199005 1.845001,-3.042023c0.791992,-0.845978 1.740997,-1.509979 2.838013,-2.001984c1.090973,-0.481995 2.316986,-0.727997 3.638977,-0.727997c1.337006,0 2.556,0.244995 3.665009,0.727997c1.109009,0.492004 2.053009,1.156006 2.842987,2.001984c0.785004,0.843018 1.39801,1.855011 1.843018,3.042023c0.441986,1.182983 0.662994,2.457977 0.662994,3.815979c0,1.417999 -0.221008,2.731018 -0.662994,3.933014m33.925003,-0.554993c0,0.855988 -0.102997,1.674988 -0.311005,2.437988c-0.208008,0.775024 -0.549011,1.460999 -1.026001,2.063019c-0.475983,0.606995 -1.087982,1.088989 -1.841003,1.445984c-0.744995,0.356018 -1.65799,0.529999 -2.72699,0.529999c-1.062012,0 -1.979004,-0.173981 -2.738007,-0.529999c-0.755005,-0.356995 -1.354004,-0.838989 -1.820984,-1.445984c-0.451019,-0.602997 -0.799011,-1.287994 -1.021027,-2.063019c-0.219971,-0.763977 -0.329987,-1.582001 -0.329987,-2.437988l0,-18.963989l-7.541992,0l0,19.580994c0,1.899994 0.30899,3.623993 0.934998,5.177002c0.619995,1.554993 1.503998,2.888 2.653992,3.996979c1.158997,1.108002 2.563995,1.97403 4.229004,2.591034c1.649994,0.630005 3.510986,0.940002 5.591003,0.940002c2.037994,0 3.895996,-0.311035 5.567993,-0.940002c1.674011,-0.617004 3.102997,-1.481995 4.279999,-2.591034c1.188019,-1.108978 2.096008,-2.441986 2.735992,-3.996979c0.628021,-1.553009 0.953003,-3.276001 0.953003,-5.177002l0,-19.580994l-7.591003,0l0,18.963989l0.002014,0zm35.657013,1.552002l-0.134003,0l-12.604004,-20.515991l-8.665009,0l0,31.438965l7.365997,0l-0.181,-20.561981l0.136017,0l12.651001,20.561981l8.621002,0l0,-31.438965l-7.369995,0l0.179993,20.515991zm11.649994,-14.03302l8.878998,0l0,24.955994l7.600006,0l0,-24.955994l8.876984,0l0,-6.483002l-25.35498,0l0,6.483002l-0.001007,0zm47.673004,17.944c-1.126007,0.589996 -2.446991,0.886993 -3.962006,0.886993c-1.302002,0 -2.493988,-0.235992 -3.59201,-0.707001c-1.087982,-0.481995 -2.034973,-1.140991 -2.819,-1.979004c-0.784973,-0.847992 -1.39798,-1.859985 -1.849976,-3.04599c-0.436005,-1.179993 -0.657013,-2.480988 -0.657013,-3.903992c0,-1.391022 0.222015,-2.674011 0.657013,-3.843994c0.450989,-1.16803 1.073975,-2.184021 1.875,-3.037018c0.798004,-0.858002 1.746979,-1.540985 2.862976,-2.023987c1.109009,-0.488007 2.333008,-0.730011 3.666016,-0.730011c1.213013,0 2.394989,0.239014 3.540985,0.710999c1.15802,0.475006 2.093018,1.196014 2.799011,2.179016l5.15799,-5.154022c-1.332977,-1.509979 -3.074982,-2.656006 -5.223999,-3.441986c-2.142975,-0.779999 -4.332001,-1.179016 -6.546997,-1.179016c-2.395996,0 -4.625977,0.389008 -6.700989,1.160004c-2.078003,0.769012 -3.886993,1.872009 -5.420013,3.307007c-1.541992,1.437012 -2.743988,3.175995 -3.615997,5.217987c-0.877991,2.038025 -1.307983,4.320007 -1.307983,6.837006c0,2.455017 0.429993,4.707001 1.279999,6.748016c0.863983,2.043976 2.042999,3.798981 3.557983,5.263977c1.509003,1.465027 3.281006,2.596985 5.345001,3.395996c2.054993,0.799988 4.306,1.200989 6.726013,1.200989c2.669983,0 5.027008,-0.470947 7.061005,-1.401978c2.042999,-0.930969 3.766998,-2.200989 5.154999,-3.799988l-5.283997,-4.968994c-0.689026,0.942993 -1.581024,1.709991 -2.70401,2.30899m30.704987,-12.528992l-12.264984,0l0,-11.89801l-7.588013,0l0,31.438995l7.588013,0l0,-13.145996l12.264984,0l0,13.145996l7.587006,0l0,-31.438995l-7.587006,0l0,11.89801zm20.773987,6.529999l13.057007,0l0,-6.079987l-13.057007,0l0,-5.950012l13.812012,0l0,-6.397003l-21.131012,0l0,31.439026l21.937012,0l0,-6.482025l-14.617004,0l0,-6.529999l-0.001007,0zm35.165009,-3.947998l13.542969,-14.480011l-9.496948,0l-11.234009,12.791016l-0.140991,0l0,-12.791016l-7.411011,0l0,31.438995l7.411011,0l0,-14.477997l0.092957,0l11.67804,14.477997l9.901001,0l-14.343018,-16.958984z" id="svg_5"/>
     <g id="svg_6">
      <path fill="#385584" d="m141.667999,477.090973c0,1.284973 -0.462997,2.297974 -1.387009,3.036987c-0.925995,0.73999 -2.210999,1.109009 -3.858002,1.109009c-1.518997,0 -2.860992,-0.283997 -4.028992,-0.856018l0,-2.802002c0.959991,0.429016 1.772995,0.731018 2.436996,0.904053c0.666,0.175964 1.272003,0.263977 1.826004,0.263977c0.660995,0 1.168991,-0.125 1.522003,-0.380005c0.353989,-0.252991 0.529999,-0.629028 0.529999,-1.129028c0,-0.278992 -0.077011,-0.526978 -0.233002,-0.744995c-0.156006,-0.21698 -0.386002,-0.427002 -0.688004,-0.626953c-0.302002,-0.20105 -0.916,-0.522034 -1.843002,-0.963013c-0.869995,-0.408997 -1.522003,-0.801025 -1.955994,-1.179016c-0.436996,-0.375977 -0.781998,-0.814026 -1.042007,-1.312988c-0.261002,-0.497986 -0.388992,-1.082031 -0.388992,-1.75c0,-1.26001 0.427002,-2.25 1.278992,-2.968994c0.854004,-0.720032 2.032013,-1.080994 3.53801,-1.080994c0.73999,0 1.444,0.088989 2.11499,0.263977c0.672012,0.174011 1.375,0.422974 2.109009,0.73999l-0.973999,2.345032c-0.759003,-0.312012 -1.387009,-0.528015 -1.884003,-0.653015c-0.496994,-0.122009 -0.985001,-0.184021 -1.462997,-0.184021c-0.572998,0 -1.01001,0.132996 -1.314011,0.398987c-0.304993,0.264038 -0.457993,0.612 -0.457993,1.039001c0,0.267029 0.061005,0.499023 0.184998,0.697021c0.123001,0.197021 0.319,0.388977 0.587997,0.572998c0.270004,0.186035 0.906998,0.518005 1.91301,0.997009c1.328995,0.637024 2.23999,1.27301 2.733994,1.914001c0.494995,0.639038 0.742004,1.424011 0.742004,2.348999z" id="svg_7"/>
      <path fill="#385584" d="m143.886002,467.35202c0,-0.966003 0.537003,-1.450012 1.615997,-1.450012c1.076004,0 1.615005,0.484009 1.615005,1.450012c0,0.460999 -0.134995,0.820007 -0.403992,1.075012c-0.269012,0.257996 -0.674011,0.38501 -1.211014,0.38501c-1.07901,-0.000061 -1.615997,-0.487061 -1.615997,-1.460022zm3.095001,13.692993l-2.968002,0l0,-10.880981l2.968002,0l0,10.880981z" id="svg_8"/>
      <path fill="#385584" d="m159.835999,481.045013l-2.968002,0l0,-6.35498c0,-0.785034 -0.132004,-1.375 -0.395004,-1.768005s-0.675003,-0.587036 -1.23999,-0.587036c-0.759003,0 -1.312012,0.278015 -1.654007,0.835999c-0.343994,0.557007 -0.516998,1.477051 -0.516998,2.755005l0,5.119019l-2.966995,0l0,-10.880981l2.266998,0l0.397995,1.390991l0.166,0c0.292007,-0.499023 0.712997,-0.890991 1.266006,-1.173035c0.550995,-0.281006 1.18399,-0.421997 1.897995,-0.421997c1.626999,0 2.729996,0.53302 3.309006,1.595032l0.261993,0c0.292007,-0.505005 0.723007,-0.895996 1.289001,-1.177002c0.567993,-0.280029 1.207993,-0.41803 1.923004,-0.41803c1.230988,0 2.164001,0.31604 2.79599,0.949036c0.632004,0.631958 0.950012,1.644958 0.950012,3.039978l0,7.096008l-2.978012,0l0,-6.35498c0,-0.785034 -0.132996,-1.375 -0.395996,-1.768005s-0.675003,-0.587036 -1.240005,-0.587036c-0.72699,0 -1.270996,0.259033 -1.630997,0.777039c-0.360001,0.519958 -0.539001,1.342957 -0.539001,2.472961l0,5.460022l0.001007,0z" id="svg_9"/>
      <path fill="#385584" d="m175.638992,481.238007c-1.278,0 -2.280991,-0.461975 -3.007004,-1.390991l-0.154999,0c0.103012,0.906982 0.154999,1.432983 0.154999,1.575012l0,4.408997l-2.967987,0l0,-15.666992l2.412994,0l0.417999,1.409973l0.136002,0c0.692993,-1.076965 1.722992,-1.614014 3.085999,-1.614014c1.283997,0 2.287994,0.496033 3.016006,1.488037c0.725998,0.990967 1.089996,2.372009 1.089996,4.136963c0,1.160034 -0.171005,2.170044 -0.511002,3.026001c-0.341003,0.854004 -0.826004,1.507996 -1.453995,1.955017c-0.631012,0.448975 -1.371002,0.671997 -2.219009,0.671997zm-0.875992,-8.903015c-0.733002,0 -1.268997,0.224976 -1.605011,0.676025c-0.338989,0.449951 -0.514999,1.19397 -0.526001,2.231995l0,0.320007c0,1.167969 0.174011,2.006958 0.520004,2.511963c0.348007,0.505981 0.897003,0.759033 1.651001,0.759033c1.328995,0 1.994995,-1.096008 1.994995,-3.288025c0,-1.070984 -0.163986,-1.875 -0.492996,-2.40802c-0.328003,-0.53595 -0.841003,-0.802979 -1.541992,-0.802979z" id="svg_10"/>
      <path fill="#385584" d="m185.242996,481.045013l-2.968002,0l0,-15.143982l2.968002,0l0,15.143982z" id="svg_11"/>
      <path fill="#385584" d="m193.281998,481.238007c-1.751999,0 -3.122009,-0.482971 -4.106003,-1.450989c-0.987991,-0.963989 -1.479004,-2.333008 -1.479004,-4.10498c0,-1.821045 0.455002,-3.231018 1.367004,-4.227051c0.912003,-0.996948 2.171997,-1.493958 3.781006,-1.493958c1.537994,0 2.735001,0.437988 3.589981,1.312012c0.857025,0.877991 1.285004,2.087952 1.285004,3.631958l0,1.439026l-7.015991,0c0.031006,0.843994 0.281998,1.502014 0.75,1.97699c0.466995,0.473022 1.121002,0.710022 1.966003,0.710022c0.653,0 1.274994,-0.069031 1.858002,-0.204041c0.582993,-0.138 1.192993,-0.354004 1.829987,-0.653015l0,2.298035c-0.519989,0.258972 -1.07399,0.451965 -1.664993,0.578003c-0.593002,0.125 -1.313004,0.187988 -2.160995,0.187988zm-0.419006,-9.166016c-0.62999,0 -1.123001,0.198975 -1.478989,0.599976c-0.358002,0.397034 -0.562012,0.96405 -0.613007,1.697021l4.166,0c-0.014008,-0.732971 -0.203995,-1.299988 -0.574005,-1.697021c-0.371002,-0.40094 -0.871002,-0.599976 -1.5,-0.599976z" id="svg_12"/>
      <path fill="#385584" d="m199.714005,479.652008c0,-0.544983 0.145996,-0.955994 0.437988,-1.236023c0.292023,-0.277954 0.71701,-0.417969 1.274017,-0.417969c0.537994,0 0.955994,0.143982 1.25,0.429016c0.294983,0.28595 0.442993,0.692993 0.442993,1.225952c0,0.513 -0.149994,0.917053 -0.447998,1.212036c-0.299988,0.294983 -0.713989,0.442993 -1.246002,0.442993c-0.544006,0 -0.96701,-0.145996 -1.264984,-0.432983c-0.299011,-0.292053 -0.446014,-0.697021 -0.446014,-1.223022z" id="svg_13"/>
      <path fill="#385584" d="m219.624008,477.090973c0,1.284973 -0.463013,2.297974 -1.386993,3.036987c-0.924011,0.73999 -2.210999,1.109009 -3.858002,1.109009c-1.518005,0 -2.860992,-0.283997 -4.029022,-0.856018l0,-2.802002c0.960022,0.429016 1.77301,0.731018 2.437012,0.904053c0.666016,0.175964 1.272003,0.263977 1.825989,0.263977c0.662018,0 1.169006,-0.125 1.522003,-0.380005c0.354004,-0.252991 0.531006,-0.629028 0.531006,-1.129028c0,-0.278992 -0.078003,-0.526978 -0.233002,-0.744995c-0.156006,-0.21698 -0.385986,-0.427002 -0.686981,-0.626953c-0.302002,-0.20105 -0.917023,-0.522034 -1.844025,-0.963013c-0.869995,-0.408997 -1.520996,-0.801025 -1.955994,-1.179016c-0.436981,-0.375977 -0.78299,-0.814026 -1.041992,-1.312988c-0.260986,-0.497986 -0.390015,-1.082031 -0.390015,-1.75c0,-1.26001 0.427002,-2.25 1.279999,-2.968994c0.854004,-0.720032 2.031006,-1.080994 3.537018,-1.080994c0.73999,0 1.444,0.088989 2.115997,0.263977c0.67099,0.174011 1.373993,0.422974 2.106995,0.73999l-0.972992,2.345032c-0.759003,-0.312012 -1.388,-0.528015 -1.884003,-0.653015c-0.497009,-0.122009 -0.984985,-0.184021 -1.463013,-0.184021c-0.572998,0 -1.010986,0.132996 -1.313995,0.398987c-0.306,0.264038 -0.457977,0.612 -0.457977,1.039001c0,0.267029 0.060974,0.499023 0.184998,0.697021c0.122986,0.197021 0.319977,0.388977 0.587982,0.572998c0.27002,0.186035 0.907013,0.518005 1.912994,0.997009c1.330017,0.637024 2.240021,1.27301 2.734009,1.914001c0.494995,0.639038 0.742004,1.424011 0.742004,2.348999z" id="svg_14"/>
      <path fill="#385584" d="m231.710007,481.045013l-2.967987,0l0,-6.35498c0,-0.785034 -0.132019,-1.375 -0.39502,-1.768005c-0.261993,-0.393005 -0.675995,-0.587036 -1.23999,-0.587036c-0.759003,0 -1.311005,0.278015 -1.653992,0.835999c-0.344025,0.557007 -0.516022,1.477051 -0.516022,2.755005l0,5.119019l-2.967987,0l0,-10.880981l2.266998,0l0.399994,1.390991l0.165009,0c0.291992,-0.499023 0.712982,-0.890991 1.265991,-1.173035c0.550018,-0.281006 1.183014,-0.421997 1.897003,-0.421997c1.627014,0 2.730011,0.53302 3.30899,1.595032l0.264008,0c0.291016,-0.505005 0.721008,-0.895996 1.287018,-1.177002c0.569,-0.280029 1.208984,-0.41803 1.922974,-0.41803c1.233002,0 2.164001,0.31604 2.798004,0.949036c0.632019,0.631958 0.949005,1.644958 0.949005,3.039978l0,7.096008l-2.979004,0l0,-6.35498c0,-0.785034 -0.131989,-1.375 -0.394989,-1.768005c-0.261993,-0.393005 -0.675995,-0.587036 -1.23999,-0.587036c-0.72702,0 -1.27002,0.259033 -1.631012,0.777039c-0.359009,0.519958 -0.537994,1.342957 -0.537994,2.472961l0,5.460022l-0.001007,0z" id="svg_15"/>
      <path fill="#385584" d="m248.447006,481.045013l-0.574005,-1.479004l-0.078003,0c-0.5,0.629028 -1.013977,1.064026 -1.542999,1.309021c-0.527008,0.242004 -1.218994,0.362976 -2.065979,0.362976c-1.046021,0 -1.867004,-0.297974 -2.469025,-0.895996c-0.599976,-0.596008 -0.89798,-1.445984 -0.89798,-2.549988c0,-1.153015 0.401978,-2.007019 1.209991,-2.554016c0.808014,-0.546021 2.026001,-0.85199 3.654999,-0.90802l1.888,-0.060974l0,-0.476013c0,-1.102966 -0.563995,-1.654968 -1.691986,-1.654968c-0.871002,0 -1.893005,0.263977 -3.06601,0.789001l-0.983002,-2.005005c1.251984,-0.653992 2.639984,-0.981995 4.165009,-0.981995c1.460999,0 2.579987,0.316956 3.358002,0.953979c0.777985,0.63501 1.167999,1.603027 1.167999,2.898987l0,7.251038l-2.075012,0l0,0.000977zm-0.876007,-5.041992l-1.14801,0.038025c-0.863983,0.024963 -1.505981,0.181946 -1.927002,0.467957c-0.421997,0.286011 -0.632996,0.720032 -0.632996,1.304016c0,0.835999 0.479004,1.255005 1.44101,1.255005c0.687988,0 1.235992,-0.197021 1.64801,-0.593018s0.617981,-0.921997 0.617981,-1.576965l0,-0.89502l0.001007,0z" id="svg_16"/>
      <path fill="#385584" d="m259.649017,469.959991c0.399994,0 0.735016,0.030029 1.002014,0.086975l-0.225006,2.782043c-0.23999,-0.064026 -0.532013,-0.096008 -0.876007,-0.096008c-0.946991,0 -1.684998,0.242004 -2.214996,0.729004c-0.526001,0.485962 -0.791016,1.167969 -0.791016,2.044006l0,5.537964l-2.969009,0l0,-10.880981l2.248016,0l0.438004,1.828979l0.145996,0c0.337006,-0.609985 0.792023,-1.10199 1.365997,-1.474976s1.199005,-0.557007 1.876007,-0.557007z" id="svg_17"/>
      <path fill="#385584" d="m267.208008,478.873016c0.519012,0 1.141998,-0.112976 1.869019,-0.341003l0,2.210022c-0.739014,0.328979 -1.64801,0.494995 -2.726013,0.494995c-1.187012,0 -2.050995,-0.301025 -2.593994,-0.898987c-0.541016,-0.600037 -0.812012,-1.501038 -0.812012,-2.700012l0,-5.246033l-1.42099,0l0,-1.255005l1.634979,-0.991943l0.857025,-2.296021l1.897003,0l0,2.315002l3.04599,0l0,2.227966l-3.04599,0l0,5.246033c0,0.421021 0.117981,0.731995 0.353973,0.932983c0.239014,0.201965 0.553009,0.302002 0.94101,0.302002z" id="svg_18"/>
      <path fill="#385584" d="m270.858002,479.652008c0,-0.544983 0.147003,-0.955994 0.437988,-1.236023c0.292023,-0.277954 0.71701,-0.417969 1.276001,-0.417969c0.536011,0 0.955017,0.143982 1.249023,0.429016c0.29599,0.28595 0.442993,0.692993 0.442993,1.225952c0,0.513 -0.149017,0.917053 -0.447021,1.212036c-0.299988,0.294983 -0.714996,0.442993 -1.244995,0.442993c-0.54599,0 -0.967987,-0.145996 -1.265991,-0.432983c-0.299988,-0.292053 -0.447998,-0.697021 -0.447998,-1.223022z" id="svg_19"/>
      <path fill="#385584" d="m290.768005,477.090973c0,1.284973 -0.463013,2.297974 -1.388,3.036987c-0.924011,0.73999 -2.209991,1.109009 -3.856995,1.109009c-1.518005,0 -2.861023,-0.283997 -4.027008,-0.856018l0,-2.802002c0.958008,0.429016 1.770996,0.731018 2.437012,0.904053c0.664001,0.175964 1.271973,0.263977 1.824982,0.263977c0.661011,0 1.169006,-0.125 1.520996,-0.380005c0.354004,-0.252991 0.531006,-0.629028 0.531006,-1.129028c0,-0.278992 -0.078003,-0.526978 -0.233002,-0.744995c-0.156006,-0.21698 -0.385986,-0.427002 -0.687988,-0.626953c-0.302002,-0.20105 -0.916016,-0.522034 -1.843994,-0.963013c-0.869019,-0.408997 -1.521027,-0.801025 -1.955017,-1.179016c-0.436005,-0.375977 -0.781982,-0.814026 -1.040985,-1.312988c-0.261017,-0.497986 -0.390015,-1.082031 -0.390015,-1.75c0,-1.26001 0.427002,-2.25 1.278992,-2.968994c0.854004,-0.720032 2.031006,-1.080994 3.538025,-1.080994c0.738983,0 1.444,0.088989 2.11499,0.263977c0.67099,0.174011 1.373993,0.422974 2.108002,0.73999l-0.972992,2.345032c-0.76001,-0.312012 -1.389008,-0.528015 -1.88501,-0.653015c-0.496002,-0.122009 -0.984009,-0.184021 -1.463989,-0.184021c-0.572021,0 -1.01001,0.132996 -1.312012,0.398987c-0.307007,0.264038 -0.458008,0.612 -0.458008,1.039001c0,0.267029 0.059998,0.499023 0.184998,0.697021c0.123016,0.197021 0.319,0.388977 0.588013,0.572998c0.270996,0.186035 0.906006,0.518005 1.912994,0.997009c1.32901,0.637024 2.23999,1.27301 2.735016,1.914001c0.492981,0.639038 0.73999,1.424011 0.73999,2.348999z" id="svg_20"/>
      <path fill="#385584" d="m298.037018,481.238007c-1.751984,0 -3.122009,-0.482971 -4.105988,-1.450989c-0.987,-0.963989 -1.479004,-2.333008 -1.479004,-4.10498c0,-1.821045 0.455994,-3.231018 1.365997,-4.227051c0.911987,-0.996948 2.173004,-1.493958 3.781006,-1.493958c1.537994,0 2.734985,0.437988 3.59198,1.312012c0.856018,0.877991 1.283997,2.087952 1.283997,3.631958l0,1.439026l-7.016998,0c0.031006,0.843994 0.282013,1.502014 0.75,1.97699c0.46701,0.473022 1.121002,0.710022 1.965027,0.710022c0.654999,0 1.274994,-0.069031 1.858978,-0.204041c0.583008,-0.138 1.192993,-0.354004 1.82901,-0.653015l0,2.298035c-0.520996,0.258972 -1.074005,0.451965 -1.662994,0.578003c-0.59201,0.125 -1.312012,0.187988 -2.161011,0.187988zm-0.419006,-9.166016c-0.630005,0 -1.122986,0.198975 -1.479004,0.599976c-0.358002,0.397034 -0.561981,0.96405 -0.613007,1.697021l4.165009,0c-0.014008,-0.732971 -0.20401,-1.299988 -0.574005,-1.697021c-0.368988,-0.40094 -0.869995,-0.599976 -1.498993,-0.599976z" id="svg_21"/>
      <path fill="#385584" d="m309.307007,481.238007c-3.388,0 -5.079987,-1.857971 -5.079987,-5.575012c0,-1.848999 0.458984,-3.260986 1.381989,-4.237c0.920013,-0.97699 2.239014,-1.464966 3.959991,-1.464966c1.258026,0 2.387024,0.245972 3.387024,0.73999l-0.876007,2.294983c-0.46701,-0.187012 -0.903015,-0.343018 -1.304993,-0.463013c-0.401001,-0.118958 -0.806,-0.179993 -1.206024,-0.179993c-1.544983,0 -2.315002,1.096985 -2.315002,3.290039c0,2.127991 0.771027,3.190979 2.315002,3.190979c0.570007,0 1.100006,-0.073975 1.585999,-0.228027c0.486023,-0.151978 0.973999,-0.393005 1.460022,-0.716003l0,2.540039c-0.480011,0.304016 -0.964996,0.515015 -1.455017,0.631958c-0.48999,0.118042 -1.108002,0.176025 -1.852997,0.176025z" id="svg_22"/>
      <path fill="#385584" d="m322.84201,481.045013l-0.398987,-1.393982l-0.154999,0c-0.320007,0.506958 -0.77002,0.896973 -1.353027,1.172974c-0.583984,0.275024 -1.25,0.413025 -1.993988,0.413025c-1.279999,0 -2.243011,-0.343018 -2.891998,-1.025024c-0.64801,-0.685974 -0.972992,-1.669983 -0.972992,-2.955017l0,-7.092957l2.968994,0l0,6.35498c0,0.783997 0.138,1.372986 0.417999,1.763977c0.277985,0.394043 0.721985,0.590027 1.333984,0.590027c0.828003,0 1.429016,-0.278015 1.800018,-0.833008c0.368988,-0.554016 0.553986,-1.473022 0.553986,-2.757996l0,-5.117981l2.969025,0l0,10.880981l-2.278015,0z" id="svg_23"/>
      <path fill="#385584" d="m334.305023,469.959991c0.402008,0 0.735992,0.030029 1.001984,0.086975l-0.222992,2.782043c-0.242004,-0.064026 -0.533997,-0.096008 -0.876007,-0.096008c-0.947998,0 -1.685974,0.242004 -2.214996,0.729004c-0.527985,0.485962 -0.791992,1.167969 -0.791992,2.044006l0,5.537964l-2.968994,0l0,-10.880981l2.247986,0l0.438019,1.828979l0.145996,0c0.335999,-0.609985 0.791992,-1.10199 1.365997,-1.474976c0.575989,-0.370972 1.198975,-0.557007 1.875,-0.557007z" id="svg_24"/>
      <path fill="#385584" d="m342.207001,481.238007c-1.752014,0 -3.122009,-0.482971 -4.105988,-1.450989c-0.987,-0.963989 -1.479004,-2.333008 -1.479004,-4.10498c0,-1.821045 0.454987,-3.231018 1.365997,-4.227051c0.912994,-0.996948 2.173004,-1.493958 3.779999,-1.493958c1.539001,0 2.734985,0.437988 3.59201,1.312012c0.855988,0.877991 1.283997,2.087952 1.283997,3.631958l0,1.439026l-7.016022,0c0.031006,0.843994 0.282013,1.502014 0.749023,1.97699c0.46698,0.473022 1.121002,0.710022 1.965973,0.710022c0.654022,0 1.274017,-0.069031 1.858002,-0.204041c0.584015,-0.138 1.193024,-0.354004 1.830017,-0.653015l0,2.298035c-0.52002,0.258972 -1.074005,0.451965 -1.664001,0.578003c-0.591003,0.125 -1.311981,0.187988 -2.160004,0.187988zm-0.419983,-9.166016c-0.628998,0 -1.122009,0.198975 -1.477997,0.599976c-0.358002,0.397034 -0.562988,0.96405 -0.614014,1.697021l4.166016,0c-0.014008,-0.732971 -0.204987,-1.299988 -0.575012,-1.697021c-0.368988,-0.40094 -0.868988,-0.599976 -1.498993,-0.599976z" id="svg_25"/>
      <path fill="#385584" d="m348.639008,479.652008c0,-0.544983 0.145996,-0.955994 0.438019,-1.236023c0.292999,-0.277954 0.71698,-0.417969 1.274994,-0.417969c0.537994,0 0.955994,0.143982 1.25,0.429016c0.29599,0.28595 0.442993,0.692993 0.442993,1.225952c0,0.513 -0.149994,0.917053 -0.447998,1.212036c-0.300018,0.294983 -0.713989,0.442993 -1.244995,0.442993c-0.545013,0 -0.968018,-0.145996 -1.266022,-0.432983c-0.298981,-0.292053 -0.446991,-0.697021 -0.446991,-1.223022z" id="svg_26"/>
     </g>
    </g>
   </g>
  </g>
  <g id="svg_27">
   <g id="svg_28">
    <path fill-rule="evenodd" clip-rule="evenodd" fill="#385584" d="m1.999997,33.849796c0,-2.040428 1.025004,-9.200127 8.94787,-17.602606c7.922228,-8.397363 19.408657,-15.088314 23.013098,-15.088314c1.316856,0 2.281189,6.373545 9.586506,8.8029c2.545582,0.845549 9.594799,2.209666 12.786053,2.514933c3.186123,0.300796 7.098381,-2.289495 6.388863,1.258103c-0.526882,2.640742 -4.009975,3.446057 -8.949791,3.142709c-1.574226,-0.098351 -14.54356,-1.835429 -19.176189,-6.288609c-1.735165,-1.669383 -5.070738,-5.842203 -15.977291,3.773675c-3.059048,2.698218 -8.394817,7.94011 -10.865045,13.201158c-0.600952,1.276627 -2.069806,4.610281 -0.643741,5.033064c1.433729,0.42149 11.022782,3.774307 15.341212,6.913822c4.323538,3.139507 8.0474,9.461971 9.589056,4.40081c1.544212,-5.059242 3.688099,-9.338711 8.308598,-13.832764c4.071918,-3.956326 9.699543,-7.059437 12.141666,-8.171932c1.640011,-0.742092 4.24754,-0.015966 0.643101,2.514931c-1.768364,1.242138 -10.74625,6.197289 -13.421478,12.574665c-8.443991,20.127117 -4.395706,18.970551 -7.506481,18.513931c-3.094172,-0.452789 -9.246111,-8.112541 -12.948898,-11.598831c-2.772299,-2.612003 -6.826332,-5.348541 -10.865041,-6.9151c-2.847659,-1.101006 -6.392065,-0.756783 -6.392065,-3.146545" id="svg_29"/>
    <g id="svg_30">
     <path fill="#999BA3" d="m78.935966,14.570144l-8.422905,20.077943l5.275719,0l1.475243,-3.940355l7.7696,0l1.562096,3.940355l5.385582,0l-8.336075,-20.077943l-4.709259,0zm-0.282913,12.252151l2.553246,-6.891476l2.497063,6.891476l-5.050308,0zm26.38443,3.347706c-0.717819,0.376793 -1.558258,0.566467 -2.52195,0.566467c-0.830215,0 -1.595306,-0.150717 -2.296516,-0.451511c-0.702507,-0.307821 -1.300255,-0.72868 -1.800934,-1.264492c-0.503258,-0.541559 -0.890266,-1.187857 -1.175728,-1.945271c-0.283554,-0.753586 -0.426613,-1.584446 -0.426613,-2.493217c0,-0.88834 0.143059,-1.707706 0.426613,-2.454903c0.285461,-0.74592 0.679497,-1.39477 1.187851,-1.939526c0.513458,-0.547945 1.12207,-0.984131 1.830322,-1.292589c0.710152,-0.311653 1.490562,-0.466202 2.340576,-0.466202c0.772751,0 1.535912,0.152634 2.267151,0.454067c0.740814,0.30335 1.334732,0.763803 1.78624,1.391579l3.290245,-3.29151c-0.851303,-0.964333 -1.958054,-1.696204 -3.329193,-2.198169c-1.373695,-0.498133 -2.766548,-0.752947 -4.186234,-0.752947c-1.532082,0 -2.956863,0.248428 -4.280746,0.740812c-1.321968,0.491108 -2.473419,1.195518 -3.45755,2.111957c-0.982849,0.917721 -1.754951,2.028292 -2.314407,3.33238c-0.556877,1.301538 -0.834686,2.758888 -0.834686,4.366325c0,1.567839 0.274612,3.006039 0.821289,4.309486c0.552406,1.304724 1.309822,2.426163 2.266495,3.361759c0.966881,0.935596 2.104294,1.657887 3.417313,2.168793c1.315582,0.510265 2.74675,0.766994 4.296082,0.766994c1.703873,0 3.20594,-0.300793 4.511299,-0.895359c1.309196,-0.595207 2.401245,-1.405632 3.287041,-2.427443l-3.368156,-3.172722c-0.441299,0.602871 -1.010956,1.092699 -1.735802,1.475239m19.495514,0c-0.717819,0.376793 -1.557625,0.566467 -2.521965,0.566467c-0.828934,0 -1.597206,-0.150717 -2.295876,-0.451511c-0.699936,-0.307821 -1.302803,-0.72868 -1.802216,-1.264492c-0.50132,-0.541559 -0.897278,-1.187857 -1.177635,-1.945271c-0.280357,-0.753586 -0.42086,-1.584446 -0.42086,-2.493217c0,-0.88834 0.140503,-1.707706 0.42086,-2.454903c0.279709,-0.74592 0.68206,-1.39477 1.19104,-1.939526c0.509636,-0.547945 1.122711,-0.984131 1.829689,-1.292589c0.710793,-0.311653 1.488647,-0.466202 2.339302,-0.466202c0.775307,0 1.529526,0.152634 2.267143,0.454067c0.740173,0.303358 1.338562,0.763803 1.791359,1.391579l3.284485,-3.29151c-0.849365,-0.964333 -1.96125,-1.696204 -3.329185,-2.198169c-1.37114,-0.498133 -2.762718,-0.752947 -4.181763,-0.752947c-1.532715,0 -2.959419,0.248428 -4.283295,0.740812c-1.324532,0.491108 -2.475983,1.195526 -3.460747,2.111957c-0.980942,0.917721 -1.750496,2.028299 -2.309303,3.33238c-0.558807,1.301538 -0.833412,2.758888 -0.833412,4.366325c0,1.567839 0.269501,3.006039 0.8181,4.309486c0.547935,1.304724 1.305992,2.426163 2.266495,3.361759c0.968803,0.935596 2.103645,1.657887 3.423073,2.168793c1.307907,0.510265 2.741638,0.766994 4.290955,0.766994c1.701324,0 3.206573,-0.300793 4.50428,-0.895359c1.311745,-0.595207 2.403824,-1.405632 3.295334,-2.427443l-3.375168,-3.172716c-0.435547,0.602869 -1.009033,1.092693 -1.73069,1.475233m24.752098,-13.304613c-0.969452,-0.90558 -2.122177,-1.602966 -3.46907,-2.093435c-1.338547,-0.492386 -2.797821,-0.740813 -4.367599,-0.740813c-1.5672,0 -3.021332,0.248427 -4.350983,0.740813c-1.331558,0.491107 -2.486191,1.187856 -3.461395,2.093435c-0.971344,0.912605 -1.732605,2.01169 -2.281189,3.307472c-0.547302,1.293238 -0.821915,2.746756 -0.821915,4.351639c0,1.583168 0.274612,3.040525 0.821915,4.353552c0.548584,1.314306 1.310471,2.439571 2.281189,3.37517c0.975204,0.935596 2.129837,1.657887 3.461395,2.168797c1.329651,0.510262 2.783783,0.766994 4.350983,0.766994c1.569778,0 3.029053,-0.256733 4.367599,-0.766994c1.346237,-0.511547 2.499619,-1.233841 3.46907,-2.168797c0.977097,-0.935598 1.739624,-2.060863 2.286926,-3.37517c0.548584,-1.313665 0.823196,-2.771025 0.823196,-4.353552c0,-1.605518 -0.274612,-3.058409 -0.823196,-4.351639c-0.547302,-1.295782 -1.30983,-2.395508 -2.286926,-3.307472m-2.503433,10.170214c-0.283554,0.765717 -0.682068,1.422228 -1.187881,1.968903c-0.516647,0.549858 -1.115662,0.979658 -1.818802,1.291309c-0.69931,0.314213 -1.472046,0.468758 -2.326553,0.468758c-0.842972,0 -1.627228,-0.154545 -2.323959,-0.468758c-0.700592,-0.311651 -1.297714,-0.741451 -1.799683,-1.291309c-0.505142,-0.546675 -0.894714,-1.203186 -1.178894,-1.968903c-0.281631,-0.767639 -0.424683,-1.606804 -0.424683,-2.511742c0,-0.867256 0.139206,-1.682158 0.412537,-2.437012c0.273361,-0.758062 0.664841,-1.40436 1.178284,-1.942719c0.505783,-0.540289 1.111847,-0.96434 1.812439,-1.278547c0.696732,-0.307823 1.480347,-0.464926 2.323959,-0.464926c0.854507,0 1.632355,0.156466 2.340591,0.464926c0.708252,0.314207 1.311127,0.738258 1.815628,1.278547c0.501343,0.538359 0.892822,1.184656 1.177017,1.942719c0.282257,0.755493 0.423416,1.569756 0.423416,2.437012c0,0.905579 -0.140518,1.744102 -0.423416,2.511742m21.665588,-0.354439c0,0.546663 -0.065781,1.069702 -0.198624,1.556978c-0.132828,0.494938 -0.350632,0.933041 -0.655243,1.317505c-0.30397,0.38764 -0.694809,0.694826 -1.17572,0.923454c-0.475784,0.227995 -1.058838,0.339115 -1.741547,0.339115c-0.678223,0 -1.26387,-0.11112 -1.748581,-0.339115c-0.482178,-0.227989 -0.864716,-0.535172 -1.162949,-0.923454c-0.288025,-0.385101 -0.510269,-0.822567 -0.652039,-1.317505c-0.140488,-0.487913 -0.210754,-1.010315 -0.210754,-1.556978l0,-12.111018l-4.816559,0l0,12.50505c0,1.2134 0.197342,2.314404 0.597137,3.305563c0.395935,0.993074 0.96048,1.845009 1.694916,2.553249c0.740158,0.706963 1.637451,1.260017 2.700775,1.654053c1.053726,0.402973 2.242218,0.600952 3.570587,0.600952c1.301544,0 2.488129,-0.198616 3.555908,-0.600952c1.069061,-0.394035 1.981674,-0.946453 2.733337,-1.654053c0.758713,-0.708241 1.338577,-1.560175 1.747299,-2.553249c0.401062,-0.991159 0.608612,-2.092163 0.608612,-3.305563l0,-12.50505l-4.847855,0l0,12.111018l0.001297,0zm22.771683,0.990511l-0.085571,0l-8.049332,-13.102167l-5.533737,0l0,20.077951l4.704163,0l-0.115585,-13.130915l0.086868,0l8.07933,13.130915l5.505646,0l0,-20.077313l-4.706726,0l0.114944,13.101529zm7.440704,-8.961281l5.67041,0l0,15.937695l4.853607,0l0,-15.937695l5.669144,0l0,-4.140248l-16.193161,0l0,4.140248zm30.444855,11.459608c-0.719101,0.376793 -1.562714,0.566467 -2.530258,0.566467c-0.831482,0 -1.592743,-0.150717 -2.293961,-0.451511c-0.694824,-0.307821 -1.299622,-0.72868 -1.800323,-1.264492c-0.501297,-0.541559 -0.892776,-1.187857 -1.181442,-1.945271c-0.278458,-0.753586 -0.419601,-1.584446 -0.419601,-2.493217c0,-0.88834 0.141785,-1.707706 0.419601,-2.454903c0.28801,-0.74592 0.685898,-1.39477 1.197433,-1.939526c0.509644,-0.547945 1.115677,-0.984123 1.828384,-1.292589c0.708252,-0.311647 1.489929,-0.466202 2.341232,-0.466202c0.774673,0 1.529526,0.152634 2.261383,0.454067c0.739548,0.303358 1.33667,0.763803 1.787537,1.391579l3.294052,-3.29151c-0.851273,-0.964333 -1.963776,-1.696204 -3.336197,-2.198169c-1.368576,-0.498133 -2.766556,-0.752947 -4.181137,-0.752947c-1.530136,0 -2.954285,0.248428 -4.279449,0.740812c-1.327087,0.491108 -2.482361,1.195526 -3.46138,2.111957c-0.984787,0.917721 -1.752411,2.028299 -2.309296,3.332386c-0.560715,1.301533 -0.835342,2.75889 -0.835342,4.36632c0,1.567846 0.274628,3.006039 0.817474,4.309486c0.551758,1.304724 1.304703,2.426163 2.272232,3.361759c0.963684,0.935596 2.095337,1.657894 3.413483,2.168793c1.312408,0.510265 2.749939,0.766994 4.295441,0.766994c1.705139,0 3.210403,-0.300793 4.509384,-0.895359c1.304733,-0.5952 2.405716,-1.405632 3.292145,-2.427443l-3.374527,-3.172716c-0.440033,0.602869 -1.009048,1.092701 -1.726868,1.475233m19.609833,-8.00141l-7.832809,0l0,-7.598447l-4.845947,0l0,20.07795l4.845947,0l0,-8.39546l7.832809,0l0,8.39546l4.845322,0l0,-20.07795l-4.845322,0l0,7.598447zm13.266296,4.170261l8.338593,0l0,-3.882883l-8.338593,0l0,-3.799852l8.82074,0l0,-4.085335l-13.494934,0l0,20.077946l14.009705,0l0,-4.139612l-9.334869,0l0,-4.170263l-0.000641,0zm22.457489,-2.521315l8.648956,-9.247394l-6.065063,0l-7.174408,8.168738l-0.090027,0l0,-8.168738l-4.73291,0l0,20.07795l4.73291,0l0,-9.245476l0.059387,0l7.457916,9.245476l6.323151,0l-9.159912,-10.830557z" id="svg_31"/>
     <g id="svg_32">
      <path fill="#385584" d="m77.697021,51.89817c0,0.820644 -0.296326,1.46693 -0.886414,1.939526c-0.591385,0.472595 -1.412018,0.708244 -2.463219,0.708244c-0.970078,0 -1.827118,-0.182007 -2.573044,-0.547314l0,-1.788803c0.613098,0.273335 1.132286,0.466198 1.556351,0.577324c0.425331,0.112408 0.81234,0.168598 1.166145,0.168598c0.422127,0 0.747192,-0.079826 0.971992,-0.243309c0.226082,-0.160942 0.338478,-0.401703 0.338478,-0.72102c0,-0.178181 -0.049171,-0.336563 -0.148804,-0.475143c-0.098984,-0.138584 -0.246506,-0.273338 -0.439384,-0.400417c-0.192863,-0.128376 -0.584335,-0.334011 -1.177002,-0.615009c-0.554955,-0.261829 -0.971344,-0.511547 -1.24852,-0.75359c-0.279083,-0.239483 -0.499405,-0.519836 -0.665451,-0.837872c-0.166679,-0.318047 -0.248428,-0.691002 -0.248428,-1.117607c0,-0.804684 0.272697,-1.43692 0.81617,-1.896107c0.545387,-0.460453 1.297707,-0.690994 2.259476,-0.690994c0.471962,0 0.922188,0.057476 1.350708,0.168591c0.429169,0.111126 0.87812,0.270782 1.346237,0.472595l-0.622032,1.498226c-0.484718,-0.199249 -0.88578,-0.337833 -1.203178,-0.417664c-0.316757,-0.077274 -0.629051,-0.117512 -0.934319,-0.117512c-0.365936,0 -0.645012,0.084934 -0.839157,0.255451c-0.194794,0.16861 -0.291855,0.390213 -0.291855,0.66354c0,0.169884 0.038956,0.318039 0.118141,0.445129c0.078568,0.125809 0.20372,0.248421 0.375519,0.365299c0.173073,0.118778 0.579239,0.330811 1.22171,0.637348c0.84874,0.406818 1.430527,0.812984 1.74601,1.222343c0.316124,0.408092 0.473869,0.909405 0.473869,1.500145z" id="svg_33"/>
      <path fill="#385584" d="m79.114151,45.677902c0,-0.616276 0.342293,-0.925369 1.031395,-0.925369c0.687157,0 1.03138,0.309093 1.03138,0.925369c0,0.294411 -0.086227,0.523674 -0.258011,0.687168c-0.171783,0.164768 -0.430435,0.245876 -0.773369,0.245876c-0.689102,0 -1.031395,-0.310387 -1.031395,-0.933044zm1.975922,8.745426l-1.895462,0l0,-6.948952l1.895462,0l0,6.948952z" id="svg_34"/>
      <path fill="#385584" d="m89.299683,54.423328l-1.896095,0l0,-4.058502c0,-0.501331 -0.084305,-0.87812 -0.252266,-1.129105s-0.431076,-0.374237 -0.79126,-0.374237c-0.485367,0 -0.837891,0.176899 -1.056305,0.533897c-0.220329,0.355717 -0.33017,0.943256 -0.33017,1.758785l0,3.269161l-1.895454,0l0,-6.948952l1.448418,0l0.254173,0.888336l0.105377,0c0.18647,-0.318043 0.455338,-0.569023 0.808502,-0.748486c0.351891,-0.179447 0.756142,-0.269497 1.21212,-0.269497c1.039063,0 1.742828,0.340393 2.113235,1.017982l0.167328,0c0.18647,-0.321877 0.461731,-0.572212 0.823189,-0.751034c0.36274,-0.179459 0.771469,-0.266949 1.228088,-0.266949c0.786156,0 1.382004,0.201817 1.785622,0.606064c0.404251,0.402977 0.606697,1.050552 0.606697,1.9408l0,4.531734l-1.901848,0l0,-4.058502c0,-0.501331 -0.084938,-0.87812 -0.252899,-1.129112s-0.431068,-0.374229 -0.791267,-0.374229c-0.46492,0 -0.811691,0.164768 -1.041611,0.496216c-0.229904,0.332077 -0.344215,0.857044 -0.344215,1.579334l0,3.486294l0.000641,0z" id="svg_35"/>
      <path fill="#385584" d="m99.391975,54.546577c-0.81617,0 -1.456085,-0.295681 -1.920357,-0.888344l-0.098999,0c0.065788,0.578606 0.098999,0.914528 0.098999,1.005211l0,2.816368l-1.895462,0l0,-10.006081l1.541008,0l0.266953,0.900475l0.087502,0c0.442574,-0.687172 1.100357,-1.030117 1.970818,-1.030117c0.82,0 1.461182,0.316761 1.926102,0.950287c0.464294,0.632244 0.696114,1.514187 0.696114,2.642014c0,0.74081 -0.109207,1.38583 -0.326332,1.931858c-0.218422,0.546043 -0.527512,0.96307 -0.928581,1.248531c-0.40361,0.287388 -0.875565,0.429798 -1.417763,0.429798zm-0.559433,-5.685093c-0.468124,0 -0.810417,0.143692 -1.024368,0.431717c-0.216499,0.286743 -0.329544,0.761887 -0.335922,1.425426l0,0.20435c0,0.745937 0.111115,1.281113 0.332085,1.604256c0.222885,0.323143 0.572861,0.484077 1.05439,0.484077c0.84874,0 1.273422,-0.699932 1.273422,-2.099178c0,-0.684608 -0.104729,-1.197433 -0.314201,-1.537823c-0.209473,-0.343594 -0.537727,-0.512825 -0.985405,-0.512825z" id="svg_36"/>
      <path fill="#385584" d="m105.526047,54.423328l-1.895462,0l0,-9.670795l1.895462,0l0,9.670795z" id="svg_37"/>
      <path fill="#385584" d="m110.659996,54.546577c-1.11953,0 -1.993813,-0.309093 -2.622223,-0.926655c-0.630981,-0.616283 -0.944542,-1.49057 -0.944542,-2.621582c0,-1.163597 0.290581,-2.06406 0.872368,-2.699505c0.582428,-0.637356 1.387115,-0.954105 2.414673,-0.954105c0.981575,0 1.74601,0.279709 2.292686,0.837238c0.547318,0.561352 0.820641,1.333462 0.820641,2.320156l0,0.918991l-4.480644,0c0.019173,0.538998 0.180107,0.959221 0.47834,1.262577c0.298241,0.302067 0.715904,0.452789 1.255547,0.452789c0.41703,0 0.814255,-0.043434 1.186584,-0.12965c0.372322,-0.088768 0.761887,-0.226074 1.168686,-0.417664l0,1.468212c-0.332718,0.164768 -0.685875,0.288029 -1.063316,0.369129s-0.837883,0.120068 -1.378799,0.120068zm-0.267586,-5.853699c-0.402977,0 -0.717186,0.127083 -0.944534,0.383186c-0.22863,0.252888 -0.35891,0.614994 -0.391479,1.083748l2.659904,0c-0.008949,-0.468754 -0.129654,-0.83086 -0.366592,-1.083748c-0.236275,-0.256104 -0.555595,-0.383186 -0.957298,-0.383186z" id="svg_38"/>
      <path fill="#385584" d="m114.767036,53.533707c0,-0.348053 0.093231,-0.611168 0.279724,-0.78936s0.457893,-0.266945 0.813599,-0.266945c0.343597,0 0.610542,0.091331 0.798943,0.273342c0.188393,0.183292 0.282913,0.44257 0.282913,0.783607c0,0.326973 -0.095795,0.584976 -0.286118,0.77338c-0.191574,0.188404 -0.455971,0.282913 -0.795738,0.282913c-0.347404,0 -0.617546,-0.092602 -0.807861,-0.275887c-0.190941,-0.185841 -0.285461,-0.445766 -0.285461,-0.781052z" id="svg_39"/>
      <path fill="#385584" d="m127.482834,51.89817c0,0.820644 -0.295692,1.46693 -0.886429,1.939526c-0.590088,0.472595 -1.41201,0.708244 -2.463196,0.708244c-0.969444,0 -1.827133,-0.182007 -2.573059,-0.547314l0,-1.788803c0.613098,0.273335 1.132301,0.466198 1.556351,0.577324c0.425331,0.112408 0.81234,0.168598 1.166145,0.168598c0.422775,0 0.747192,-0.079826 0.972,-0.243309c0.226074,-0.160942 0.338463,-0.401703 0.338463,-0.72102c0,-0.178181 -0.049171,-0.336563 -0.148148,-0.475143c-0.099632,-0.138584 -0.247162,-0.273338 -0.439384,-0.400417c-0.192871,-0.128376 -0.585632,-0.334011 -1.177628,-0.615009c-0.555626,-0.261829 -0.971367,-0.511547 -1.248535,-0.75359c-0.279083,-0.239483 -0.500053,-0.519836 -0.665459,-0.837872c-0.166687,-0.318047 -0.249062,-0.691002 -0.249062,-1.117607c0,-0.804684 0.273331,-1.43692 0.817444,-1.896107c0.545395,-0.460453 1.297066,-0.690994 2.25885,-0.690994c0.471939,0 0.92218,0.057476 1.351334,0.168591c0.428535,0.111126 0.877487,0.270782 1.345589,0.472595l-0.621994,1.498226c-0.484749,-0.199249 -0.886421,-0.337833 -1.203194,-0.417664c-0.316765,-0.077274 -0.628418,-0.117512 -0.934319,-0.117512c-0.365944,0 -0.64566,0.084934 -0.839172,0.255451c-0.195419,0.16861 -0.291855,0.390213 -0.291855,0.66354c0,0.169884 0.038963,0.318039 0.118141,0.445129c0.07856,0.125809 0.204376,0.248421 0.375534,0.365299c0.173058,0.118778 0.579231,0.330811 1.221695,0.637348c0.849373,0.406818 1.430542,0.812984 1.74601,1.222343c0.315498,0.408092 0.473877,0.909405 0.473877,1.500145z" id="svg_40"/>
      <path fill="#385584" d="m135.200699,54.423328l-1.895447,0l0,-4.058502c0,-0.501331 -0.084946,-0.87812 -0.25293,-1.129105c-0.167297,-0.250973 -0.431686,-0.374237 -0.791885,-0.374237c-0.484726,0 -0.83725,0.176899 -1.055634,0.533897c-0.220337,0.355717 -0.330185,0.943256 -0.330185,1.758785l0,3.269161l-1.895477,0l0,-6.948952l1.448425,0l0.254807,0.888336l0.105377,0c0.186493,-0.318043 0.455368,-0.569023 0.808517,-0.748486c0.351242,-0.179447 0.755493,-0.269497 1.210861,-0.269497c1.039673,0 1.743454,0.340393 2.113861,1.017982l0.167969,0c0.186478,-0.321877 0.461075,-0.572212 0.82254,-0.751034c0.362747,-0.179459 0.77211,-0.266949 1.227463,-0.266949c0.787445,0 1.381989,0.201817 1.78688,0.606064c0.403625,0.402977 0.606079,1.050552 0.606079,1.9408l0,4.531734l-1.901871,0l0,-4.058502c0,-0.501331 -0.08493,-0.87812 -0.252899,-1.129112c-0.167313,-0.250977 -0.431061,-0.374229 -0.791901,-0.374229c-0.464279,0 -0.81105,0.164768 -1.041595,0.496216c-0.229263,0.332077 -0.343597,0.857044 -0.343597,1.579334l0,3.486294l0.000641,0z" id="svg_41"/>
      <path fill="#385584" d="m145.890106,54.423328l-0.366577,-0.944534l-0.04982,0c-0.319305,0.401707 -0.647552,0.679501 -0.984756,0.835964c-0.337189,0.154556 -0.779129,0.231823 -1.320053,0.231823c-0.668015,0 -1.192322,-0.190956 -1.576782,-0.57222c-0.383179,-0.380619 -0.573471,-0.922813 -0.573471,-1.627865c0,-0.736977 0.256729,-1.282372 0.77272,-1.631699c0.516647,-0.348053 1.293869,-0.544121 2.334198,-0.579884l1.205734,-0.038956l0,-0.303352c0,-0.705048 -0.360184,-1.057571 -1.080536,-1.057571c-0.556259,0 -1.208939,0.168602 -1.958054,0.50388l-0.627792,-1.279819c0.799591,-0.417671 1.686005,-0.627129 2.660553,-0.627129c0.932388,0 1.647034,0.201801 2.143906,0.608601c0.496826,0.40554 0.745895,1.024376 0.745895,1.852039l0,4.630081l-1.325165,0l0,0.000637l0,0.000004zm-0.559433,-3.219345l-0.733139,0.023628c-0.551132,0.015976 -0.961777,0.116241 -1.230652,0.299526c-0.269501,0.182003 -0.403595,0.459171 -0.403595,0.832134c0,0.533894 0.305893,0.80212 0.919617,0.80212c0.439377,0 0.789337,-0.125805 1.052475,-0.379341c0.263123,-0.25227 0.394669,-0.588821 0.394669,-1.006493l0,-0.571575l0.000626,0z" id="svg_42"/>
      <path fill="#385584" d="m153.043442,47.34473c0.255447,0 0.469406,0.01852 0.639923,0.054928l-0.143692,1.777306c-0.15329,-0.040859 -0.339767,-0.061298 -0.559464,-0.061298c-0.604782,0 -1.07608,0.154541 -1.414566,0.465557c-0.335922,0.310383 -0.505142,0.745922 -0.505142,1.306l0,3.536106l-1.896118,0l0,-6.948952l1.435669,0l0.279694,1.168694l0.093246,0c0.21521,-0.390202 0.505814,-0.703773 0.87236,-0.941978s0.765732,-0.356361 1.19809,-0.356361z" id="svg_43"/>
      <path fill="#385584" d="m157.87085,53.036205c0.331467,0 0.729324,-0.072166 1.193604,-0.217129l0,1.410736c-0.471954,0.210751 -1.05246,0.316761 -1.740906,0.316761c-0.758072,0 -1.309845,-0.19223 -1.656616,-0.574772c-0.34549,-0.383179 -0.518585,-0.957947 -0.518585,-1.723663l0,-3.350269l-0.907471,0l0,-0.802746l1.044144,-0.63353l0.547333,-1.46566l1.211472,0l0,1.477787l1.945267,0l0,1.423512l-1.945267,0l0,3.350262c0,0.268227 0.075363,0.46748 0.226059,0.595211c0.152649,0.129646 0.353821,0.193512 0.600967,0.193512l0,-0.000011z" id="svg_44"/>
      <path fill="#385584" d="m160.201859,53.533707c0,-0.348053 0.093872,-0.611168 0.279694,-0.78936c0.186508,-0.178165 0.457916,-0.266945 0.814911,-0.266945c0.342316,0 0.609909,0.091331 0.797653,0.273342c0.189026,0.183292 0.282913,0.44257 0.282913,0.783607c0,0.326973 -0.095154,0.584976 -0.285477,0.77338c-0.191574,0.188404 -0.456619,0.282913 -0.79509,0.282913c-0.348679,0 -0.618195,-0.092602 -0.808502,-0.275887c-0.191589,-0.185841 -0.286102,-0.445766 -0.286102,-0.781052z" id="svg_45"/>
      <path fill="#385584" d="m172.917007,51.89817c0,0.820644 -0.295685,1.46693 -0.886398,1.939526c-0.590118,0.472595 -1.411377,0.708244 -2.463211,0.708244c-0.969437,0 -1.827148,-0.182007 -2.571777,-0.547314l0,-1.788803c0.611816,0.273335 1.131027,0.466198 1.556366,0.577324c0.424042,0.112408 0.812302,0.168598 1.165497,0.168598c0.422134,0 0.746552,-0.079826 0.971344,-0.243309c0.226074,-0.160942 0.339127,-0.401703 0.339127,-0.72102c0,-0.178181 -0.04982,-0.336563 -0.148834,-0.475143c-0.099609,-0.138584 -0.24649,-0.273338 -0.439346,-0.400417c-0.192871,-0.128376 -0.584991,-0.334011 -1.177643,-0.615009c-0.554977,-0.261829 -0.971359,-0.511547 -1.24852,-0.75359c-0.278458,-0.239483 -0.499405,-0.519836 -0.664825,-0.837872c-0.166687,-0.318047 -0.249069,-0.691002 -0.249069,-1.117607c0,-0.804684 0.272705,-1.43692 0.816818,-1.896107c0.54538,-0.460453 1.297043,-0.690994 2.259491,-0.690994c0.471924,0 0.92218,0.057476 1.350677,0.168591s0.877487,0.270782 1.346252,0.472595l-0.621368,1.498226c-0.485382,-0.199249 -0.887085,-0.337833 -1.203842,-0.417664c-0.316772,-0.077274 -0.628418,-0.117512 -0.934952,-0.117512c-0.365326,0 -0.64502,0.084934 -0.837875,0.255451c-0.196075,0.16861 -0.292511,0.390213 -0.292511,0.66354c0,0.169884 0.03833,0.318039 0.118149,0.445129c0.078568,0.125809 0.203705,0.248421 0.375504,0.365299c0.17308,0.118778 0.578613,0.330811 1.22171,0.637348c0.848755,0.406818 1.430527,0.812984 1.746674,1.222343c0.31485,0.408092 0.472565,0.909405 0.472565,1.500145z" id="svg_46"/>
      <path fill="#385584" d="m177.559906,54.546577c-1.118927,0 -1.993835,-0.309093 -2.622253,-0.926655c-0.63031,-0.616283 -0.944519,-1.49057 -0.944519,-2.621582c0,-1.163597 0.291214,-2.06406 0.872375,-2.699505c0.582413,-0.637356 1.387756,-0.954105 2.414658,-0.954105c0.982224,0 1.746643,0.279709 2.293945,0.837238c0.546692,0.561352 0.820023,1.333462 0.820023,2.320156l0,0.918991l-4.481277,0c0.019791,0.538998 0.180099,0.959221 0.478973,1.262577c0.298248,0.302067 0.715897,0.452789 1.254898,0.452789c0.418289,0 0.814255,-0.043434 1.187225,-0.12965c0.372314,-0.088768 0.761871,-0.226074 1.16806,-0.417664l0,1.468212c-0.332733,0.164768 -0.685898,0.288029 -1.062027,0.369129c-0.378738,0.07983 -0.838547,0.120068 -1.380081,0.120068zm-0.267609,-5.853699c-0.402328,0 -0.717178,0.127083 -0.94455,0.383186c-0.228622,0.252888 -0.358887,0.614994 -0.391479,1.083748l2.659912,0c-0.008942,-0.468754 -0.130295,-0.83086 -0.366577,-1.083748c-0.235657,-0.256104 -0.555603,-0.383186 -0.957306,-0.383186z" id="svg_47"/>
      <path fill="#385584" d="m184.756622,54.546577c-2.163681,0 -3.244232,-1.18721 -3.244232,-3.561005c0,-1.180199 0.293106,-2.081944 0.882568,-2.705246c0.58754,-0.623951 1.429886,-0.935596 2.528961,-0.935596c0.803421,0 1.524445,0.157101 2.163071,0.47258l-0.559433,1.465664c-0.298248,-0.120056 -0.576706,-0.219688 -0.83342,-0.295689s-0.514725,-0.114944 -0.770218,-0.114944c-0.986649,0 -1.478424,0.699932 -1.478424,2.10046c0,1.35965 0.492416,2.037868 1.478424,2.037868c0.364044,0 0.702515,-0.047264 1.012878,-0.144978s0.62204,-0.250973 0.932419,-0.457893l0,1.622765c-0.306549,0.193504 -0.616272,0.328255 -0.929214,0.402973c-0.312927,0.075352 -0.707611,0.113041 -1.18338,0.113041z" id="svg_48"/>
      <path fill="#385584" d="m193.400497,54.423328l-0.254807,-0.88961l-0.098984,0c-0.204376,0.323143 -0.49176,0.572212 -0.864075,0.748466c-0.372971,0.175632 -0.798294,0.264408 -1.273438,0.264408c-0.817444,0 -1.432449,-0.219696 -1.846924,-0.65461c-0.413834,-0.438091 -0.621368,-1.066513 -0.621368,-1.887161l0,-4.530445l1.896088,0l0,4.058506c0,0.50132 0.088135,0.876839 0.266937,1.126545c0.177536,0.252262 0.46109,0.376793 0.851929,0.376793c0.528793,0 0.912613,-0.176895 1.149551,-0.531342c0.235657,-0.354439 0.353806,-0.940701 0.353806,-1.761345l0,-3.269157l1.896103,0l0,6.948952l-1.454819,0z" id="svg_49"/>
      <path fill="#385584" d="m200.721146,47.34473c0.256729,0 0.470016,0.01852 0.639893,0.054928l-0.14241,1.777306c-0.154541,-0.040859 -0.341019,-0.061298 -0.559433,-0.061298c-0.605423,0 -1.076736,0.154541 -1.414581,0.465557c-0.337173,0.310383 -0.505783,0.745922 -0.505783,1.306l0,3.536106l-1.896088,0l0,-6.948952l1.435638,0l0.279724,1.168694l0.093231,0c0.2146,-0.390202 0.505798,-0.703773 0.872375,-0.941978c0.367859,-0.238213 0.765701,-0.356361 1.197433,-0.356361z" id="svg_50"/>
      <path fill="#385584" d="m205.76825,54.546577c-1.118881,0 -1.99382,-0.309093 -2.622223,-0.926655c-0.630325,-0.616283 -0.944534,-1.49057 -0.944534,-2.621582c0,-1.163597 0.290573,-2.06406 0.87236,-2.699505c0.583069,-0.637356 1.387756,-0.954105 2.414032,-0.954105c0.982864,0 1.746658,0.279709 2.293976,0.837238c0.546646,0.561352 0.819992,1.333462 0.819992,2.320156l0,0.918991l-4.480652,0c0.019791,0.538998 0.180099,0.959221 0.478348,1.262577c0.298233,0.302067 0.715912,0.452789 1.255569,0.452789c0.417648,0 0.813599,-0.043434 1.186584,-0.12965c0.37294,-0.088768 0.761856,-0.226074 1.168671,-0.417664l0,1.468212c-0.332062,0.164768 -0.685883,0.288029 -1.062683,0.369129c-0.378067,0.07983 -0.838516,0.120068 -1.37944,0.120068zm-0.268204,-5.853699c-0.401718,0 -0.716568,0.127083 -0.943924,0.383186c-0.228607,0.252888 -0.359558,0.614994 -0.39212,1.083748l2.660553,0c-0.008942,-0.468754 -0.130936,-0.83086 -0.367218,-1.083748c-0.236313,-0.256104 -0.555603,-0.383186 -0.957291,-0.383186z" id="svg_51"/>
      <path fill="#385584" d="m209.87529,53.533707c0,-0.348053 0.093231,-0.611168 0.279709,-0.78936c0.187134,-0.178165 0.457901,-0.266945 0.814255,-0.266945c0.343597,0 0.61055,0.091331 0.798294,0.273342c0.189026,0.183292 0.282913,0.44257 0.282913,0.783607c0,0.326973 -0.095779,0.584976 -0.286102,0.77338c-0.191589,0.188404 -0.455978,0.282913 -0.795105,0.282913c-0.348038,0 -0.618195,-0.092602 -0.808502,-0.275887c-0.190308,-0.185841 -0.285461,-0.445766 -0.285461,-0.781052z" id="svg_52"/>
     </g>
    </g>
   </g>
  </g>
 </g>
</svg>