<?xml version="1.0" encoding="utf-8"?>
<!-- Generator: Adobe Illustrator 17.1.0, SVG Export Plug-In . SVG Version: 6.00 Build 0)  -->
<!DOCTYPE svg PUBLIC "-//W3C//DTD SVG 1.1//EN" "http://www.w3.org/Graphics/SVG/1.1/DTD/svg11.dtd">
<svg version="1.1" id="Isolation_Mode" xmlns="http://www.w3.org/2000/svg" xmlns:xlink="http://www.w3.org/1999/xlink" x="0px"
	 y="0px" viewBox="0 0 223.6 48.1" enable-background="new 0 0 223.6 48.1" xml:space="preserve">
<g>
	<path fill="#FFFFFF" d="M57.2,24l-6.5,15.6h4.1l1.1-3.1h6l1.2,3.1h4.2L60.8,24H57.2z M56.9,33.5l2-5.3l1.9,5.3H56.9z M77.4,36.1
		c-0.6,0.3-1.2,0.4-2,0.4c-0.6,0-1.2-0.1-1.8-0.3c-0.5-0.2-1-0.6-1.4-1c-0.4-0.4-0.7-0.9-0.9-1.5c-0.2-0.6-0.3-1.2-0.3-1.9
		c0-0.7,0.1-1.3,0.3-1.9c0.2-0.6,0.5-1.1,0.9-1.5c0.4-0.4,0.9-0.8,1.4-1c0.5-0.2,1.2-0.4,1.8-0.4c0.6,0,1.2,0.1,1.8,0.4
		c0.6,0.2,1,0.6,1.4,1.1l2.6-2.6c-0.7-0.7-1.5-1.3-2.6-1.7c-1.1-0.4-2.1-0.6-3.2-0.6c-1.2,0-2.3,0.2-3.3,0.6c-1,0.4-1.9,0.9-2.7,1.6
		c-0.8,0.7-1.4,1.6-1.8,2.6c-0.4,1-0.6,2.1-0.6,3.4c0,1.2,0.2,2.3,0.6,3.3c0.4,1,1,1.9,1.8,2.6c0.7,0.7,1.6,1.3,2.7,1.7
		c1,0.4,2.1,0.6,3.3,0.6c1.3,0,2.5-0.2,3.5-0.7c1-0.5,1.9-1.1,2.6-1.9L78.7,35C78.4,35.5,78,35.8,77.4,36.1 M92.5,36.1
		c-0.6,0.3-1.2,0.4-2,0.4c-0.6,0-1.2-0.1-1.8-0.3c-0.5-0.2-1-0.6-1.4-1c-0.4-0.4-0.7-0.9-0.9-1.5c-0.2-0.6-0.3-1.2-0.3-1.9
		c0-0.7,0.1-1.3,0.3-1.9c0.2-0.6,0.5-1.1,0.9-1.5c0.4-0.4,0.9-0.8,1.4-1c0.6-0.2,1.2-0.4,1.8-0.4c0.6,0,1.2,0.1,1.8,0.4
		c0.6,0.2,1,0.6,1.4,1.1l2.6-2.6c-0.7-0.7-1.5-1.3-2.6-1.7c-1.1-0.4-2.1-0.6-3.2-0.6c-1.2,0-2.3,0.2-3.3,0.6c-1,0.4-1.9,0.9-2.7,1.6
		c-0.8,0.7-1.4,1.6-1.8,2.6c-0.4,1-0.6,2.1-0.6,3.4c0,1.2,0.2,2.3,0.6,3.3c0.4,1,1,1.9,1.8,2.6c0.7,0.7,1.6,1.3,2.7,1.7
		c1,0.4,2.1,0.6,3.3,0.6c1.3,0,2.5-0.2,3.5-0.7c1-0.5,1.9-1.1,2.6-1.9L93.9,35C93.5,35.5,93.1,35.8,92.5,36.1 M111.7,25.8
		c-0.8-0.7-1.7-1.2-2.7-1.6c-1-0.4-2.2-0.6-3.4-0.6c-1.2,0-2.3,0.2-3.4,0.6c-1,0.4-1.9,0.9-2.7,1.6c-0.8,0.7-1.3,1.6-1.8,2.6
		c-0.4,1-0.6,2.1-0.6,3.4c0,1.2,0.2,2.4,0.6,3.4c0.4,1,1,1.9,1.8,2.6c0.8,0.7,1.6,1.3,2.7,1.7c1,0.4,2.2,0.6,3.4,0.6
		c1.2,0,2.3-0.2,3.4-0.6c1-0.4,1.9-1,2.7-1.7c0.8-0.7,1.3-1.6,1.8-2.6c0.4-1,0.6-2.1,0.6-3.4c0-1.2-0.2-2.4-0.6-3.4
		C113.1,27.4,112.5,26.5,111.7,25.8 M109.8,33.7c-0.2,0.6-0.5,1.1-0.9,1.5c-0.4,0.4-0.9,0.8-1.4,1c-0.5,0.2-1.1,0.4-1.8,0.4
		c-0.7,0-1.3-0.1-1.8-0.4c-0.5-0.2-1-0.6-1.4-1c-0.4-0.4-0.7-0.9-0.9-1.5c-0.2-0.6-0.3-1.2-0.3-1.9c0-0.7,0.1-1.3,0.3-1.9
		c0.2-0.6,0.5-1.1,0.9-1.5c0.4-0.4,0.9-0.7,1.4-1c0.5-0.2,1.1-0.4,1.8-0.4c0.7,0,1.3,0.1,1.8,0.4c0.6,0.2,1,0.6,1.4,1
		c0.4,0.4,0.7,0.9,0.9,1.5c0.2,0.6,0.3,1.2,0.3,1.9C110.1,32.5,110,33.1,109.8,33.7 M126.6,33.4c0,0.4-0.1,0.8-0.2,1.2
		c-0.1,0.4-0.3,0.7-0.5,1c-0.2,0.3-0.5,0.5-0.9,0.7c-0.4,0.2-0.8,0.3-1.4,0.3c-0.5,0-1-0.1-1.4-0.3c-0.4-0.2-0.7-0.4-0.9-0.7
		c-0.2-0.3-0.4-0.6-0.5-1c-0.1-0.4-0.2-0.8-0.2-1.2V24H117v9.7c0,0.9,0.2,1.8,0.5,2.6c0.3,0.8,0.7,1.4,1.3,2c0.6,0.5,1.3,1,2.1,1.3
		c0.8,0.3,1.7,0.5,2.8,0.5c1,0,1.9-0.2,2.8-0.5c0.8-0.3,1.5-0.7,2.1-1.3c0.6-0.6,1-1.2,1.4-2c0.3-0.8,0.5-1.6,0.5-2.6V24h-3.8V33.4z
		 M144.2,34.2L144.2,34.2L137.9,24h-4.3v15.6h3.7l-0.1-10.2h0.1l6.3,10.2h4.3V24h-3.6L144.2,34.2z M150,27.2h4.4v12.4h3.8V27.2h4.4
		V24H150V27.2z M173.6,36.1c-0.6,0.3-1.2,0.4-2,0.4c-0.6,0-1.2-0.1-1.8-0.3c-0.5-0.2-1-0.6-1.4-1c-0.4-0.4-0.7-0.9-0.9-1.5
		c-0.2-0.6-0.3-1.2-0.3-1.9c0-0.7,0.1-1.3,0.3-1.9c0.2-0.6,0.5-1.1,0.9-1.5c0.4-0.4,0.9-0.8,1.4-1c0.6-0.2,1.2-0.4,1.8-0.4
		c0.6,0,1.2,0.1,1.8,0.4c0.6,0.2,1,0.6,1.4,1.1l2.6-2.6c-0.7-0.7-1.5-1.3-2.6-1.7c-1.1-0.4-2.1-0.6-3.2-0.6c-1.2,0-2.3,0.2-3.3,0.6
		c-1,0.4-1.9,0.9-2.7,1.6c-0.8,0.7-1.4,1.6-1.8,2.6c-0.4,1-0.6,2.1-0.6,3.4c0,1.2,0.2,2.3,0.6,3.3c0.4,1,1,1.9,1.8,2.6
		c0.7,0.7,1.6,1.3,2.6,1.7c1,0.4,2.1,0.6,3.3,0.6c1.3,0,2.5-0.2,3.5-0.7c1-0.5,1.9-1.1,2.5-1.9l-2.6-2.5
		C174.6,35.5,174.2,35.8,173.6,36.1 M188.8,29.9h-6.1V24H179v15.6h3.8v-6.5h6.1v6.5h3.8V24h-3.8V29.9z M199.1,33.2h6.5v-3h-6.5v-2.9
		h6.8V24h-10.5v15.6h10.9v-3.2h-7.2V33.2z M216.5,31.2l6.7-7.2h-4.7l-5.6,6.3h-0.1V24h-3.7v15.6h3.7v-7.2h0l5.8,7.2h4.9L216.5,31.2z
		"/>
	<path fill-rule="evenodd" clip-rule="evenodd" fill="#3498DB" d="M0.6,28.8c0-1.8,0.9-8.1,7.9-15.5C15.5,5.9,25.6,0,28.8,0
		c1.2,0,2,5.6,8.5,7.8c2.2,0.7,8.5,2,11.3,2.2c2.8,0.3,6.3-2,5.6,1.1c-0.5,2.3-3.5,3-7.9,2.8c-1.4-0.1-12.8-1.6-16.9-5.5
		c-1.5-1.5-4.5-5.2-14.1,3.3c-2.7,2.4-7.4,7-9.6,11.6c-0.5,1.1-1.8,4.1-0.6,4.4c1.3,0.4,9.7,3.3,13.5,6.1c3.8,2.8,7.1,8.3,8.5,3.9
		c1.4-4.5,3.3-8.2,7.3-12.2C38,22,43,19.3,45.1,18.3c1.4-0.7,3.7,0,0.6,2.2c-1.6,1.1-9.5,5.5-11.8,11.1c-7.4,17.7-3.9,16.7-6.6,16.3
		c-2.7-0.4-8.2-7.2-11.4-10.2c-2.4-2.3-6-4.7-9.6-6.1C3.7,30.6,0.6,30.9,0.6,28.8"/>
</g>
</svg>
