<?xml version="1.0" encoding="utf-8"?>
<!-- Generator: Adobe Illustrator 15.0.2, SVG Export Plug-In . SVG Version: 6.00 Build 0)  -->
<!DOCTYPE svg PUBLIC "-//W3C//DTD SVG 1.1//EN" "http://www.w3.org/Graphics/SVG/1.1/DTD/svg11.dtd">
<svg version="1.1" id="Layer_1" xmlns="http://www.w3.org/2000/svg" xmlns:xlink="http://www.w3.org/1999/xlink" x="0px" y="0px"
	 width="576px" height="216px" viewBox="0 0 100% 100%" enable-background="new 0 0 576 216" xml:space="preserve">
<g>
	<path fill="#999BA3" d="M176.98,106.432l-13.1,31.226h8.205l2.292-6.129h12.087l2.424,6.129h8.381l-12.967-31.226H176.98z
		 M176.541,125.488l3.97-10.719l3.881,10.719H176.541z M217.576,130.691c-1.113,0.588-2.428,0.879-3.924,0.879
		c-1.293,0-2.482-0.232-3.57-0.699c-1.092-0.477-2.022-1.131-2.801-1.967c-0.783-0.84-1.391-1.848-1.83-3.021
		c-0.441-1.174-0.662-2.467-0.662-3.883c0-1.377,0.221-2.652,0.662-3.812c0.439-1.162,1.059-2.17,1.852-3.023
		c0.795-0.846,1.744-1.521,2.846-2.008c1.098-0.482,2.314-0.723,3.637-0.723c1.205,0,2.385,0.234,3.529,0.705
		c1.146,0.471,2.074,1.189,2.777,2.164l5.115-5.119c-1.324-1.5-3.047-2.641-5.18-3.421c-2.133-0.778-4.301-1.167-6.506-1.167
		c-2.383,0-4.602,0.383-6.661,1.151c-2.058,0.762-3.851,1.859-5.378,3.283c-1.529,1.426-2.73,3.154-3.596,5.182
		c-0.865,2.025-1.299,4.293-1.299,6.789c0,2.441,0.423,4.674,1.279,6.705c0.853,2.031,2.029,3.775,3.524,5.227
		c1.5,1.457,3.269,2.582,5.315,3.375c2.045,0.793,4.271,1.195,6.68,1.195c2.65,0,4.984-0.471,7.016-1.393
		c2.029-0.928,3.734-2.188,5.115-3.775l-5.248-4.938C219.59,129.338,218.694,130.1,217.576,130.691 M247.898,130.691
		c-1.117,0.588-2.424,0.879-3.926,0.879c-1.289,0-2.484-0.232-3.57-0.699c-1.091-0.477-2.021-1.131-2.801-1.967
		c-0.779-0.84-1.392-1.848-1.832-3.021c-0.439-1.174-0.661-2.467-0.661-3.883c0-1.377,0.222-2.652,0.661-3.812
		c0.44-1.162,1.062-2.17,1.852-3.023c0.795-0.846,1.744-1.521,2.846-2.008c1.104-0.482,2.314-0.723,3.641-0.723
		c1.204,0,2.381,0.234,3.527,0.705c1.15,0.471,2.074,1.189,2.779,2.164l5.117-5.119c-1.326-1.5-3.051-2.641-5.184-3.421
		c-2.133-0.778-4.304-1.167-6.503-1.167c-2.384,0-4.604,0.383-6.661,1.151c-2.058,0.762-3.854,1.859-5.379,3.283
		c-1.531,1.426-2.731,3.154-3.595,5.182c-0.868,2.025-1.302,4.293-1.302,6.789c0,2.441,0.422,4.674,1.277,6.705
		c0.852,2.031,2.027,3.775,3.529,5.227c1.502,1.457,3.27,2.582,5.316,3.375c2.039,0.793,4.268,1.195,6.679,1.195
		c2.646,0,4.981-0.471,7.011-1.393c2.029-0.928,3.73-2.188,5.119-3.775l-5.25-4.938C249.911,129.338,249.018,130.1,247.898,130.691
		 M286.398,110.002c-1.512-1.407-3.312-2.494-5.4-3.255c-2.089-0.769-4.352-1.151-6.791-1.151s-4.699,0.383-6.77,1.151
		c-2.074,0.762-3.865,1.849-5.379,3.255c-1.517,1.414-2.698,3.127-3.553,5.146c-0.852,2.008-1.279,4.266-1.279,6.766
		c0,2.465,0.428,4.729,1.279,6.77c0.854,2.043,2.036,3.797,3.553,5.248c1.514,1.457,3.305,2.582,5.379,3.375
		c2.07,0.793,4.33,1.195,6.77,1.195s4.702-0.402,6.791-1.195c2.088-0.793,3.889-1.918,5.4-3.375
		c1.516-1.451,2.699-3.205,3.553-5.248c0.854-2.041,1.276-4.305,1.276-6.77c0-2.5-0.423-4.758-1.276-6.766
		C289.098,113.129,287.914,111.416,286.398,110.002 M282.495,125.816c-0.438,1.191-1.056,2.215-1.847,3.064
		c-0.797,0.859-1.739,1.525-2.828,2.008c-1.086,0.49-2.292,0.73-3.613,0.73c-1.32,0-2.528-0.24-3.617-0.73
		c-1.088-0.482-2.02-1.148-2.801-2.008c-0.779-0.85-1.389-1.873-1.828-3.064c-0.441-1.191-0.664-2.494-0.664-3.902
		c0-1.354,0.213-2.619,0.639-3.791c0.428-1.176,1.039-2.184,1.834-3.021c0.792-0.84,1.732-1.502,2.82-1.99
		c1.089-0.477,2.297-0.721,3.617-0.721c1.321,0,2.534,0.244,3.638,0.721c1.104,0.488,2.042,1.15,2.823,1.99
		c0.775,0.838,1.389,1.846,1.827,3.021c0.442,1.172,0.662,2.438,0.662,3.791C283.157,123.322,282.938,124.625,282.495,125.816
		 M316.192,125.268c0,0.85-0.101,1.664-0.306,2.42c-0.211,0.771-0.545,1.451-1.02,2.053c-0.467,0.604-1.082,1.08-1.828,1.434
		c-0.749,0.355-1.65,0.529-2.714,0.529c-1.054,0-1.965-0.174-2.71-0.529c-0.755-0.354-1.354-0.83-1.811-1.434
		c-0.455-0.602-0.794-1.281-1.015-2.053c-0.22-0.756-0.329-1.57-0.329-2.42v-18.835h-7.498v19.451c0,1.885,0.309,3.598,0.928,5.141
		c0.617,1.543,1.498,2.861,2.645,3.971c1.146,1.1,2.542,1.961,4.191,2.572c1.645,0.623,3.496,0.936,5.555,0.936
		c2.029,0,3.879-0.312,5.537-0.936c1.662-0.611,3.078-1.473,4.254-2.572c1.173-1.109,2.08-2.428,2.709-3.971
		c0.637-1.543,0.953-3.256,0.953-5.141v-19.451h-7.542V125.268z M351.607,126.811h-0.133l-12.523-20.378h-8.602v31.226h7.322
		l-0.18-20.422h0.134l12.566,20.422h8.558v-31.226h-7.32L351.607,126.811z M363.182,112.871h8.822v24.787h7.545v-24.787h8.82v-6.439
		h-25.188V112.871z M410.524,130.691c-1.115,0.588-2.419,0.879-3.925,0.879c-1.295,0-2.482-0.232-3.572-0.699
		c-1.084-0.477-2.02-1.131-2.8-1.967c-0.774-0.84-1.386-1.848-1.827-3.021c-0.443-1.174-0.662-2.467-0.662-3.883
		c0-1.377,0.219-2.652,0.662-3.812c0.441-1.162,1.058-2.17,1.852-3.023c0.792-0.846,1.746-1.521,2.848-2.008
		c1.104-0.482,2.312-0.723,3.639-0.723c1.205,0,2.383,0.234,3.525,0.705c1.145,0.471,2.072,1.189,2.778,2.164l5.119-5.119
		c-1.325-1.5-3.054-2.641-5.19-3.421c-2.129-0.778-4.295-1.167-6.496-1.167c-2.383,0-4.605,0.383-6.663,1.151
		c-2.062,0.762-3.854,1.859-5.38,3.283c-1.535,1.426-2.73,3.154-3.596,5.182c-0.865,2.025-1.299,4.293-1.299,6.789
		c0,2.441,0.43,4.674,1.273,6.705c0.855,2.031,2.034,3.775,3.537,5.227c1.497,1.457,3.261,2.582,5.307,3.375
		c2.045,0.793,4.275,1.195,6.684,1.195c2.65,0,4.984-0.471,7.016-1.393c2.024-0.928,3.732-2.188,5.113-3.775l-5.25-4.938
		C412.539,129.338,411.646,130.1,410.524,130.691 M441.028,118.254h-12.177v-11.822h-7.537v31.226h7.537v-13.057h12.177v13.057
		h7.533v-31.226h-7.533V118.254z M461.668,124.736h12.965v-6.039h-12.965v-5.91h13.715v-6.355h-20.992v31.226h21.783v-6.438h-14.506
		V124.736z M496.59,120.812l13.454-14.38h-9.437l-11.154,12.705h-0.137v-12.705h-7.363v31.226h7.363v-14.381h0.09l11.6,14.381h9.834
		L496.59,120.812z"/>
	<path fill-rule="evenodd" clip-rule="evenodd" fill="#385584" d="M63.595,116.025c0-3.609,1.81-16.268,15.819-31.122
		c14.008-14.852,34.318-26.683,40.686-26.683c2.329,0,4.033,11.272,16.949,15.564c4.5,1.496,16.961,3.912,22.604,4.448
		c5.638,0.537,12.553-4.046,11.297,2.223c-0.93,4.67-7.089,6.092-15.818,5.558c-2.786-0.174-25.717-3.242-33.903-11.116
		c-3.071-2.954-8.968-10.332-28.252,6.668c-5.409,4.771-14.845,14.04-19.212,23.344c-1.059,2.26-3.656,8.151-1.131,8.897
		c2.527,0.746,19.482,6.678,27.125,12.227c7.641,5.545,14.225,16.73,16.951,7.779c2.727-8.947,6.521-16.512,14.689-24.455
		c7.196-6.997,17.148-12.485,21.473-14.448c2.895-1.317,7.498-0.03,1.129,4.447c-3.123,2.196-19.004,10.954-23.732,22.229
		c-14.926,35.586-7.768,33.541-13.27,32.734c-5.467-0.801-16.348-14.344-22.893-20.508c-4.906-4.617-12.07-9.457-19.211-12.227
		C69.859,119.637,63.595,120.246,63.595,116.025"/>
</g>
</svg>
