<?xml version="1.0" encoding="utf-8"?>
<!-- Generator: Adobe Illustrator 15.0.2, SVG Export Plug-In . SVG Version: 6.00 Build 0)  -->
<!DOCTYPE svg PUBLIC "-//W3C//DTD SVG 1.1//EN" "http://www.w3.org/Graphics/SVG/1.1/DTD/svg11.dtd">
<svg version="1.1" id="Layer_1" xmlns="http://www.w3.org/2000/svg" xmlns:xlink="http://www.w3.org/1999/xlink" x="0px" y="0px"
	 width="230px" height="44.423px" viewBox="0 0 230 44.423" enable-background="new 0 0 230 44.423" xml:space="preserve">
<g>
	<g>
		<path fill-rule="evenodd" clip-rule="evenodd" fill="#385584" d="M0,25.786c0-1.609,0.809-7.257,7.058-13.885
			C13.307,5.277,22.366,0,25.209,0c1.039,0,1.8,5.027,7.562,6.943c2.008,0.667,7.568,1.743,10.085,1.984
			c2.513,0.237,5.599-1.806,5.039,0.992c-0.416,2.083-3.163,2.718-7.059,2.479c-1.242-0.078-11.472-1.448-15.125-4.96
			c-1.369-1.317-4-4.608-12.602,2.977c-2.413,2.128-6.621,6.263-8.57,10.413c-0.474,1.007-1.633,3.636-0.508,3.97
			c1.131,0.332,8.694,2.978,12.101,5.454c3.41,2.476,6.347,7.463,7.563,3.47c1.218-3.99,2.909-7.365,6.554-10.91
			c3.211-3.121,7.65-5.568,9.576-6.446c1.294-0.585,3.351-0.013,0.507,1.984c-1.395,0.98-8.476,4.888-10.586,9.918
			c-6.66,15.875-3.467,14.963-5.921,14.604c-2.44-0.356-7.293-6.399-10.213-9.149c-2.187-2.06-5.385-4.219-8.57-5.454
			C2.796,27.399,0,27.67,0,25.786"/>
		<g>
			<path fill="#999BA3" d="M60.684,10.578L54.04,26.416h4.161l1.164-3.108h6.128l1.232,3.108h4.248l-6.575-15.837H60.684z
				 M60.46,20.243l2.014-5.436l1.969,5.436H60.46z M81.271,22.882c-0.566,0.298-1.229,0.447-1.989,0.447
				c-0.655,0-1.258-0.119-1.812-0.356c-0.554-0.243-1.025-0.575-1.42-0.997c-0.397-0.427-0.702-0.937-0.927-1.534
				c-0.224-0.594-0.336-1.25-0.336-1.967c0-0.701,0.113-1.347,0.336-1.936c0.226-0.588,0.536-1.1,0.937-1.53
				c0.405-0.432,0.885-0.776,1.444-1.02c0.56-0.246,1.176-0.368,1.846-0.368c0.61,0,1.212,0.121,1.788,0.358
				c0.584,0.239,1.053,0.603,1.409,1.097l2.595-2.596c-0.672-0.76-1.544-1.338-2.626-1.734c-1.084-0.393-2.182-0.594-3.302-0.594
				c-1.209,0-2.333,0.196-3.376,0.584c-1.043,0.387-1.951,0.943-2.727,1.666c-0.775,0.724-1.384,1.6-1.826,2.628
				c-0.439,1.026-0.658,2.176-0.658,3.444c0,1.237,0.216,2.371,0.647,3.399c0.437,1.03,1.033,1.914,1.788,2.652
				c0.763,0.737,1.66,1.308,2.695,1.711c1.037,0.402,2.167,0.604,3.388,0.604c1.344,0,2.528-0.237,3.559-0.706
				c1.032-0.469,1.894-1.108,2.593-1.914l-2.657-2.503C82.293,22.195,81.843,22.582,81.271,22.882 M96.649,22.882
				c-0.566,0.298-1.229,0.447-1.989,0.447c-0.654,0-1.26-0.119-1.811-0.356c-0.552-0.243-1.027-0.575-1.421-0.997
				c-0.396-0.427-0.708-0.937-0.929-1.534c-0.221-0.594-0.332-1.25-0.332-1.967c0-0.701,0.111-1.347,0.332-1.936
				c0.221-0.588,0.538-1.1,0.939-1.53c0.402-0.432,0.885-0.776,1.443-1.02c0.561-0.246,1.174-0.368,1.845-0.368
				c0.611,0,1.207,0.121,1.788,0.358c0.584,0.239,1.056,0.603,1.413,1.097l2.591-2.596c-0.67-0.76-1.547-1.338-2.626-1.734
				c-1.082-0.393-2.179-0.594-3.298-0.594c-1.209,0-2.334,0.196-3.378,0.584c-1.045,0.387-1.953,0.943-2.73,1.666
				c-0.773,0.724-1.38,1.6-1.821,2.628c-0.441,1.026-0.657,2.176-0.657,3.444c0,1.237,0.212,2.371,0.646,3.399
				c0.432,1.03,1.03,1.914,1.788,2.652c0.764,0.737,1.659,1.308,2.7,1.711c1.032,0.402,2.163,0.604,3.385,0.604
				c1.342,0,2.529-0.237,3.553-0.706c1.035-0.469,1.896-1.108,2.599-1.914l-2.662-2.503C97.67,22.195,97.218,22.582,96.649,22.882
				 M116.172,12.389c-0.765-0.714-1.674-1.264-2.736-1.651c-1.056-0.389-2.207-0.584-3.445-0.584c-1.236,0-2.383,0.196-3.432,0.584
				c-1.05,0.387-1.961,0.937-2.73,1.651c-0.766,0.72-1.367,1.587-1.799,2.608c-0.432,1.021-0.648,2.167-0.648,3.433
				c0,1.249,0.216,2.398,0.648,3.434c0.433,1.036,1.033,1.924,1.799,2.662c0.769,0.737,1.68,1.308,2.73,1.711
				c1.049,0.402,2.196,0.604,3.432,0.604c1.238,0,2.39-0.202,3.445-0.604c1.062-0.403,1.971-0.974,2.736-1.711
				c0.771-0.738,1.372-1.626,1.804-2.662c0.433-1.036,0.649-2.186,0.649-3.434c0-1.266-0.216-2.412-0.649-3.433
				C117.544,13.976,116.943,13.108,116.172,12.389 M114.198,20.411c-0.224,0.604-0.538,1.122-0.937,1.553
				c-0.407,0.434-0.88,0.773-1.435,1.019c-0.551,0.247-1.161,0.369-1.835,0.369c-0.665,0-1.283-0.122-1.833-0.369
				c-0.553-0.246-1.024-0.585-1.42-1.019c-0.398-0.432-0.706-0.949-0.93-1.553c-0.223-0.605-0.335-1.267-0.335-1.981
				c0-0.684,0.11-1.327,0.325-1.922c0.216-0.598,0.524-1.108,0.93-1.532c0.399-0.426,0.877-0.761,1.43-1.008
				c0.549-0.243,1.167-0.367,1.833-0.367c0.674,0,1.288,0.124,1.846,0.367c0.559,0.248,1.034,0.582,1.432,1.008
				c0.396,0.424,0.705,0.935,0.928,1.532c0.223,0.596,0.334,1.238,0.334,1.922C114.532,19.144,114.42,19.805,114.198,20.411
				 M131.287,20.131c0,0.431-0.052,0.844-0.156,1.229c-0.105,0.39-0.277,0.736-0.517,1.039c-0.24,0.306-0.548,0.548-0.927,0.729
				c-0.375,0.18-0.835,0.267-1.374,0.267c-0.535,0-0.997-0.087-1.379-0.267c-0.38-0.181-0.682-0.423-0.917-0.729
				c-0.227-0.303-0.402-0.649-0.514-1.039c-0.11-0.385-0.166-0.797-0.166-1.229v-9.553h-3.799v9.864
				c0,0.957,0.156,1.825,0.471,2.607c0.312,0.783,0.758,1.455,1.337,2.014c0.584,0.559,1.292,0.994,2.13,1.305
				c0.832,0.317,1.769,0.474,2.816,0.474c1.026,0,1.962-0.156,2.805-0.474c0.843-0.311,1.563-0.746,2.156-1.305
				c0.599-0.559,1.056-1.23,1.378-2.014c0.316-0.782,0.48-1.65,0.48-2.607v-9.864h-3.824V20.131z M149.248,20.913h-0.067
				l-6.349-10.334h-4.365v15.837h3.71l-0.091-10.358h0.069l6.373,10.358h4.343V10.578h-3.712L149.248,20.913z M155.117,13.844h4.473
				v12.571h3.828V13.844h4.471v-3.266h-12.772V13.844z M179.131,22.882c-0.567,0.298-1.233,0.447-1.996,0.447
				c-0.656,0-1.256-0.119-1.809-0.356c-0.548-0.243-1.025-0.575-1.42-0.997c-0.396-0.427-0.704-0.937-0.932-1.534
				c-0.219-0.594-0.331-1.25-0.331-1.967c0-0.701,0.112-1.347,0.331-1.936c0.228-0.588,0.542-1.1,0.945-1.53
				c0.402-0.432,0.88-0.776,1.442-1.02c0.559-0.246,1.175-0.368,1.847-0.368c0.611,0,1.207,0.121,1.784,0.358
				c0.583,0.239,1.054,0.603,1.41,1.097l2.598-2.596c-0.671-0.76-1.549-1.338-2.631-1.734c-1.079-0.393-2.182-0.594-3.298-0.594
				c-1.207,0-2.33,0.196-3.375,0.584c-1.047,0.387-1.958,0.943-2.73,1.666c-0.777,0.724-1.382,1.6-1.822,2.628
				c-0.442,1.026-0.659,2.176-0.659,3.444c0,1.237,0.217,2.371,0.645,3.399c0.436,1.03,1.029,1.914,1.792,2.652
				c0.76,0.737,1.653,1.308,2.692,1.711c1.035,0.402,2.169,0.604,3.388,0.604c1.345,0,2.533-0.237,3.557-0.706
				c1.029-0.469,1.897-1.108,2.597-1.914l-2.662-2.503C180.146,22.195,179.696,22.582,179.131,22.882 M194.598,16.572h-6.178v-5.994
				h-3.822v15.837h3.822v-6.623h6.178v6.623h3.822V10.578h-3.822V16.572z M205.062,19.861h6.577v-3.062h-6.577v-2.998h6.958v-3.223
				h-10.645v15.837h11.05V23.15h-7.363V19.861z M222.775,17.873l6.822-7.294h-4.784l-5.659,6.443h-0.071v-6.443h-3.733v15.837h3.733
				v-7.293h0.046l5.882,7.293H230L222.775,17.873z"/>
			<g>
				<path fill="#385584" d="M59.707,40.021c0,0.647-0.233,1.157-0.699,1.53c-0.466,0.373-1.114,0.559-1.943,0.559
					c-0.765,0-1.441-0.144-2.029-0.432v-1.411c0.483,0.216,0.893,0.368,1.228,0.455c0.335,0.089,0.641,0.133,0.92,0.133
					c0.333,0,0.589-0.062,0.767-0.19c0.178-0.128,0.267-0.317,0.267-0.569c0-0.141-0.039-0.266-0.118-0.375
					c-0.078-0.109-0.194-0.215-0.346-0.316c-0.152-0.101-0.461-0.263-0.928-0.484c-0.438-0.206-0.767-0.403-0.985-0.594
					c-0.22-0.189-0.394-0.41-0.525-0.662c-0.131-0.251-0.196-0.545-0.196-0.881c0-0.635,0.215-1.134,0.644-1.496
					c0.43-0.362,1.024-0.544,1.782-0.544c0.373,0,0.728,0.044,1.065,0.133c0.338,0.087,0.692,0.213,1.062,0.372l-0.49,1.182
					c-0.382-0.157-0.699-0.267-0.949-0.329c-0.25-0.062-0.496-0.093-0.737-0.093c-0.289,0-0.509,0.067-0.662,0.201
					c-0.154,0.133-0.23,0.309-0.23,0.523c0,0.135,0.031,0.252,0.093,0.352c0.062,0.1,0.161,0.195,0.296,0.289
					c0.136,0.093,0.457,0.261,0.963,0.502c0.669,0.32,1.128,0.642,1.377,0.964C59.582,39.16,59.707,39.555,59.707,40.021z"/>
				<path fill="#385584" d="M60.824,35.115c0-0.486,0.271-0.73,0.814-0.73c0.542,0,0.813,0.244,0.813,0.73
					c0,0.232-0.068,0.414-0.204,0.542c-0.135,0.13-0.339,0.194-0.61,0.194C61.095,35.851,60.824,35.606,60.824,35.115z
					 M62.383,42.013h-1.495v-5.481h1.495V42.013z"/>
				<path fill="#385584" d="M68.858,42.013h-1.495v-3.202c0-0.396-0.066-0.692-0.199-0.89c-0.132-0.198-0.34-0.296-0.625-0.296
					c-0.382,0-0.661,0.141-0.833,0.421c-0.173,0.28-0.26,0.744-0.26,1.388v2.579h-1.495v-5.481h1.142l0.201,0.701h0.083
					c0.147-0.252,0.359-0.449,0.637-0.592c0.278-0.142,0.596-0.212,0.956-0.212c0.82,0,1.375,0.269,1.667,0.804h0.132
					c0.147-0.255,0.364-0.452,0.649-0.594c0.287-0.141,0.609-0.21,0.969-0.21c0.621,0,1.09,0.159,1.409,0.479
					c0.318,0.317,0.479,0.828,0.479,1.531v3.574h-1.5v-3.202c0-0.396-0.067-0.692-0.199-0.89c-0.132-0.198-0.34-0.296-0.625-0.296
					c-0.366,0-0.64,0.13-0.821,0.392c-0.182,0.262-0.271,0.677-0.271,1.245V42.013z"/>
				<path fill="#385584" d="M76.819,42.11c-0.644,0-1.149-0.232-1.515-0.7h-0.079c0.052,0.457,0.079,0.722,0.079,0.793v2.221h-1.495
					v-7.892h1.215l0.211,0.711h0.069c0.349-0.543,0.868-0.813,1.554-0.813c0.647,0,1.153,0.25,1.52,0.75
					c0.366,0.499,0.549,1.194,0.549,2.083c0,0.585-0.086,1.094-0.257,1.524c-0.172,0.431-0.416,0.76-0.733,0.985
					C77.619,41.998,77.246,42.11,76.819,42.11z M76.377,37.625c-0.369,0-0.639,0.113-0.808,0.341
					c-0.171,0.227-0.26,0.602-0.265,1.124v0.161c0,0.589,0.087,1.011,0.262,1.266c0.175,0.255,0.452,0.382,0.832,0.382
					c0.669,0,1.005-0.552,1.005-1.656c0-0.539-0.083-0.944-0.248-1.213C76.989,37.76,76.73,37.625,76.377,37.625z"/>
				<path fill="#385584" d="M81.657,42.013h-1.495v-7.629h1.495V42.013z"/>
				<path fill="#385584" d="M85.706,42.11c-0.883,0-1.572-0.243-2.068-0.731c-0.498-0.485-0.746-1.175-0.746-2.067
					c0-0.918,0.229-1.628,0.688-2.129c0.459-0.503,1.094-0.753,1.905-0.753c0.774,0,1.377,0.221,1.809,0.66
					c0.432,0.442,0.647,1.052,0.647,1.83v0.725h-3.534c0.016,0.425,0.143,0.757,0.378,0.996c0.235,0.238,0.564,0.357,0.99,0.357
					c0.329,0,0.642-0.035,0.936-0.103c0.293-0.069,0.601-0.179,0.921-0.329v1.157c-0.262,0.131-0.541,0.228-0.838,0.291
					C86.496,42.079,86.133,42.11,85.706,42.11z M85.495,37.493c-0.317,0-0.566,0.101-0.745,0.302
					c-0.181,0.2-0.283,0.485-0.309,0.855h2.098c-0.007-0.37-0.103-0.655-0.289-0.855C86.064,37.593,85.812,37.493,85.495,37.493z"/>
				<path fill="#385584" d="M88.946,41.311c0-0.274,0.074-0.481,0.221-0.623c0.147-0.14,0.361-0.21,0.642-0.21
					c0.271,0,0.481,0.072,0.63,0.216s0.223,0.349,0.223,0.617c0,0.258-0.075,0.462-0.226,0.61c-0.151,0.148-0.36,0.224-0.627,0.224
					c-0.274,0-0.487-0.073-0.637-0.218C89.02,41.78,88.946,41.576,88.946,41.311z"/>
				<path fill="#385584" d="M98.975,40.021c0,0.647-0.233,1.157-0.699,1.53c-0.466,0.373-1.114,0.559-1.943,0.559
					c-0.765,0-1.441-0.144-2.029-0.432v-1.411c0.483,0.216,0.893,0.368,1.227,0.455c0.335,0.089,0.641,0.133,0.92,0.133
					c0.333,0,0.589-0.062,0.767-0.19c0.179-0.128,0.268-0.317,0.268-0.569c0-0.141-0.039-0.266-0.117-0.375
					c-0.079-0.109-0.195-0.215-0.346-0.316c-0.152-0.101-0.462-0.263-0.929-0.484c-0.438-0.206-0.767-0.403-0.985-0.594
					c-0.22-0.189-0.395-0.41-0.525-0.662c-0.131-0.251-0.196-0.545-0.196-0.881c0-0.635,0.215-1.134,0.645-1.496
					c0.43-0.362,1.023-0.544,1.782-0.544c0.373,0,0.728,0.044,1.066,0.133c0.338,0.087,0.692,0.213,1.062,0.372l-0.49,1.182
					c-0.382-0.157-0.699-0.267-0.949-0.329c-0.25-0.062-0.496-0.093-0.737-0.093c-0.289,0-0.509,0.067-0.662,0.201
					c-0.154,0.133-0.23,0.309-0.23,0.523c0,0.135,0.031,0.252,0.093,0.352c0.062,0.1,0.161,0.195,0.296,0.289
					c0.136,0.093,0.457,0.261,0.964,0.502c0.67,0.32,1.128,0.642,1.377,0.964C98.851,39.16,98.975,39.555,98.975,40.021z"/>
				<path fill="#385584" d="M105.063,42.013h-1.495v-3.202c0-0.396-0.067-0.692-0.199-0.89c-0.132-0.198-0.34-0.296-0.625-0.296
					c-0.383,0-0.661,0.141-0.833,0.421c-0.174,0.28-0.26,0.744-0.26,1.388v2.579h-1.495v-5.481h1.142l0.202,0.701h0.083
					c0.147-0.252,0.359-0.449,0.637-0.592c0.277-0.142,0.596-0.212,0.956-0.212c0.82,0,1.375,0.269,1.667,0.804h0.132
					c0.147-0.255,0.363-0.452,0.649-0.594c0.287-0.141,0.609-0.21,0.968-0.21c0.621,0,1.09,0.159,1.409,0.479
					c0.318,0.317,0.479,0.828,0.479,1.531v3.574h-1.5v-3.202c0-0.396-0.066-0.692-0.199-0.89c-0.132-0.198-0.34-0.296-0.625-0.296
					c-0.366,0-0.639,0.13-0.821,0.392c-0.181,0.262-0.271,0.677-0.271,1.245V42.013z"/>
				<path fill="#385584" d="M113.494,42.013l-0.289-0.745h-0.04c-0.252,0.316-0.511,0.536-0.777,0.659
					c-0.266,0.121-0.614,0.183-1.042,0.183c-0.526,0-0.94-0.15-1.243-0.451c-0.302-0.3-0.453-0.729-0.453-1.284
					c0-0.581,0.203-1.011,0.61-1.286c0.407-0.275,1.021-0.43,1.841-0.458l0.951-0.03v-0.239c0-0.556-0.285-0.834-0.853-0.834
					c-0.439,0-0.954,0.133-1.545,0.397l-0.495-1.01c0.631-0.33,1.33-0.495,2.098-0.495c0.736,0,1.299,0.16,1.691,0.48
					c0.392,0.319,0.588,0.808,0.588,1.461v3.652H113.494z M113.053,39.473l-0.579,0.02c-0.435,0.013-0.758,0.091-0.971,0.235
					c-0.212,0.144-0.318,0.362-0.318,0.656c0,0.422,0.241,0.633,0.726,0.633c0.346,0,0.623-0.1,0.831-0.299s0.312-0.465,0.312-0.795
					V39.473z"/>
				<path fill="#385584" d="M119.137,36.429c0.202,0,0.371,0.016,0.505,0.044l-0.113,1.401c-0.121-0.032-0.268-0.048-0.441-0.048
					c-0.477,0-0.849,0.121-1.116,0.367c-0.265,0.245-0.398,0.588-0.398,1.029v2.79h-1.495v-5.481h1.132l0.221,0.922h0.073
					c0.17-0.308,0.399-0.556,0.688-0.743C118.481,36.523,118.796,36.429,119.137,36.429z"/>
				<path fill="#385584" d="M122.945,40.918c0.261,0,0.575-0.057,0.941-0.171v1.113c-0.373,0.165-0.831,0.249-1.373,0.249
					c-0.598,0-1.033-0.151-1.307-0.453c-0.272-0.302-0.409-0.756-0.409-1.36v-2.643h-0.716v-0.632l0.824-0.5l0.432-1.156h0.956
					v1.166h1.534v1.122h-1.534v2.643c0,0.212,0.06,0.369,0.178,0.47C122.591,40.869,122.75,40.918,122.945,40.918z"/>
				<path fill="#385584" d="M124.783,41.311c0-0.274,0.075-0.481,0.221-0.623c0.147-0.14,0.361-0.21,0.643-0.21
					c0.271,0,0.481,0.072,0.629,0.216c0.149,0.144,0.223,0.349,0.223,0.617c0,0.258-0.075,0.462-0.225,0.61
					c-0.151,0.148-0.36,0.224-0.627,0.224c-0.275,0-0.487-0.073-0.637-0.218C124.858,41.78,124.783,41.576,124.783,41.311z"/>
				<path fill="#385584" d="M134.812,40.021c0,0.647-0.233,1.157-0.699,1.53c-0.465,0.373-1.113,0.559-1.943,0.559
					c-0.764,0-1.441-0.144-2.028-0.432v-1.411c0.482,0.216,0.892,0.368,1.227,0.455c0.334,0.089,0.641,0.133,0.919,0.133
					c0.333,0,0.589-0.062,0.767-0.19s0.268-0.317,0.268-0.569c0-0.141-0.04-0.266-0.118-0.375c-0.079-0.109-0.194-0.215-0.346-0.316
					c-0.152-0.101-0.461-0.263-0.929-0.484c-0.438-0.206-0.767-0.403-0.985-0.594c-0.22-0.189-0.394-0.41-0.524-0.662
					c-0.131-0.251-0.196-0.545-0.196-0.881c0-0.635,0.215-1.134,0.645-1.496c0.43-0.362,1.023-0.544,1.782-0.544
					c0.372,0,0.728,0.044,1.065,0.133c0.338,0.087,0.692,0.213,1.062,0.372l-0.49,1.182c-0.382-0.157-0.699-0.267-0.949-0.329
					c-0.25-0.062-0.496-0.093-0.737-0.093c-0.289,0-0.509,0.067-0.661,0.201c-0.155,0.133-0.231,0.309-0.231,0.523
					c0,0.135,0.03,0.252,0.093,0.352c0.062,0.1,0.161,0.195,0.296,0.289c0.136,0.093,0.457,0.261,0.964,0.502
					c0.669,0.32,1.128,0.642,1.378,0.964C134.688,39.16,134.812,39.555,134.812,40.021z"/>
				<path fill="#385584" d="M138.474,42.11c-0.883,0-1.573-0.243-2.069-0.731c-0.497-0.485-0.745-1.175-0.745-2.067
					c0-0.918,0.23-1.628,0.688-2.129c0.459-0.503,1.094-0.753,1.904-0.753c0.775,0,1.378,0.221,1.81,0.66
					c0.431,0.442,0.647,1.052,0.647,1.83v0.725h-3.535c0.016,0.425,0.142,0.757,0.378,0.996c0.235,0.238,0.564,0.357,0.99,0.357
					c0.33,0,0.643-0.035,0.937-0.103c0.293-0.069,0.601-0.179,0.921-0.329v1.157c-0.262,0.131-0.541,0.228-0.838,0.291
					C139.264,42.079,138.901,42.11,138.474,42.11z M138.263,37.493c-0.317,0-0.566,0.101-0.745,0.302
					c-0.18,0.2-0.283,0.485-0.309,0.855h2.098c-0.007-0.37-0.103-0.655-0.289-0.855C138.832,37.593,138.58,37.493,138.263,37.493z"
					/>
				<path fill="#385584" d="M144.151,42.11c-1.707,0-2.559-0.937-2.559-2.809c0-0.931,0.231-1.643,0.696-2.135
					c0.463-0.491,1.128-0.737,1.995-0.737c0.633,0,1.202,0.124,1.706,0.373l-0.441,1.155c-0.235-0.094-0.455-0.172-0.657-0.232
					s-0.406-0.091-0.607-0.091c-0.778,0-1.167,0.553-1.167,1.657c0,1.072,0.388,1.607,1.167,1.607c0.287,0,0.554-0.037,0.799-0.114
					s0.49-0.198,0.735-0.36v1.279c-0.242,0.152-0.486,0.259-0.733,0.318C144.837,42.081,144.526,42.11,144.151,42.11z"/>
				<path fill="#385584" d="M150.969,42.013l-0.201-0.702h-0.078c-0.162,0.255-0.388,0.452-0.681,0.591
					c-0.294,0.139-0.63,0.208-1.005,0.208c-0.645,0-1.13-0.173-1.457-0.517c-0.327-0.346-0.49-0.841-0.49-1.488v-3.573h1.495v3.201
					c0,0.396,0.069,0.692,0.211,0.889c0.14,0.198,0.363,0.297,0.672,0.297c0.417,0,0.72-0.14,0.907-0.419
					c0.186-0.279,0.279-0.742,0.279-1.39v-2.578h1.495v5.481H150.969z"/>
				<path fill="#385584" d="M156.743,36.429c0.203,0,0.371,0.016,0.505,0.044l-0.112,1.401c-0.122-0.032-0.269-0.048-0.441-0.048
					c-0.478,0-0.849,0.121-1.116,0.367c-0.266,0.245-0.399,0.588-0.399,1.029v2.79h-1.496v-5.481h1.132l0.221,0.922h0.073
					c0.169-0.308,0.399-0.556,0.688-0.743C156.089,36.523,156.402,36.429,156.743,36.429z"/>
				<path fill="#385584" d="M160.724,42.11c-0.883,0-1.573-0.243-2.069-0.731c-0.497-0.485-0.745-1.175-0.745-2.067
					c0-0.918,0.229-1.628,0.688-2.129c0.46-0.503,1.094-0.753,1.904-0.753c0.775,0,1.378,0.221,1.81,0.66
					c0.431,0.442,0.647,1.052,0.647,1.83v0.725h-3.534c0.016,0.425,0.142,0.757,0.377,0.996c0.235,0.238,0.564,0.357,0.99,0.357
					c0.33,0,0.642-0.035,0.936-0.103c0.294-0.069,0.601-0.179,0.922-0.329v1.157c-0.262,0.131-0.541,0.228-0.838,0.291
					C161.514,42.079,161.15,42.11,160.724,42.11z M160.512,37.493c-0.317,0-0.565,0.101-0.745,0.302
					c-0.18,0.2-0.284,0.485-0.309,0.855h2.098c-0.007-0.37-0.103-0.655-0.29-0.855C161.081,37.593,160.829,37.493,160.512,37.493z"
					/>
				<path fill="#385584" d="M163.963,41.311c0-0.274,0.074-0.481,0.22-0.623c0.147-0.14,0.361-0.21,0.643-0.21
					c0.271,0,0.481,0.072,0.629,0.216c0.149,0.144,0.224,0.349,0.224,0.617c0,0.258-0.076,0.462-0.226,0.61
					c-0.151,0.148-0.359,0.224-0.627,0.224c-0.274,0-0.488-0.073-0.638-0.218C164.038,41.78,163.963,41.576,163.963,41.311z"/>
			</g>
		</g>
	</g>
</g>
</svg>
