<?xml version="1.0" encoding="utf-8"?>
<!-- Generator: Adobe Illustrator 15.0.2, SVG Export Plug-In . SVG Version: 6.00 Build 0)  -->
<!DOCTYPE svg PUBLIC "-//W3C//DTD SVG 1.1//EN" "http://www.w3.org/Graphics/SVG/1.1/DTD/svg11.dtd">
<svg version="1.1" id="Layer_1" xmlns="http://www.w3.org/2000/svg" xmlns:xlink="http://www.w3.org/1999/xlink" x="0px" y="0px"
	 width="259.801px" height="50.181px" viewBox="128.993 23.054 259.801 50.181"
	 enable-background="new 128.993 23.054 259.801 50.181" xml:space="preserve">
<g>
	<path fill="#385584" d="M128.993,52.181c0-1.818,0.914-8.197,7.972-15.685c7.058-7.481,17.292-13.442,20.503-13.442
		c1.173,0,2.033,5.679,8.541,7.844c2.268,0.753,8.549,1.969,11.392,2.24c2.838,0.268,6.323-2.04,5.692,1.12
		c-0.47,2.354-3.573,3.07-7.974,2.801c-1.402-0.088-12.958-1.636-17.085-5.603c-1.546-1.488-4.519-5.206-14.235,3.362
		c-2.726,2.403-7.479,7.073-9.681,11.761c-0.535,1.138-1.844,4.108-0.573,4.485c1.278,0.375,9.821,3.362,13.669,6.159
		c3.852,2.798,7.169,8.431,8.542,3.921c1.377-4.508,3.286-8.32,7.403-12.324c3.628-3.525,8.642-6.29,10.817-7.281
		c1.462-0.662,3.785-0.015,0.573,2.24c-1.575,1.107-9.574,5.521-11.958,11.203c-7.522,17.933-3.916,16.9-6.687,16.495
		c-2.758-0.403-8.239-7.229-11.537-10.334c-2.47-2.326-6.083-4.767-9.68-6.161C132.151,54.004,128.993,54.31,128.993,52.181"/>
	<path fill="#999BA3" d="M197.539,35.004l-7.504,17.89h4.7l1.314-3.512h6.923l1.392,3.512h4.798l-7.427-17.89H197.539z
		 M197.287,45.92l2.274-6.14l2.226,6.14H197.287z M220.795,48.903c-0.64,0.335-1.389,0.504-2.247,0.504
		c-0.739,0-1.422-0.134-2.046-0.402c-0.626-0.273-1.159-0.648-1.605-1.126c-0.449-0.481-0.792-1.059-1.048-1.732
		c-0.251-0.672-0.379-1.412-0.379-2.223c0-0.791,0.128-1.521,0.379-2.187c0.256-0.665,0.606-1.242,1.06-1.729
		c0.457-0.487,0.999-0.877,1.631-1.151c0.633-0.278,1.328-0.416,2.085-0.416c0.688,0,1.369,0.136,2.02,0.404
		c0.659,0.27,1.189,0.681,1.591,1.239l2.932-2.933c-0.759-0.859-1.745-1.511-2.966-1.958c-1.225-0.444-2.466-0.671-3.729-0.671
		c-1.365,0-2.635,0.221-3.814,0.66c-1.178,0.438-2.203,1.064-3.08,1.882c-0.877,0.816-1.563,1.807-2.062,2.969
		c-0.496,1.16-0.743,2.458-0.743,3.89c0,1.397,0.244,2.679,0.731,3.841c0.492,1.162,1.167,2.16,2.02,2.993
		c0.861,0.834,1.875,1.479,3.044,1.935c1.171,0.455,2.448,0.684,3.828,0.684c1.518,0,2.856-0.268,4.02-0.799
		c1.165-0.529,2.139-1.252,2.928-2.162l-3-2.827C221.948,48.126,221.44,48.562,220.795,48.903 M238.164,48.903
		c-0.639,0.335-1.388,0.504-2.247,0.504c-0.739,0-1.423-0.134-2.046-0.402c-0.623-0.273-1.16-0.648-1.605-1.126
		c-0.448-0.481-0.799-1.059-1.049-1.732c-0.25-0.672-0.375-1.412-0.375-2.223c0-0.791,0.125-1.521,0.375-2.187
		c0.25-0.665,0.607-1.242,1.061-1.729c0.454-0.487,1-0.877,1.63-1.151c0.634-0.278,1.327-0.416,2.085-0.416
		c0.69,0,1.362,0.136,2.019,0.404c0.66,0.27,1.192,0.681,1.596,1.239l2.927-2.933c-0.758-0.859-1.748-1.511-2.967-1.958
		c-1.221-0.444-2.462-0.671-3.725-0.671c-1.365,0-2.637,0.221-3.817,0.66c-1.179,0.438-2.206,1.064-3.084,1.882
		c-0.873,0.816-1.559,1.807-2.056,2.969c-0.498,1.16-0.742,2.458-0.742,3.89c0,1.397,0.24,2.679,0.729,3.841
		c0.488,1.162,1.164,2.16,2.02,2.993c0.863,0.834,1.874,1.479,3.05,1.935c1.166,0.455,2.443,0.684,3.823,0.684
		c1.515,0,2.857-0.268,4.013-0.799c1.168-0.529,2.141-1.252,2.936-2.162l-3.007-2.827C239.318,48.126,238.808,48.562,238.164,48.903
		 M260.217,37.049c-0.864-0.807-1.89-1.428-3.09-1.864c-1.193-0.439-2.493-0.66-3.891-0.66c-1.396,0-2.692,0.221-3.877,0.66
		c-1.187,0.438-2.216,1.059-3.084,1.864c-0.864,0.813-1.543,1.792-2.032,2.947c-0.488,1.153-0.732,2.447-0.732,3.877
		c0,1.41,0.244,2.709,0.732,3.879c0.489,1.171,1.168,2.173,2.032,3.006c0.868,0.833,1.897,1.479,3.084,1.934
		c1.185,0.455,2.48,0.684,3.877,0.684c1.398,0,2.698-0.229,3.891-0.684c1.2-0.455,2.226-1.101,3.09-1.934
		c0.87-0.833,1.55-1.835,2.037-3.006c0.49-1.17,0.733-2.469,0.733-3.879c0-1.43-0.243-2.725-0.733-3.877
		C261.767,38.841,261.087,37.862,260.217,37.049 M257.986,46.11c-0.252,0.683-0.607,1.267-1.057,1.754
		c-0.461,0.49-0.994,0.873-1.621,1.151c-0.622,0.279-1.312,0.417-2.072,0.417c-0.752,0-1.449-0.138-2.071-0.417
		c-0.624-0.278-1.155-0.66-1.604-1.151c-0.45-0.487-0.797-1.072-1.051-1.754c-0.251-0.685-0.378-1.431-0.378-2.238
		c0-0.772,0.124-1.499,0.368-2.172c0.243-0.675,0.592-1.251,1.049-1.729c0.451-0.481,0.991-0.859,1.615-1.14
		c0.621-0.273,1.319-0.414,2.071-0.414c0.76,0,1.454,0.14,2.085,0.414c0.631,0.28,1.168,0.658,1.618,1.14
		c0.446,0.479,0.796,1.056,1.048,1.729c0.253,0.673,0.378,1.399,0.378,2.172C258.364,44.679,258.238,45.426,257.986,46.11
		 M277.29,45.795c0,0.487-0.059,0.952-0.178,1.388c-0.118,0.44-0.312,0.832-0.584,1.175c-0.271,0.345-0.618,0.619-1.047,0.823
		c-0.426,0.202-0.944,0.302-1.553,0.302c-0.604,0-1.125-0.1-1.558-0.302c-0.431-0.203-0.771-0.478-1.037-0.823
		c-0.257-0.343-0.454-0.733-0.58-1.175c-0.125-0.436-0.188-0.9-0.188-1.388V35.004h-4.291v11.143c0,1.081,0.178,2.062,0.533,2.944
		c0.353,0.886,0.854,1.645,1.51,2.274c0.658,0.631,1.459,1.123,2.406,1.475c0.938,0.357,1.998,0.535,3.182,0.535
		c1.158,0,2.217-0.178,3.168-0.535c0.951-0.352,1.765-0.844,2.436-1.475c0.676-0.631,1.192-1.39,1.557-2.274
		c0.357-0.883,0.543-1.864,0.543-2.944V35.004h-4.318V45.795L277.29,45.795z M297.578,46.677h-0.076l-7.171-11.673h-4.932v17.89
		h4.191l-0.104-11.699h0.078l7.197,11.699h4.905v-17.89h-4.192L297.578,46.677z M304.207,38.693h5.052v14.2h4.324v-14.2h5.052
		v-3.689h-14.428V38.693L304.207,38.693z M331.332,48.903c-0.64,0.335-1.392,0.504-2.254,0.504c-0.74,0-1.419-0.134-2.043-0.402
		c-0.62-0.273-1.158-0.648-1.604-1.126c-0.447-0.481-0.796-1.059-1.053-1.732c-0.248-0.672-0.374-1.412-0.374-2.223
		c0-0.791,0.126-1.521,0.374-2.187c0.257-0.665,0.611-1.242,1.066-1.729c0.453-0.487,0.994-0.877,1.63-1.151
		c0.632-0.278,1.327-0.416,2.086-0.416c0.69,0,1.362,0.136,2.015,0.404c0.659,0.27,1.191,0.681,1.594,1.239l2.936-2.933
		c-0.76-0.859-1.75-1.511-2.973-1.958c-1.219-0.444-2.465-0.671-3.726-0.671c-1.364,0-2.633,0.221-3.813,0.66
		c-1.182,0.438-2.211,1.064-3.084,1.882c-0.877,0.816-1.562,1.807-2.057,2.969c-0.5,1.16-0.744,2.458-0.744,3.89
		c0,1.397,0.244,2.679,0.729,3.841c0.489,1.162,1.162,2.16,2.024,2.993c0.857,0.834,1.865,1.479,3.041,1.935
		c1.168,0.455,2.448,0.684,3.825,0.684c1.521,0,2.86-0.268,4.019-0.799c1.162-0.529,2.144-1.252,2.933-2.162l-3.006-2.827
		C332.479,48.126,331.972,48.562,331.332,48.903 M348.804,41.774h-6.979v-6.771h-4.317v17.889h4.317v-7.48h6.979v7.48h4.316V35.004
		h-4.316V41.774z M360.623,45.489h7.43V42.03h-7.43v-3.385h7.858v-3.641h-12.022v17.889h12.481v-3.688h-8.317V45.489L360.623,45.489
		z M380.632,43.243l7.706-8.239h-5.403l-6.394,7.278h-0.079v-7.278h-4.218v17.89h4.218v-8.237h0.053l6.645,8.237h5.635
		L380.632,43.243z"/>
	<g>
		<path fill="#385584" d="M196.436,68.26c0,0.73-0.263,1.308-0.789,1.729c-0.527,0.421-1.259,0.631-2.195,0.631
			c-0.864,0-1.628-0.161-2.292-0.487v-1.595c0.546,0.244,1.008,0.416,1.385,0.517c0.379,0.1,0.724,0.148,1.039,0.148
			c0.376,0,0.666-0.071,0.866-0.216c0.202-0.146,0.302-0.358,0.302-0.643c0-0.158-0.044-0.302-0.133-0.425
			c-0.088-0.123-0.219-0.243-0.391-0.356c-0.172-0.114-0.52-0.297-1.048-0.548c-0.495-0.233-0.866-0.455-1.113-0.671
			c-0.249-0.215-0.445-0.464-0.593-0.747s-0.222-0.615-0.222-0.995c0-0.719,0.243-1.281,0.728-1.689
			c0.485-0.41,1.156-0.615,2.013-0.615c0.42,0,0.822,0.052,1.203,0.15c0.383,0.099,0.782,0.24,1.2,0.421l-0.555,1.334
			c-0.431-0.177-0.789-0.3-1.071-0.371c-0.282-0.068-0.561-0.104-0.833-0.104c-0.326,0-0.575,0.075-0.748,0.227
			c-0.174,0.15-0.26,0.35-0.26,0.592c0,0.152,0.034,0.283,0.104,0.396c0.07,0.113,0.182,0.222,0.334,0.326
			c0.155,0.104,0.517,0.295,1.089,0.567c0.756,0.361,1.275,0.726,1.556,1.088C196.293,67.289,196.436,67.735,196.436,68.26z"/>
		<path fill="#385584" d="M197.698,62.72c0-0.552,0.304-0.825,0.919-0.825c0.613,0,0.919,0.274,0.919,0.825
			c0,0.262-0.076,0.467-0.229,0.61c-0.154,0.146-0.384,0.219-0.689,0.219C198.003,63.551,197.698,63.274,197.698,62.72z
			 M199.459,70.51h-1.689v-6.19h1.689V70.51z"/>
		<path fill="#385584" d="M206.773,70.51h-1.689v-3.614c0-0.447-0.075-0.783-0.224-1.007c-0.15-0.225-0.385-0.334-0.706-0.334
			c-0.432,0-0.747,0.157-0.941,0.476c-0.196,0.316-0.293,0.84-0.293,1.567v2.913h-1.688V64.32h1.29l0.227,0.791h0.094
			c0.166-0.283,0.406-0.506,0.72-0.667c0.313-0.16,0.674-0.24,1.081-0.24c0.926,0,1.553,0.304,1.882,0.907h0.149
			c0.167-0.287,0.411-0.51,0.733-0.67c0.324-0.158,0.688-0.238,1.094-0.238c0.702,0,1.231,0.181,1.591,0.541
			c0.36,0.359,0.541,0.937,0.541,1.729v4.036h-1.694v-3.614c0-0.447-0.075-0.782-0.225-1.007c-0.149-0.224-0.384-0.334-0.705-0.334
			c-0.414,0-0.723,0.146-0.928,0.442c-0.205,0.295-0.306,0.764-0.306,1.406L206.773,70.51L206.773,70.51z"/>
		<path fill="#385584" d="M215.765,70.621c-0.728,0-1.298-0.263-1.711-0.791h-0.088c0.059,0.517,0.088,0.815,0.088,0.896v2.509
			h-1.688V64.32h1.373l0.238,0.802h0.077c0.395-0.612,0.98-0.919,1.756-0.919c0.731,0,1.302,0.283,1.716,0.848
			c0.413,0.564,0.62,1.351,0.62,2.354c0,0.66-0.097,1.234-0.291,1.723c-0.194,0.485-0.471,0.857-0.828,1.111
			C216.668,70.494,216.247,70.621,215.765,70.621z M215.267,65.555c-0.417,0-0.722,0.128-0.913,0.385
			c-0.193,0.257-0.293,0.679-0.3,1.271v0.183c0,0.664,0.098,1.143,0.296,1.43c0.198,0.287,0.51,0.432,0.939,0.432
			c0.756,0,1.135-0.624,1.135-1.871c0-0.608-0.094-1.065-0.281-1.37C215.958,65.708,215.665,65.555,215.267,65.555z"/>
		<path fill="#385584" d="M221.229,70.51h-1.688v-8.615h1.688V70.51z"/>
		<path fill="#385584" d="M225.804,70.621c-0.997,0-1.776-0.274-2.336-0.825c-0.562-0.55-0.843-1.327-0.843-2.336
			c0-1.036,0.259-1.839,0.778-2.404c0.519-0.567,1.236-0.852,2.152-0.852c0.874,0,1.555,0.249,2.043,0.747
			c0.487,0.499,0.73,1.188,0.73,2.066v0.817h-3.992c0.018,0.48,0.16,0.855,0.427,1.125c0.266,0.271,0.638,0.404,1.119,0.404
			c0.372,0,0.726-0.039,1.058-0.115c0.332-0.079,0.679-0.201,1.041-0.372v1.308c-0.296,0.146-0.611,0.258-0.947,0.329
			C226.695,70.586,226.286,70.621,225.804,70.621z M225.566,65.406c-0.36,0-0.639,0.113-0.842,0.34
			c-0.204,0.228-0.321,0.549-0.349,0.967h2.37c-0.008-0.418-0.115-0.739-0.326-0.967C226.208,65.519,225.923,65.406,225.566,65.406z
			"/>
		<path fill="#385584" d="M229.462,69.719c0-0.311,0.083-0.544,0.25-0.702s0.407-0.238,0.725-0.238c0.305,0,0.544,0.082,0.711,0.244
			c0.168,0.162,0.252,0.395,0.252,0.696c0,0.291-0.085,0.521-0.255,0.689c-0.171,0.168-0.407,0.252-0.709,0.252
			c-0.31,0-0.55-0.082-0.719-0.246C229.547,70.249,229.462,70.017,229.462,69.719z"/>
		<path fill="#385584" d="M240.792,68.26c0,0.73-0.263,1.308-0.789,1.729c-0.526,0.421-1.259,0.631-2.195,0.631
			c-0.864,0-1.628-0.161-2.293-0.487v-1.595c0.547,0.244,1.01,0.416,1.387,0.517c0.378,0.1,0.724,0.148,1.039,0.148
			c0.376,0,0.665-0.071,0.866-0.216c0.201-0.146,0.302-0.358,0.302-0.643c0-0.158-0.044-0.302-0.134-0.425
			c-0.088-0.123-0.219-0.243-0.39-0.356c-0.172-0.114-0.522-0.297-1.05-0.548c-0.495-0.233-0.866-0.455-1.113-0.671
			c-0.248-0.215-0.446-0.464-0.592-0.747c-0.149-0.283-0.222-0.615-0.222-0.995c0-0.719,0.242-1.281,0.728-1.689
			c0.486-0.41,1.156-0.615,2.012-0.615c0.421,0,0.822,0.052,1.204,0.15c0.382,0.099,0.782,0.24,1.199,0.421l-0.553,1.334
			c-0.432-0.177-0.789-0.3-1.072-0.371c-0.282-0.068-0.561-0.104-0.833-0.104c-0.325,0-0.574,0.075-0.747,0.227
			c-0.174,0.15-0.261,0.35-0.261,0.592c0,0.152,0.035,0.283,0.105,0.396c0.071,0.113,0.183,0.222,0.335,0.326
			c0.153,0.104,0.516,0.295,1.089,0.567c0.756,0.361,1.274,0.726,1.556,1.088C240.652,67.289,240.792,67.735,240.792,68.26z"/>
		<path fill="#385584" d="M247.669,70.51h-1.688v-3.614c0-0.447-0.075-0.783-0.225-1.007c-0.149-0.225-0.384-0.334-0.706-0.334
			c-0.432,0-0.746,0.157-0.941,0.476c-0.196,0.316-0.294,0.84-0.294,1.567v2.913h-1.689V64.32h1.291l0.227,0.791h0.094
			c0.166-0.283,0.406-0.506,0.72-0.667c0.313-0.16,0.673-0.24,1.079-0.24c0.926,0,1.554,0.304,1.883,0.907h0.15
			c0.166-0.287,0.41-0.51,0.733-0.67c0.324-0.158,0.688-0.238,1.094-0.238c0.701,0,1.231,0.181,1.592,0.541
			c0.36,0.359,0.541,0.937,0.541,1.729v4.036h-1.695v-3.614c0-0.447-0.075-0.782-0.225-1.007c-0.149-0.224-0.385-0.334-0.706-0.334
			c-0.414,0-0.722,0.146-0.928,0.442c-0.204,0.295-0.306,0.764-0.306,1.406L247.669,70.51L247.669,70.51z"/>
		<path fill="#385584" d="M257.192,70.51l-0.327-0.842h-0.044c-0.285,0.357-0.577,0.605-0.878,0.744
			c-0.3,0.138-0.693,0.207-1.176,0.207c-0.595,0-1.062-0.17-1.405-0.51c-0.341-0.34-0.511-0.824-0.511-1.451
			c0-0.656,0.229-1.143,0.688-1.453c0.46-0.311,1.153-0.483,2.08-0.516l1.074-0.035v-0.271c0-0.628-0.321-0.941-0.963-0.941
			c-0.496,0-1.077,0.149-1.745,0.449l-0.56-1.142c0.713-0.372,1.502-0.559,2.37-0.559c0.832,0,1.468,0.18,1.911,0.543
			c0.443,0.361,0.665,0.912,0.665,1.648v4.126h-1.179V70.51z M256.693,67.642l-0.653,0.021c-0.492,0.016-0.857,0.104-1.096,0.268
			c-0.24,0.162-0.36,0.408-0.36,0.74c0,0.478,0.273,0.715,0.821,0.715c0.39,0,0.703-0.112,0.938-0.338
			c0.235-0.225,0.352-0.523,0.352-0.896v-0.509H256.693z"/>
		<path fill="#385584" d="M263.565,64.204c0.228,0,0.418,0.019,0.569,0.05l-0.127,1.584c-0.137-0.037-0.304-0.055-0.499-0.055
			c-0.539,0-0.959,0.137-1.261,0.414c-0.3,0.277-0.45,0.665-0.45,1.164v3.15h-1.688V64.32h1.28l0.248,1.041h0.084
			c0.19-0.348,0.449-0.627,0.776-0.84S263.181,64.204,263.565,64.204z"/>
		<path fill="#385584" d="M267.867,69.275c0.295,0,0.649-0.064,1.063-0.194v1.259c-0.422,0.188-0.938,0.281-1.553,0.281
			c-0.675,0-1.167-0.172-1.477-0.512c-0.308-0.342-0.461-0.854-0.461-1.537v-2.984h-0.809v-0.714l0.93-0.564l0.488-1.307h1.079
			v1.317h1.733v1.268h-1.733v2.984c0,0.24,0.067,0.418,0.201,0.531C267.468,69.219,267.646,69.275,267.867,69.275z"/>
		<path fill="#385584" d="M269.942,69.719c0-0.311,0.084-0.544,0.248-0.702c0.166-0.158,0.408-0.238,0.728-0.238
			c0.306,0,0.543,0.082,0.711,0.244s0.252,0.395,0.252,0.696c0,0.291-0.085,0.521-0.255,0.689s-0.406,0.252-0.708,0.252
			c-0.312,0-0.551-0.082-0.72-0.246C270.026,70.249,269.942,70.017,269.942,69.719z"/>
		<path fill="#385584" d="M281.272,68.26c0,0.73-0.265,1.308-0.791,1.729c-0.524,0.421-1.258,0.631-2.194,0.631
			c-0.863,0-1.627-0.161-2.291-0.487v-1.595c0.545,0.244,1.008,0.416,1.386,0.517c0.379,0.1,0.725,0.148,1.039,0.148
			c0.376,0,0.664-0.071,0.865-0.216c0.199-0.146,0.302-0.358,0.302-0.643c0-0.158-0.044-0.302-0.133-0.425
			c-0.088-0.123-0.22-0.243-0.392-0.356c-0.172-0.114-0.521-0.297-1.049-0.548c-0.494-0.233-0.865-0.455-1.113-0.671
			c-0.248-0.215-0.444-0.464-0.592-0.747c-0.148-0.283-0.223-0.615-0.223-0.995c0-0.719,0.243-1.281,0.729-1.689
			c0.486-0.41,1.156-0.615,2.014-0.615c0.421,0,0.82,0.052,1.203,0.15c0.382,0.099,0.781,0.24,1.199,0.421l-0.554,1.334
			c-0.433-0.177-0.79-0.3-1.073-0.371c-0.28-0.068-0.56-0.104-0.832-0.104c-0.324,0-0.573,0.075-0.746,0.227
			c-0.176,0.15-0.262,0.35-0.262,0.592c0,0.152,0.034,0.283,0.105,0.396c0.068,0.113,0.182,0.222,0.334,0.326
			c0.154,0.104,0.516,0.295,1.089,0.567c0.757,0.361,1.274,0.726,1.556,1.088C281.131,67.289,281.272,67.735,281.272,68.26z"/>
		<path fill="#385584" d="M285.408,70.621c-0.997,0-1.776-0.274-2.337-0.825c-0.562-0.55-0.842-1.327-0.842-2.336
			c0-1.036,0.26-1.839,0.776-2.404c0.519-0.567,1.237-0.852,2.152-0.852c0.875,0,1.556,0.249,2.044,0.747
			c0.486,0.499,0.73,1.188,0.73,2.066v0.817h-3.994c0.02,0.48,0.162,0.855,0.429,1.125c0.265,0.271,0.637,0.404,1.116,0.404
			c0.373,0,0.726-0.039,1.059-0.115c0.332-0.079,0.68-0.201,1.04-0.372v1.308c-0.296,0.146-0.61,0.258-0.944,0.329
			C286.301,70.586,285.892,70.621,285.408,70.621z M285.17,65.406c-0.358,0-0.639,0.113-0.841,0.34
			c-0.204,0.228-0.32,0.549-0.35,0.967h2.369c-0.008-0.418-0.115-0.739-0.326-0.967C285.812,65.519,285.526,65.406,285.17,65.406z"
			/>
		<path fill="#385584" d="M291.819,70.621c-1.928,0-2.891-1.057-2.891-3.172c0-1.053,0.262-1.855,0.786-2.412
			c0.523-0.555,1.274-0.833,2.255-0.833c0.715,0,1.357,0.14,1.926,0.422l-0.498,1.307c-0.266-0.106-0.514-0.195-0.741-0.265
			c-0.228-0.068-0.459-0.102-0.687-0.102c-0.88,0-1.318,0.623-1.318,1.871c0,1.211,0.438,1.815,1.318,1.815
			c0.323,0,0.625-0.042,0.901-0.129c0.276-0.088,0.555-0.225,0.831-0.408v1.445c-0.273,0.174-0.551,0.293-0.828,0.36
			C292.599,70.59,292.244,70.621,291.819,70.621z"/>
		<path fill="#385584" d="M299.521,70.51l-0.227-0.793h-0.089c-0.183,0.288-0.438,0.512-0.771,0.667
			c-0.332,0.157-0.711,0.235-1.135,0.235c-0.729,0-1.275-0.195-1.645-0.584s-0.555-0.949-0.555-1.681V64.32h1.689v3.616
			c0,0.445,0.078,0.779,0.238,1.003c0.156,0.225,0.41,0.336,0.759,0.336c0.471,0,0.812-0.158,1.022-0.475
			c0.211-0.315,0.315-0.838,0.315-1.568V64.32h1.688v6.19H299.521z"/>
		<path fill="#385584" d="M306.044,64.204c0.229,0,0.419,0.019,0.57,0.05l-0.127,1.584c-0.137-0.037-0.303-0.055-0.498-0.055
			c-0.539,0-0.959,0.137-1.262,0.414c-0.299,0.277-0.449,0.665-0.449,1.164v3.15h-1.688V64.32h1.28l0.249,1.041h0.082
			c0.19-0.348,0.45-0.627,0.776-0.84C305.306,64.309,305.66,64.204,306.044,64.204z"/>
		<path fill="#385584" d="M310.54,70.621c-0.996,0-1.775-0.274-2.336-0.825c-0.562-0.55-0.844-1.327-0.844-2.336
			c0-1.036,0.261-1.839,0.779-2.404c0.52-0.567,1.235-0.852,2.149-0.852c0.876,0,1.558,0.249,2.044,0.747
			c0.488,0.499,0.73,1.188,0.73,2.066v0.817h-3.991c0.018,0.48,0.159,0.855,0.427,1.125c0.266,0.271,0.637,0.404,1.118,0.404
			c0.372,0,0.726-0.039,1.058-0.115c0.332-0.079,0.68-0.201,1.041-0.372v1.308c-0.296,0.146-0.611,0.258-0.947,0.329
			C311.433,70.586,311.022,70.621,310.54,70.621z M310.302,65.406c-0.357,0-0.639,0.113-0.842,0.34
			c-0.203,0.228-0.32,0.549-0.35,0.967h2.371c-0.008-0.418-0.116-0.739-0.328-0.967C310.942,65.519,310.66,65.406,310.302,65.406z"
			/>
		<path fill="#385584" d="M314.2,69.719c0-0.311,0.083-0.544,0.249-0.702s0.407-0.238,0.725-0.238c0.308,0,0.546,0.082,0.712,0.244
			c0.17,0.162,0.252,0.395,0.252,0.696c0,0.291-0.084,0.521-0.255,0.689s-0.405,0.252-0.709,0.252c-0.31,0-0.551-0.082-0.72-0.246
			C314.285,70.249,314.2,70.017,314.2,69.719z"/>
	</g>
</g>
</svg>
