<?xml version="1.0" encoding="utf-8"?>
<!-- Generator: Adobe Illustrator 15.0.2, SVG Export Plug-In . SVG Version: 6.00 Build 0)  -->
<!DOCTYPE svg PUBLIC "-//W3C//DTD SVG 1.1//EN" "http://www.w3.org/Graphics/SVG/1.1/DTD/svg11.dtd">
<svg version="1.1" id="Isolation_Mode" xmlns="http://www.w3.org/2000/svg" xmlns:xlink="http://www.w3.org/1999/xlink" x="0px"
	 y="0px" width="252px" height="48.673px" viewBox="0 0 252 48.673" enable-background="new 0 0 252 48.673" xml:space="preserve">
<g>
	<path fill-rule="evenodd" clip-rule="evenodd" fill="#FFFFFF" d="M0,28.252c0-1.764,0.887-7.951,7.733-15.213
		C14.579,5.782,24.506,0,27.621,0c1.138,0,1.972,5.508,8.285,7.607c2.2,0.731,8.292,1.91,11.049,2.174
		c2.752,0.26,6.134-1.979,5.521,1.087c-0.456,2.282-3.465,2.978-7.734,2.716c-1.36-0.085-12.569-1.586-16.572-5.435
		c-1.5-1.443-4.382-5.049-13.808,3.261c-2.644,2.332-7.254,6.861-9.39,11.408c-0.52,1.104-1.788,3.984-0.557,4.35
		c1.24,0.364,9.526,3.263,13.259,5.976c3.736,2.713,6.954,8.177,8.286,3.803c1.335-4.372,3.188-8.071,7.181-11.954
		c3.519-3.419,8.382-6.101,10.491-7.062c1.418-0.642,3.672-0.014,0.557,2.173c-1.528,1.074-9.287,5.356-11.6,10.867
		c-7.296,17.394-3.798,16.395-6.486,16c-2.674-0.391-7.991-7.011-11.19-10.023c-2.396-2.257-5.9-4.622-9.39-5.977
		C3.063,30.019,0,30.316,0,28.252"/>
	<path fill="#FFFFFF" d="M66.489,11.59L59.21,28.941h4.559l1.274-3.405h6.715l1.35,3.405h4.654L70.558,11.59H66.489z M66.244,22.179
		l2.206-5.956l2.158,5.956H66.244z M89.046,25.071c-0.621,0.326-1.348,0.489-2.18,0.489c-0.718,0-1.379-0.13-1.984-0.39
		c-0.607-0.266-1.125-0.629-1.557-1.093c-0.436-0.467-0.769-1.027-1.017-1.681c-0.244-0.651-0.368-1.37-0.368-2.155
		c0-0.768,0.124-1.476,0.368-2.122c0.248-0.645,0.588-1.205,1.027-1.676c0.443-0.474,0.97-0.851,1.582-1.117
		c0.614-0.27,1.288-0.403,2.022-0.403c0.668,0,1.328,0.132,1.959,0.392c0.64,0.262,1.153,0.66,1.543,1.203l2.844-2.845
		c-0.736-0.833-1.692-1.466-2.877-1.9c-1.188-0.431-2.392-0.65-3.618-0.65c-1.324,0-2.555,0.214-3.7,0.64
		c-1.143,0.424-2.137,1.033-2.988,1.825c-0.85,0.793-1.517,1.753-2,2.88c-0.481,1.125-0.721,2.385-0.721,3.773
		c0,1.355,0.237,2.598,0.709,3.724c0.478,1.128,1.132,2.097,1.959,2.905c0.835,0.809,1.819,1.433,2.953,1.875
		c1.136,0.442,2.374,0.663,3.713,0.663c1.472,0,2.77-0.259,3.898-0.773c1.131-0.514,2.075-1.215,2.841-2.098l-2.911-2.742
		C90.165,24.318,89.672,24.741,89.046,25.071 M105.894,25.071c-0.621,0.326-1.346,0.489-2.18,0.489c-0.716,0-1.38-0.13-1.984-0.39
		c-0.604-0.266-1.125-0.629-1.557-1.093c-0.435-0.467-0.775-1.027-1.018-1.681c-0.242-0.651-0.364-1.37-0.364-2.155
		c0-0.768,0.122-1.476,0.364-2.122c0.242-0.645,0.589-1.205,1.029-1.676c0.44-0.474,0.97-0.851,1.581-1.117
		c0.615-0.27,1.287-0.403,2.022-0.403c0.669,0,1.321,0.132,1.958,0.392c0.641,0.262,1.157,0.66,1.548,1.203l2.839-2.845
		c-0.735-0.833-1.695-1.466-2.877-1.9c-1.185-0.431-2.388-0.65-3.614-0.65c-1.325,0-2.557,0.214-3.702,0.64
		c-1.145,0.424-2.14,1.033-2.992,1.825c-0.847,0.793-1.512,1.753-1.995,2.88c-0.483,1.125-0.72,2.385-0.72,3.773
		c0,1.355,0.233,2.598,0.708,3.724c0.473,1.128,1.128,2.097,1.958,2.905c0.837,0.809,1.817,1.433,2.958,1.875
		c1.131,0.442,2.37,0.663,3.709,0.663c1.47,0,2.771-0.259,3.893-0.773c1.133-0.514,2.077-1.215,2.848-2.098l-2.917-2.742
		C107.013,24.318,106.518,24.741,105.894,25.071 M127.285,13.573c-0.838-0.782-1.833-1.385-2.998-1.809
		c-1.156-0.426-2.418-0.64-3.774-0.64c-1.355,0-2.612,0.214-3.761,0.64c-1.151,0.424-2.149,1.027-2.991,1.809
		c-0.839,0.789-1.497,1.739-1.972,2.858c-0.473,1.118-0.71,2.374-0.71,3.761c0,1.368,0.237,2.627,0.71,3.762
		c0.475,1.136,1.133,2.108,1.972,2.916c0.843,0.809,1.841,1.433,2.991,1.875c1.149,0.442,2.406,0.663,3.761,0.663
		c1.356,0,2.618-0.221,3.774-0.663c1.164-0.441,2.16-1.066,2.998-1.875c0.844-0.808,1.503-1.78,1.977-2.916
		c0.474-1.135,0.711-2.395,0.711-3.762c0-1.388-0.237-2.644-0.711-3.761C128.788,15.312,128.129,14.362,127.285,13.573
		 M125.121,22.363c-0.244,0.662-0.589,1.229-1.026,1.702c-0.447,0.476-0.964,0.847-1.572,1.116c-0.604,0.271-1.272,0.405-2.01,0.405
		c-0.729,0-1.406-0.134-2.009-0.405c-0.605-0.269-1.121-0.641-1.555-1.116c-0.437-0.473-0.773-1.04-1.019-1.702
		c-0.243-0.664-0.367-1.388-0.367-2.17c0-0.75,0.121-1.454,0.357-2.107c0.236-0.654,0.574-1.213,1.018-1.678
		c0.437-0.467,0.961-0.834,1.566-1.105c0.603-0.266,1.279-0.402,2.009-0.402c0.737,0,1.41,0.136,2.022,0.402
		c0.613,0.271,1.133,0.638,1.569,1.105c0.433,0.465,0.772,1.024,1.016,1.678c0.245,0.653,0.367,1.357,0.367,2.107
		C125.487,20.975,125.366,21.699,125.121,22.363 M143.845,22.057c0,0.473-0.057,0.924-0.172,1.345
		c-0.115,0.428-0.303,0.807-0.566,1.139c-0.262,0.335-0.601,0.601-1.016,0.798c-0.412,0.197-0.916,0.293-1.505,0.293
		c-0.586,0-1.092-0.096-1.511-0.293c-0.417-0.197-0.748-0.462-1.005-0.798c-0.249-0.333-0.441-0.711-0.563-1.139
		c-0.121-0.421-0.182-0.873-0.182-1.345V11.59h-4.162v10.807c0,1.048,0.171,2,0.516,2.857c0.342,0.858,0.83,1.594,1.465,2.206
		c0.639,0.612,1.415,1.089,2.334,1.43c0.911,0.348,1.938,0.519,3.086,0.519c1.125,0,2.15-0.171,3.073-0.519
		c0.924-0.34,1.712-0.818,2.363-1.43c0.656-0.612,1.156-1.348,1.51-2.206c0.347-0.857,0.526-1.809,0.526-2.857V11.59h-4.189V22.057z
		 M163.524,22.913h-0.074l-6.956-11.323h-4.783v17.352h4.066l-0.1-11.348h0.075l6.983,11.348h4.758V11.59h-4.068L163.524,22.913z
		 M169.954,15.168h4.9v13.773h4.195V15.168h4.899V11.59h-13.994V15.168z M196.265,25.071c-0.621,0.326-1.35,0.489-2.187,0.489
		c-0.718,0-1.376-0.13-1.981-0.39c-0.601-0.266-1.124-0.629-1.556-1.093c-0.433-0.467-0.772-1.027-1.021-1.681
		c-0.24-0.651-0.362-1.37-0.362-2.155c0-0.768,0.122-1.476,0.362-2.122c0.249-0.645,0.593-1.205,1.034-1.676
		c0.441-0.474,0.965-0.851,1.581-1.117c0.612-0.27,1.288-0.403,2.023-0.403c0.669,0,1.321,0.132,1.954,0.392
		c0.639,0.262,1.155,0.66,1.545,1.203l2.848-2.845c-0.737-0.833-1.698-1.466-2.884-1.9c-1.183-0.431-2.391-0.65-3.613-0.65
		c-1.322,0-2.553,0.214-3.698,0.64c-1.147,0.424-2.145,1.033-2.991,1.825c-0.851,0.793-1.515,1.753-1.996,2.88
		c-0.485,1.125-0.722,2.385-0.722,3.773c0,1.355,0.237,2.598,0.707,3.724c0.477,1.128,1.128,2.097,1.964,2.905
		c0.833,0.809,1.811,1.433,2.95,1.875c1.134,0.442,2.376,0.663,3.711,0.663c1.474,0,2.775-0.259,3.897-0.773
		c1.128-0.514,2.079-1.215,2.845-2.098l-2.916-2.742C197.376,24.318,196.885,24.741,196.265,25.071 M213.211,18.157h-6.769V11.59
		h-4.188v17.352h4.188v-7.255h6.769v7.255h4.187V11.59h-4.187V18.157z M224.677,21.76h7.206v-3.355h-7.206v-3.284h7.623V11.59
		h-11.662v17.352h12.107v-3.577h-8.067V21.76z M244.084,19.582l7.475-7.992h-5.241l-6.2,7.06h-0.078v-7.06h-4.09v17.352h4.09v-7.99
		h0.051l6.445,7.99H252L244.084,19.582z"/>
	<g>
		<path fill="#FFFFFF" d="M65.418,43.849c0,0.709-0.255,1.268-0.766,1.676c-0.512,0.409-1.221,0.612-2.129,0.612
			c-0.837,0-1.579-0.157-2.223-0.473v-1.546c0.529,0.236,0.978,0.403,1.344,0.499c0.368,0.097,0.703,0.146,1.008,0.146
			c0.365,0,0.646-0.069,0.84-0.21c0.196-0.14,0.292-0.347,0.292-0.623c0-0.154-0.042-0.292-0.128-0.412
			c-0.085-0.119-0.212-0.235-0.379-0.346c-0.167-0.111-0.505-0.289-1.017-0.531c-0.48-0.226-0.84-0.442-1.08-0.651
			c-0.241-0.208-0.432-0.45-0.575-0.725c-0.144-0.275-0.215-0.597-0.215-0.966c0-0.695,0.236-1.242,0.706-1.638
			c0.471-0.397,1.121-0.597,1.953-0.597c0.408,0,0.797,0.049,1.167,0.146c0.371,0.096,0.759,0.233,1.164,0.409l-0.538,1.294
			c-0.418-0.172-0.766-0.292-1.039-0.361c-0.273-0.067-0.544-0.101-0.808-0.101c-0.316,0-0.558,0.073-0.726,0.22
			c-0.168,0.146-0.251,0.338-0.251,0.574c0,0.147,0.033,0.275,0.102,0.385c0.068,0.109,0.176,0.215,0.324,0.316
			c0.15,0.103,0.501,0.286,1.057,0.55c0.733,0.352,1.236,0.703,1.509,1.056C65.281,42.905,65.418,43.338,65.418,43.849z"/>
		<path fill="#FFFFFF" d="M66.643,38.474c0-0.533,0.295-0.8,0.891-0.8c0.594,0,0.891,0.267,0.891,0.8
			c0,0.254-0.074,0.453-0.223,0.593c-0.149,0.142-0.372,0.212-0.668,0.212C66.938,39.28,66.643,39.011,66.643,38.474z
			 M68.351,46.031h-1.639v-6.005h1.639V46.031z"/>
		<path fill="#FFFFFF" d="M75.445,46.031h-1.639v-3.507c0-0.433-0.073-0.759-0.217-0.976c-0.146-0.217-0.374-0.324-0.685-0.324
			c-0.418,0-0.725,0.153-0.913,0.461c-0.19,0.308-0.285,0.815-0.285,1.521v2.825h-1.638v-6.005h1.251l0.22,0.768h0.092
			c0.161-0.276,0.394-0.492,0.698-0.647c0.304-0.155,0.653-0.233,1.048-0.233c0.898,0,1.507,0.294,1.826,0.88h0.144
			c0.162-0.279,0.398-0.495,0.711-0.65c0.314-0.154,0.667-0.23,1.061-0.23c0.681,0,1.194,0.175,1.543,0.523
			c0.35,0.349,0.524,0.908,0.524,1.678v3.916h-1.643v-3.507c0-0.433-0.074-0.759-0.218-0.976c-0.145-0.217-0.373-0.324-0.684-0.324
			c-0.402,0-0.702,0.142-0.9,0.429c-0.199,0.287-0.297,0.741-0.297,1.365V46.031z"/>
		<path fill="#FFFFFF" d="M84.167,46.138c-0.706,0-1.259-0.255-1.66-0.768h-0.085c0.057,0.5,0.085,0.791,0.085,0.87v2.433H80.87
			v-8.647h1.332l0.231,0.778h0.075c0.383-0.594,0.951-0.891,1.703-0.891c0.71,0,1.263,0.273,1.665,0.822
			c0.4,0.547,0.602,1.309,0.602,2.283c0,0.64-0.094,1.198-0.282,1.67c-0.188,0.471-0.456,0.832-0.803,1.079
			C85.043,46.015,84.635,46.138,84.167,46.138z M83.684,41.225c-0.404,0-0.7,0.124-0.886,0.373
			c-0.188,0.249-0.284,0.659-0.291,1.232v0.177c0,0.645,0.096,1.107,0.287,1.386c0.193,0.279,0.496,0.418,0.912,0.418
			c0.732,0,1.101-0.605,1.101-1.814c0-0.591-0.091-1.035-0.272-1.33C84.354,41.372,84.07,41.225,83.684,41.225z"/>
		<path fill="#FFFFFF" d="M89.467,46.031H87.83v-8.357h1.637V46.031z"/>
		<path fill="#FFFFFF" d="M93.904,46.138c-0.967,0-1.723-0.267-2.266-0.801c-0.546-0.532-0.817-1.288-0.817-2.266
			c0-1.005,0.251-1.784,0.755-2.333c0.503-0.55,1.198-0.824,2.087-0.824c0.848,0,1.509,0.241,1.981,0.724
			c0.473,0.484,0.708,1.152,0.708,2.004v0.794H92.48c0.017,0.466,0.156,0.829,0.414,1.091c0.258,0.261,0.619,0.392,1.085,0.392
			c0.36,0,0.704-0.038,1.026-0.113c0.322-0.076,0.659-0.195,1.009-0.36v1.268c-0.286,0.143-0.593,0.25-0.918,0.319
			C94.77,46.103,94.372,46.138,93.904,46.138z M93.674,41.079c-0.349,0-0.62,0.11-0.817,0.331c-0.198,0.219-0.311,0.532-0.338,0.937
			h2.298c-0.008-0.405-0.111-0.717-0.316-0.937C94.296,41.189,94.021,41.079,93.674,41.079z"/>
		<path fill="#FFFFFF" d="M97.454,45.263c0-0.301,0.081-0.528,0.242-0.683c0.162-0.153,0.396-0.231,0.704-0.231
			c0.296,0,0.528,0.079,0.69,0.236c0.163,0.158,0.245,0.383,0.245,0.677c0,0.283-0.083,0.505-0.247,0.668
			c-0.166,0.163-0.395,0.245-0.688,0.245c-0.301,0-0.533-0.08-0.698-0.239C97.536,45.776,97.454,45.553,97.454,45.263z"/>
		<path fill="#FFFFFF" d="M108.442,43.849c0,0.709-0.256,1.268-0.765,1.676c-0.51,0.409-1.221,0.612-2.129,0.612
			c-0.838,0-1.58-0.157-2.224-0.473v-1.546c0.53,0.236,0.979,0.403,1.345,0.499c0.367,0.097,0.702,0.146,1.008,0.146
			c0.365,0,0.645-0.069,0.84-0.21c0.195-0.14,0.292-0.347,0.292-0.623c0-0.154-0.042-0.292-0.129-0.412
			c-0.085-0.119-0.213-0.235-0.378-0.346c-0.167-0.111-0.506-0.289-1.018-0.531c-0.48-0.226-0.84-0.442-1.079-0.651
			c-0.24-0.208-0.433-0.45-0.574-0.725c-0.145-0.275-0.215-0.597-0.215-0.966c0-0.695,0.235-1.242,0.707-1.638
			c0.471-0.397,1.121-0.597,1.952-0.597c0.408,0,0.796,0.049,1.167,0.146c0.371,0.096,0.759,0.233,1.164,0.409l-0.537,1.294
			c-0.418-0.172-0.765-0.292-1.04-0.361c-0.274-0.067-0.544-0.101-0.809-0.101c-0.315,0-0.557,0.073-0.724,0.22
			c-0.168,0.146-0.253,0.338-0.253,0.574c0,0.147,0.035,0.275,0.103,0.385c0.068,0.109,0.177,0.215,0.325,0.316
			c0.149,0.103,0.5,0.286,1.056,0.55c0.733,0.352,1.236,0.703,1.509,1.056C108.307,42.905,108.442,43.338,108.442,43.849z"/>
		<path fill="#FFFFFF" d="M115.113,46.031h-1.638v-3.507c0-0.433-0.074-0.759-0.219-0.976c-0.145-0.217-0.373-0.324-0.685-0.324
			c-0.418,0-0.724,0.153-0.912,0.461c-0.19,0.308-0.285,0.815-0.285,1.521v2.825h-1.639v-6.005h1.252l0.22,0.768h0.091
			c0.161-0.276,0.394-0.492,0.699-0.647c0.304-0.155,0.653-0.233,1.046-0.233c0.898,0,1.507,0.294,1.826,0.88h0.146
			c0.161-0.279,0.397-0.495,0.71-0.65c0.315-0.154,0.668-0.23,1.062-0.23c0.681,0,1.194,0.175,1.544,0.523
			c0.349,0.349,0.524,0.908,0.524,1.678v3.916h-1.644v-3.507c0-0.433-0.073-0.759-0.218-0.976c-0.145-0.217-0.373-0.324-0.685-0.324
			c-0.401,0-0.701,0.142-0.9,0.429c-0.198,0.287-0.297,0.741-0.297,1.365V46.031z"/>
		<path fill="#FFFFFF" d="M124.351,46.031l-0.317-0.816h-0.043c-0.277,0.347-0.56,0.587-0.852,0.722
			c-0.291,0.134-0.673,0.201-1.141,0.201c-0.577,0-1.031-0.165-1.363-0.495c-0.331-0.329-0.496-0.798-0.496-1.407
			c0-0.637,0.222-1.108,0.668-1.41c0.446-0.301,1.118-0.47,2.018-0.501l1.041-0.034v-0.263c0-0.608-0.311-0.914-0.934-0.914
			c-0.481,0-1.044,0.146-1.692,0.436l-0.543-1.107c0.692-0.361,1.457-0.542,2.299-0.542c0.807,0,1.424,0.175,1.854,0.526
			c0.429,0.351,0.645,0.885,0.645,1.6v4.002H124.351z M123.867,43.249l-0.634,0.021c-0.477,0.014-0.831,0.1-1.063,0.258
			c-0.233,0.158-0.35,0.397-0.35,0.72c0,0.461,0.265,0.692,0.796,0.692c0.379,0,0.683-0.109,0.91-0.327
			c0.228-0.218,0.341-0.509,0.341-0.871V43.249z"/>
		<path fill="#FFFFFF" d="M130.533,39.914c0.221,0,0.406,0.017,0.553,0.048l-0.124,1.535c-0.133-0.036-0.294-0.053-0.484-0.053
			c-0.523,0-0.93,0.133-1.222,0.402c-0.291,0.269-0.437,0.645-0.437,1.128v3.056h-1.638v-6.005h1.241l0.241,1.01h0.081
			c0.186-0.337,0.437-0.608,0.754-0.814C129.815,40.016,130.159,39.914,130.533,39.914z"/>
		<path fill="#FFFFFF" d="M134.705,44.833c0.286,0,0.63-0.062,1.031-0.188v1.22c-0.408,0.182-0.909,0.273-1.504,0.273
			c-0.655,0-1.132-0.166-1.432-0.496c-0.298-0.332-0.447-0.829-0.447-1.491v-2.895h-0.784v-0.693l0.902-0.548l0.473-1.267h1.047
			v1.278h1.681v1.23h-1.681v2.895c0,0.232,0.065,0.404,0.195,0.515C134.317,44.777,134.491,44.833,134.705,44.833z"/>
		<path fill="#FFFFFF" d="M136.719,45.263c0-0.301,0.082-0.528,0.242-0.683c0.161-0.153,0.396-0.231,0.705-0.231
			c0.296,0,0.527,0.079,0.689,0.236c0.163,0.158,0.245,0.383,0.245,0.677c0,0.283-0.083,0.505-0.247,0.668
			c-0.165,0.163-0.395,0.245-0.687,0.245c-0.302,0-0.534-0.08-0.698-0.239C136.801,45.776,136.719,45.553,136.719,45.263z"/>
		<path fill="#FFFFFF" d="M147.708,43.849c0,0.709-0.256,1.268-0.766,1.676c-0.51,0.409-1.219,0.612-2.129,0.612
			c-0.837,0-1.579-0.157-2.223-0.473v-1.546c0.529,0.236,0.978,0.403,1.345,0.499c0.367,0.097,0.702,0.146,1.008,0.146
			c0.365,0,0.645-0.069,0.84-0.21c0.195-0.14,0.293-0.347,0.293-0.623c0-0.154-0.043-0.292-0.129-0.412
			c-0.086-0.119-0.214-0.235-0.38-0.346c-0.166-0.111-0.505-0.289-1.017-0.531c-0.48-0.226-0.84-0.442-1.079-0.651
			c-0.24-0.208-0.431-0.45-0.574-0.725c-0.144-0.275-0.215-0.597-0.215-0.966c0-0.695,0.235-1.242,0.706-1.638
			c0.472-0.397,1.122-0.597,1.953-0.597c0.408,0,0.797,0.049,1.167,0.146c0.37,0.096,0.758,0.233,1.164,0.409l-0.537,1.294
			c-0.42-0.172-0.767-0.292-1.041-0.361c-0.274-0.067-0.543-0.101-0.808-0.101c-0.315,0-0.557,0.073-0.724,0.22
			c-0.17,0.146-0.253,0.338-0.253,0.574c0,0.147,0.033,0.275,0.102,0.385c0.068,0.109,0.177,0.215,0.324,0.316
			c0.15,0.103,0.5,0.286,1.056,0.55c0.734,0.352,1.236,0.703,1.509,1.056C147.571,42.905,147.708,43.338,147.708,43.849z"/>
		<path fill="#FFFFFF" d="M151.72,46.138c-0.968,0-1.723-0.267-2.267-0.801c-0.545-0.532-0.817-1.288-0.817-2.266
			c0-1.005,0.252-1.784,0.754-2.333c0.503-0.55,1.2-0.824,2.087-0.824c0.849,0,1.51,0.241,1.983,0.724
			c0.472,0.484,0.708,1.152,0.708,2.004v0.794h-3.873c0.017,0.466,0.156,0.829,0.414,1.091c0.257,0.261,0.619,0.392,1.084,0.392
			c0.361,0,0.703-0.038,1.026-0.113c0.322-0.076,0.658-0.195,1.009-0.36v1.268c-0.287,0.143-0.592,0.25-0.917,0.319
			C152.585,46.103,152.188,46.138,151.72,46.138z M151.488,41.079c-0.348,0-0.62,0.11-0.816,0.331
			c-0.198,0.219-0.311,0.532-0.339,0.937h2.299c-0.008-0.405-0.112-0.717-0.317-0.937C152.112,41.189,151.835,41.079,151.488,41.079
			z"/>
		<path fill="#FFFFFF" d="M157.939,46.138c-1.87,0-2.804-1.026-2.804-3.077c0-1.02,0.253-1.8,0.762-2.339
			c0.508-0.539,1.236-0.808,2.186-0.808c0.694,0,1.317,0.136,1.869,0.409l-0.483,1.266c-0.258-0.103-0.499-0.189-0.72-0.255
			c-0.221-0.066-0.445-0.1-0.665-0.1c-0.853,0-1.278,0.605-1.278,1.816c0,1.174,0.425,1.761,1.278,1.761
			c0.314,0,0.606-0.041,0.875-0.125c0.269-0.084,0.538-0.217,0.806-0.395v1.402c-0.266,0.168-0.533,0.284-0.803,0.349
			S158.35,46.138,157.939,46.138z"/>
		<path fill="#FFFFFF" d="M165.409,46.031l-0.22-0.769h-0.086c-0.177,0.279-0.425,0.495-0.747,0.646
			c-0.322,0.152-0.689,0.229-1.1,0.229c-0.707,0-1.238-0.189-1.596-0.566c-0.358-0.378-0.537-0.922-0.537-1.631v-3.915h1.639v3.508
			c0,0.433,0.076,0.758,0.231,0.973c0.154,0.218,0.398,0.326,0.736,0.326c0.457,0,0.789-0.154,0.993-0.46
			c0.204-0.306,0.306-0.813,0.306-1.522v-2.825h1.638v6.005H165.409z"/>
		<path fill="#FFFFFF" d="M171.736,39.914c0.222,0,0.407,0.017,0.553,0.048l-0.123,1.535c-0.134-0.036-0.294-0.053-0.483-0.053
			c-0.523,0-0.93,0.133-1.223,0.402c-0.291,0.269-0.437,0.645-0.437,1.128v3.056h-1.638v-6.005h1.241l0.242,1.01h0.08
			c0.186-0.337,0.437-0.608,0.753-0.814C171.019,40.016,171.363,39.914,171.736,39.914z"/>
		<path fill="#FFFFFF" d="M176.097,46.138c-0.967,0-1.723-0.267-2.266-0.801c-0.545-0.532-0.816-1.288-0.816-2.266
			c0-1.005,0.251-1.784,0.754-2.333c0.504-0.55,1.199-0.824,2.086-0.824c0.85,0,1.51,0.241,1.982,0.724
			c0.473,0.484,0.709,1.152,0.709,2.004v0.794h-3.872c0.017,0.466,0.156,0.829,0.414,1.091c0.258,0.261,0.618,0.392,1.085,0.392
			c0.361,0,0.703-0.038,1.025-0.113c0.323-0.076,0.659-0.195,1.01-0.36v1.268c-0.287,0.143-0.593,0.25-0.919,0.319
			C176.963,46.103,176.565,46.138,176.097,46.138z M175.865,41.079c-0.347,0-0.619,0.11-0.816,0.331
			c-0.197,0.219-0.311,0.532-0.339,0.937h2.299c-0.008-0.405-0.113-0.717-0.317-0.937C176.489,41.189,176.213,41.079,175.865,41.079
			z"/>
		<path fill="#FFFFFF" d="M179.647,45.263c0-0.301,0.081-0.528,0.241-0.683c0.162-0.153,0.396-0.231,0.704-0.231
			c0.297,0,0.528,0.079,0.689,0.236c0.164,0.158,0.245,0.383,0.245,0.677c0,0.283-0.083,0.505-0.247,0.668
			c-0.165,0.163-0.394,0.245-0.687,0.245c-0.301,0-0.534-0.08-0.699-0.239C179.729,45.776,179.647,45.553,179.647,45.263z"/>
	</g>
</g>
</svg>
