<?xml version="1.0" encoding="utf-8"?>
<!-- Generator: Adobe Illustrator 18.0.0, SVG Export Plug-In . SVG Version: 6.00 Build 0)  -->
<!DOCTYPE svg PUBLIC "-//W3C//DTD SVG 1.1//EN" "http://www.w3.org/Graphics/SVG/1.1/DTD/svg11.dtd">
<svg version="1.1" id="Layer_1" xmlns="http://www.w3.org/2000/svg" xmlns:xlink="http://www.w3.org/1999/xlink" x="0px" y="0px"
	 viewBox="0 0 197 22.8" enable-background="new 0 0 197 22.8" xml:space="preserve">
<g>
	<g>
		<g>
			<g>
				<path fill="#444545" d="M0,19.6h2.3L7.7,6.1H5.1V3.1H13l6.6,16.4H22v2.9h-8.7v-2.9h2.5l-1-2.6H6.9l-1,2.6h2.5v2.9H0V19.6z
					 M13.7,14l-2.9-7.3L8,14H13.7z"/>
			</g>
			<g>
				<path fill="#444545" d="M22.4,15.7c0-4.8,3-7.3,7.3-7.3c2,0,3.8,0.5,5,0.9V14h-3v-2.7c-0.5-0.1-1-0.2-1.6-0.2
					c-2.6,0-3.9,1.7-3.9,4.4c0,2.7,1.2,4.5,4.1,4.5c1.6,0,3.1-0.6,4.3-1.2v2.8c-1.3,0.7-3.1,1.1-4.9,1.1
					C25.1,22.8,22.4,20.3,22.4,15.7z"/>
			</g>
			<g>
				<path fill="#444545" d="M36.5,15.7c0-4.8,3-7.3,7.3-7.3c2,0,3.8,0.5,5,0.9V14h-3v-2.7c-0.5-0.1-1-0.2-1.6-0.2
					c-2.6,0-3.9,1.7-3.9,4.4c0,2.7,1.2,4.5,4.1,4.5c1.6,0,3.1-0.6,4.3-1.2v2.8c-1.3,0.7-3.1,1.1-4.9,1.1
					C39.2,22.8,36.5,20.3,36.5,15.7z"/>
			</g>
			<g>
				<path fill="#444545" d="M50.6,15.6c0-4.3,2.6-7.2,7.2-7.2c4.6,0,7.2,3,7.2,7.2c0,4.3-2.6,7.2-7.2,7.2
					C53.2,22.8,50.6,19.9,50.6,15.6z M61.4,15.6c0-2.5-1.1-4.5-3.5-4.5c-2.4,0-3.5,2-3.5,4.5c0,2.5,1.1,4.5,3.5,4.5
					C60.3,20.1,61.4,18.1,61.4,15.6z"/>
			</g>
			<g>
				<path fill="#444545" d="M68.7,18.6v-7h-2.1V8.8h5.7v9.5c0,1.1,0.4,1.8,1.7,1.8c1.4,0,2.7-0.7,3.8-1.6v-6.9h-2.4V8.8h6v10.9h2.1
					v2.8h-5.6v-1.7c-1.3,1.1-3,2-5.1,2C70.2,22.8,68.7,21.4,68.7,18.6z"/>
			</g>
			<g>
				<path fill="#444545" d="M85.1,19.7h2.1v-8.1h-2.1V8.8h5.6v1.7c1.3-1.1,3-2.1,5.1-2.1c2.5,0,4.1,1.4,4.1,4.3v7h2.1v2.8h-7.8v-2.8
					h2.1V13c0-1.1-0.4-1.8-1.7-1.8c-1.4,0-2.7,0.8-3.8,1.6v6.9h2.1v2.8h-7.8V19.7z"/>
			</g>
			<g>
				<path fill="#444545" d="M105.2,18.7v-7.1h-2.4V8.8h2.4V5.3h3.6v3.5h3.7v2.8h-3.7v6.9c0,1.3,0.8,1.6,1.8,1.6
					c0.8,0,1.6-0.2,2.1-0.3v2.6c-0.8,0.2-1.9,0.5-3.3,0.5C106,22.8,105.2,21.2,105.2,18.7z"/>
			</g>
		</g>
		<g>
			<path fill="#3B96D2" d="M114.3,14c0-6.2,4.5-11.3,11.6-11.3c2.6,0,5.1,0.7,7.3,1.7l-0.9,5.4h-3.4l0.6-3.6c-1-0.3-2.3-0.6-3.6-0.6
				c-4.8,0-7.8,3.8-7.8,8.2c0,4,2.5,5.8,5.8,5.8c2.4,0,5.1-0.9,7.2-2.1l-0.6,3.5c-1.3,0.7-4.1,1.7-7,1.7
				C118.2,22.8,114.3,19.7,114.3,14z"/>
		</g>
		<g>
			<path fill="#3B96D2" d="M136.6,2.8h-2.3l0.5-2.8h5.9l-1.8,10.5c1.3-1.1,3-2.1,4.9-2.1c2.4,0,4.1,1.7,3.6,4.6l-1,5.6
				c-0.2,1.1,0.2,1.5,1.1,1.5c0.4,0,1-0.1,1.4-0.3l-0.4,2.6c-0.6,0.2-1.4,0.3-2.3,0.3c-3.2,0-3.6-2.2-3.3-4.3l1-5.2
				c0.2-1.2-0.1-2-1.3-2c-1.4,0-3,1.2-4.2,2.3l-1.6,8.9h-3.6L136.6,2.8z"/>
		</g>
		<g>
			<path fill="#3B96D2" d="M150.4,16.6c0-4.7,3.4-8.2,7.9-8.2c3,0,4.5,1.6,4.5,3.8c0,3.7-4.3,4.9-8.9,5.1c0.3,2.1,1.5,2.8,3.4,2.8
				c1.7,0,3.1-0.6,4.5-1.2l-0.5,2.9c-1.1,0.6-2.7,1.1-4.5,1.1C153.3,22.8,150.4,21,150.4,16.6z M159.5,12.2c0-0.6-0.3-1.2-1.5-1.2
				c-1.8,0-3.3,1.6-3.9,3.7C156.9,14.6,159.5,13.9,159.5,12.2z"/>
		</g>
		<g>
			<path fill="#3B96D2" d="M173.5,16.8c2.4-0.7,4.7-2.3,4.7-4.8c0-2.4-1.9-3.6-4-3.6c-1.7,0-3.1,0.7-4.3,1.6l1.8-10h-5.6l-0.5,2.8h2
				l-3.5,19.6h3.6l1.7-9.6c1.1-0.9,2.5-1.7,3.8-1.7c0.9,0,1.5,0.4,1.5,1.3c0,1.5-1.7,2.4-3.7,2.8l2.2,1.7
				C173.3,16.9,173.4,16.9,173.5,16.8z"/>
		</g>
		<g>
			<g>
				<path fill="#3B96D2" d="M189.7,8.6l-0.5-0.2c-0.4-0.1-0.8,0-1.1,0.2l-11.8,11.5l-6.3-4.9l-0.3,1.3c-0.1,0.4,0,0.8,0.3,1.1
					l4.3,4.7h4.8L189.7,8.6z"/>
			</g>
			<g>
				<polygon fill="#245D81" points="176.3,20.2 179.1,22.4 179.8,21.5 				"/>
			</g>
		</g>
	</g>
	<g>
		<g>
			<path fill="#444545" d="M193.3,8.9h-0.5V6.8h-0.7V6.4h1.9v0.4h-0.7V8.9z"/>
		</g>
		<g>
			<path fill="#444545" d="M195.5,8.9l-0.6-2h0c0,0.4,0,0.7,0,0.8v1.2h-0.5V6.4h0.7l0.6,1.9h0l0.6-1.9h0.7v2.5h-0.5V7.7
				c0-0.1,0-0.1,0-0.2c0-0.1,0-0.3,0-0.6h0l-0.6,2H195.5z"/>
		</g>
	</g>
</g>
</svg>
