<?xml version="1.0"?>
<svg width="180" height="39" xmlns="http://www.w3.org/2000/svg">
 <!-- Created with SVG-edit - http://svg-edit.googlecode.com/ -->

 <g>
  <title>Layer 1</title>
  <g id="svg_8">
   <g transform="matrix(0.378205 0 0 0.378205 -1029.58 -223.954)" id="svg_5">
    <path id="svg_6" d="m2842.914551,643.516113l-13.707031,32.676025l8.585938,0l2.398193,-6.414001l12.647949,0l2.535889,6.414001l8.77002,0l-13.567871,-32.676025l-7.663086,0zm-0.458984,19.94104l4.154053,-11.216003l4.061035,11.216003l-8.215088,0zm42.938965,5.444946c-1.165039,0.615051 -2.540039,0.919006 -4.105957,0.919006c-1.353027,0 -2.5979,-0.242981 -3.736084,-0.730957c-1.142822,-0.498047 -2.115967,-1.184021 -2.930908,-2.058044c-0.820068,-0.878967 -1.455078,-1.93396 -1.915039,-3.161987c-0.461914,-1.229004 -0.692871,-2.580994 -0.692871,-4.062012c0,-1.440979 0.230957,-2.774963 0.692871,-3.98999c0.459961,-1.216003 1.10791,-2.270996 1.937988,-3.162964c0.832031,-0.88501 1.824951,-1.593018 2.978027,-2.102051c1.148926,-0.504944 2.422119,-0.755981 3.805908,-0.755981c1.260986,0 2.496094,0.244995 3.693115,0.738037c1.199951,0.492004 2.170898,1.243958 2.906006,2.263977l5.353027,-5.356018c-1.385986,-1.56897 -3.187988,-2.763977 -5.419922,-3.580994c-2.231201,-0.813965 -4.500244,-1.221008 -6.808105,-1.221008c-2.493896,0 -4.814941,0.401001 -6.969971,1.205017c-2.153076,0.796997 -4.029053,1.945007 -5.626953,3.435974c-1.601074,1.492004 -2.857178,3.301025 -3.763184,5.422058c-0.904785,2.118958 -1.358887,4.491943 -1.358887,7.103943c0,2.555054 0.441895,4.890991 1.337891,7.015991c0.89209,2.126038 2.124023,3.95105 3.687988,5.470032c1.570068,1.523987 3.420166,2.700989 5.562012,3.531006c2.140137,0.830017 4.468994,1.250977 6.98999,1.250977c2.773193,0 5.216064,-0.492981 7.341064,-1.45697c2.124023,-0.971008 3.907959,-2.289001 5.353027,-3.950989l-5.491943,-5.166016c-0.712158,0.982971 -1.648926,1.781006 -2.819092,2.399963m31.729004,0c-1.168945,0.615051 -2.535889,0.919006 -4.10791,0.919006c-1.349121,0 -2.600098,-0.242981 -3.736084,-0.730957c-1.141846,-0.498047 -2.11499,-1.184021 -2.930908,-2.058044c-0.816162,-0.878967 -1.457031,-1.93396 -1.916992,-3.161987c-0.458984,-1.229004 -0.691162,-2.580994 -0.691162,-4.062012c0,-1.440979 0.232178,-2.774963 0.691162,-3.98999c0.460938,-1.216003 1.112061,-2.270996 1.937988,-3.162964c0.832031,-0.88501 1.824951,-1.593018 2.978027,-2.102051c1.155029,-0.504944 2.421875,-0.755981 3.809814,-0.755981c1.26001,0 2.491211,0.244995 3.691162,0.738037c1.203857,0.492004 2.169922,1.243958 2.907959,2.263977l5.35498,-5.356018c-1.387939,-1.56897 -3.191895,-2.763977 -5.424072,-3.580994c-2.231934,-0.813965 -4.50293,-1.221008 -6.804932,-1.221008c-2.494873,0 -4.818115,0.401001 -6.969971,1.205017c-2.153076,0.796997 -4.031982,1.945007 -5.62793,3.435974c-1.603027,1.492004 -2.858154,3.301025 -3.762207,5.422058c-0.908936,2.118958 -1.361816,4.491943 -1.361816,7.103943c0,2.555054 0.440918,4.890991 1.336914,7.015991c0.891113,2.126038 2.121094,3.95105 3.693115,5.470032c1.572021,1.523987 3.420898,2.700989 5.562988,3.531006c2.134033,0.830017 4.46582,1.250977 6.989014,1.250977c2.768799,0 5.212891,-0.492981 7.335938,-1.45697c2.124023,-0.971008 3.904053,-2.289001 5.356934,-3.950989l-5.493896,-5.166016c-0.712158,0.982971 -1.646973,1.781006 -2.818115,2.399963m40.288086,-21.648987c-1.582031,-1.471985 -3.467041,-2.609985 -5.651123,-3.406982c-2.186035,-0.804016 -4.553955,-1.205017 -7.105957,-1.205017c-2.552002,0 -4.916992,0.401001 -7.083008,1.205017c-2.169922,0.796997 -4.043945,1.935974 -5.62793,3.406982c-1.586914,1.479004 -2.823975,3.270996 -3.718018,5.38501c-0.891113,2.101013 -1.337891,4.463989 -1.337891,7.080017c0,2.578979 0.446777,4.947021 1.337891,7.083008c0.894043,2.138 2.131104,3.973999 3.718018,5.492004c1.583984,1.523987 3.458008,2.700989 5.62793,3.531006c2.166992,0.829956 4.531006,1.250977 7.083008,1.250977c2.552979,0 4.919922,-0.421021 7.105957,-1.250977c2.185059,-0.830017 4.069092,-2.007019 5.651123,-3.531006c1.585938,-1.519043 2.823975,-3.354004 3.717041,-5.492004c0.893799,-2.135986 1.335938,-4.504028 1.335938,-7.083008c0,-2.616028 -0.442139,-4.979004 -1.335938,-7.080017c-0.893066,-2.114014 -2.13208,-3.906006 -3.717041,-5.38501m-4.084961,16.548035c-0.458984,1.247009 -1.104004,2.317017 -1.933105,3.20697c-0.833984,0.89801 -1.820068,1.596008 -2.958984,2.101013c-1.135986,0.513 -2.397949,0.765015 -3.781006,0.765015c-1.381104,0 -2.645996,-0.252014 -3.784912,-0.765015c-1.13916,-0.505005 -2.113037,-1.202026 -2.931152,-2.101013c-0.815918,-0.889954 -1.452881,-1.959961 -1.912842,-3.20697c-0.462158,-1.247009 -0.695068,-2.609985 -0.695068,-4.083008c0,-1.416992 0.2229,-2.741028 0.667969,-3.968018c0.447998,-1.229004 1.086914,-2.283997 1.918945,-3.161011c0.829102,-0.878967 1.812012,-1.57196 2.951172,-2.083008c1.138916,-0.497986 2.402832,-0.753967 3.784912,-0.753967c1.383057,0 2.6521,0.255981 3.806885,0.753967c1.156006,0.511047 2.137207,1.204041 2.954102,2.083008c0.812012,0.877014 1.453125,1.932007 1.912109,3.161011c0.462891,1.22699 0.692871,2.551025 0.692871,3.968018c0.000977,1.471985 -0.22998,2.834961 -0.691895,4.083008m35.26001,-0.575012c0,0.888977 -0.104004,1.741028 -0.319092,2.531982c-0.220947,0.808044 -0.570068,1.519043 -1.066895,2.147034c-0.488037,0.631958 -1.13208,1.130981 -1.912109,1.500977c-0.783936,0.371033 -1.728027,0.554016 -2.840088,0.554016c-1.102783,0 -2.056885,-0.182983 -2.835938,-0.554016c-0.790039,-0.369995 -1.417969,-0.869019 -1.89502,-1.500977c-0.477051,-0.629028 -0.831055,-1.340027 -1.062012,-2.147034c-0.22998,-0.790955 -0.344971,-1.643982 -0.344971,-2.531982l0,-19.710022l-7.845947,0l0,20.354004c0,1.973022 0.322021,3.765015 0.970947,5.379028c0.645996,1.61499 1.567139,2.994019 2.76709,4.154968c1.199951,1.150024 2.659912,2.052002 4.386963,2.69104c1.720947,0.651978 3.657959,0.979004 5.812012,0.979004c2.124023,0 4.060059,-0.327026 5.794922,-0.979004c1.739014,-0.640015 3.220947,-1.541016 4.450928,-2.69104c1.227051,-1.16095 2.177246,-2.539978 2.834229,-4.154968c0.666992,-1.614014 0.997803,-3.406006 0.997803,-5.379028l0,-20.354004l-7.892822,0l0,19.710022zm37.058838,1.61499l-0.138916,0l-13.104004,-21.323975l-9.000977,0l0,32.675964l7.661865,0l-0.187988,-21.369995l0.140137,0l13.148926,21.369995l8.955078,0l0,-32.677002l-7.660156,0l0.186035,21.325012zm12.111084,-14.585999l9.231934,0l0,25.937988l7.89502,0l0,-25.937988l9.229004,0l0,-6.737976l-26.355957,0l0,6.737976zm49.540039,18.646973c-1.166992,0.615051 -2.531006,0.919006 -4.105957,0.919006c-1.355225,0 -2.598145,-0.242981 -3.738037,-0.730957c-1.13501,-0.498047 -2.113037,-1.184021 -2.930176,-2.058044c-0.810791,-0.878967 -1.449951,-1.93396 -1.911865,-3.161987c-0.464111,-1.229004 -0.693115,-2.580994 -0.693115,-4.062012c0,-1.440979 0.229004,-2.774963 0.693115,-3.98999c0.461914,-1.216003 1.105957,-2.270996 1.937988,-3.162964c0.829102,-0.88501 1.826904,-1.593018 2.979004,-2.102051c1.155029,-0.504944 2.418945,-0.755981 3.808105,-0.755981c1.260986,0 2.49292,0.244995 3.688965,0.738037c1.197021,0.492004 2.167969,1.243958 2.906982,2.263977l5.355957,-5.356018c-1.386963,-1.56897 -3.195068,-2.763977 -5.432129,-3.580994c-2.227783,-0.813965 -4.493896,-1.221008 -6.796875,-1.221008c-2.493896,0 -4.819092,0.401001 -6.973145,1.205017c-2.156982,0.796997 -4.032959,1.945007 -5.629883,3.435974c-1.605957,1.492004 -2.855957,3.301025 -3.762939,5.422058c-0.905029,2.118958 -1.358154,4.491943 -1.358154,7.103943c0,2.555054 0.449219,4.890991 1.332031,7.015991c0.895996,2.126038 2.12915,3.95105 3.701172,5.470032c1.565918,1.523987 3.411865,2.700989 5.553955,3.531006c2.139893,0.830017 4.473877,1.250977 6.99292,1.250977c2.772949,0 5.216064,-0.492981 7.341064,-1.45697c2.118896,-0.971008 3.906006,-2.289001 5.351074,-3.950989l-5.493164,-5.166016c-0.708008,0.982971 -1.642822,1.781006 -2.816895,2.399963m31.919922,-13.014954l-12.741943,0l0,-12.371033l-7.886963,0l0,32.676025l7.886963,0l0,-13.663025l12.741943,0l0,13.663025l7.883057,0l0,-32.676025l-7.883057,0l0,12.371033zm21.596924,6.783997l13.566162,0l0,-6.319031l-13.566162,0l0,-6.184998l14.352051,0l0,-6.649963l-21.966064,0l0,32.675964l22.794189,0l0,-6.735962l-15.180176,0l0,-6.786011zm36.542969,-4.106995l14.078125,-15.048035l-9.874023,0l-11.671875,13.295044l-0.144043,0l0,-13.295044l-7.705078,0l0,32.676025l7.705078,0l0,-15.049011l0.093994,0l12.138916,15.049011l10.290039,0l-14.911133,-17.627991z" fill="#999BA3"/>
    <path id="svg_7" d="m2724.267578,653.555115c0,-3.776978 1.894043,-17.023987 16.552979,-32.565979c14.657959,-15.541016 35.911133,-27.921021 42.573975,-27.921021c2.437988,0 4.220947,11.795044 17.736084,16.286987c4.708984,1.565002 17.748047,4.094055 23.651855,4.655029c5.89917,0.562012 13.13501,-4.234009 11.821045,2.325989c-0.9729,4.887024 -7.417969,6.375 -16.552002,5.815002c-2.916016,-0.182007 -26.910889,-3.393005 -35.477051,-11.632019c-3.212891,-3.090942 -9.383789,-10.811951 -29.562988,6.977051c-5.659912,4.992004 -15.532959,14.691956 -20.104004,24.427002c-1.106934,2.36499 -3.825928,8.529968 -1.182861,9.309998c2.64502,0.781006 20.386963,6.987976 28.384033,12.794006c7.994873,5.802979 14.88501,17.506958 17.738037,8.140991c2.852783,-9.362 6.823975,-17.278015 15.37085,-25.590027c7.530029,-7.32196 17.944092,-13.065002 22.468994,-15.119019c3.029053,-1.378967 7.845947,-0.031982 1.181152,4.653015c-3.268066,2.298035 -19.885986,11.462036 -24.833008,23.260986c-15.619141,37.237 -8.128174,35.098022 -13.885986,34.254028c-5.720215,-0.838989 -17.106201,-15.01001 -23.955078,-21.460022c-5.134033,-4.830994 -12.630127,-9.895996 -20.103027,-12.793945c-5.268066,-2.039063 -11.822998,-1.402039 -11.822998,-5.818054" fill="#385584" clip-rule="evenodd" fill-rule="evenodd"/>
   </g>
  </g>
 </g>
</svg>