<?xml version="1.0" encoding="utf-8"?>
<!-- Generator: Adobe Illustrator 15.0.2, SVG Export Plug-In . SVG Version: 6.00 Build 0)  -->
<!DOCTYPE svg PUBLIC "-//W3C//DTD SVG 1.1//EN" "http://www.w3.org/Graphics/SVG/1.1/DTD/svg11.dtd">
<svg version="1.1" id="Layer_2" xmlns="http://www.w3.org/2000/svg" xmlns:xlink="http://www.w3.org/1999/xlink" x="0px" y="0px"
	 width="478.106px" height="241.375px" viewBox="0 0 478.106 241.375" enable-background="new 0 0 478.106 241.375"
	 xml:space="preserve">
<g>
	<g>
		<path fill="#BDC3C7" d="M476.106,2v210.114H2V2H476.106 M478.106,0H0v214.114h478.106V0L478.106,0z"/>
	</g>
	<g>
		<path fill="#2C3E50" d="M24.661,22.569l1.906-3.763h2.087l-3.031,5.581v3.557h-1.925V24.45l-3.031-5.644h2.1L24.661,22.569z"/>
		<path fill="#2C3E50" d="M36.004,24.438c0,1.137-0.3,2.026-0.899,2.668c-0.601,0.643-1.436,0.963-2.507,0.963
			c-0.671,0-1.262-0.146-1.774-0.44s-0.906-0.716-1.182-1.266c-0.274-0.55-0.412-1.191-0.412-1.925c0-1.142,0.298-2.029,0.894-2.663
			c0.596-0.633,1.434-0.95,2.513-0.95c0.671,0,1.263,0.146,1.774,0.438c0.513,0.292,0.906,0.711,1.182,1.257
			S36.004,23.705,36.004,24.438z M31.173,24.438c0,0.691,0.113,1.214,0.341,1.568c0.227,0.354,0.597,0.531,1.109,0.531
			c0.508,0,0.874-0.176,1.097-0.528c0.223-0.352,0.335-0.876,0.335-1.571c0-0.692-0.113-1.211-0.338-1.557s-0.594-0.519-1.106-0.519
			c-0.508,0-0.875,0.172-1.1,0.516C31.285,23.223,31.173,23.742,31.173,24.438z"/>
		<path fill="#2C3E50" d="M42.529,27.944l-0.257-0.894h-0.1c-0.204,0.325-0.494,0.576-0.869,0.753s-0.802,0.266-1.281,0.266
			c-0.82,0-1.439-0.22-1.855-0.659c-0.417-0.439-0.625-1.072-0.625-1.897v-4.556h1.906v4.081c0,0.504,0.089,0.883,0.269,1.135
			c0.179,0.252,0.464,0.378,0.856,0.378c0.533,0,0.918-0.179,1.156-0.534c0.237-0.356,0.355-0.947,0.355-1.772v-3.287h1.906v6.987
			H42.529z"/>
		<path fill="#2C3E50" d="M49.893,20.825c0.258,0,0.473,0.02,0.644,0.057l-0.144,1.787c-0.154-0.041-0.342-0.062-0.562-0.062
			c-0.608,0-1.083,0.156-1.422,0.469c-0.34,0.312-0.51,0.75-0.51,1.312v3.557h-1.906v-6.987h1.443l0.281,1.175h0.094
			c0.217-0.392,0.51-0.707,0.879-0.947C49.058,20.945,49.459,20.825,49.893,20.825z"/>
		<path fill="#2C3E50" d="M63.386,27.944h-2.462l-3.976-6.912h-0.056c0.079,1.221,0.118,2.092,0.118,2.612v4.3h-1.73v-9.138h2.443
			l3.969,6.844h0.044c-0.062-1.188-0.094-2.026-0.094-2.519v-4.325h1.743V27.944z"/>
		<path fill="#2C3E50" d="M69.974,27.944l-0.369-0.95h-0.05c-0.32,0.404-0.651,0.685-0.99,0.841
			c-0.34,0.156-0.782,0.234-1.328,0.234c-0.671,0-1.199-0.191-1.585-0.575c-0.385-0.383-0.578-0.929-0.578-1.638
			c0-0.741,0.26-1.288,0.778-1.641c0.519-0.352,1.301-0.547,2.347-0.584l1.213-0.037v-0.307c0-0.708-0.362-1.062-1.088-1.062
			c-0.558,0-1.214,0.169-1.969,0.506l-0.631-1.287c0.804-0.421,1.695-0.631,2.675-0.631c0.938,0,1.656,0.204,2.156,0.612
			s0.75,1.029,0.75,1.862v4.656H69.974z M69.411,24.707l-0.737,0.024c-0.555,0.018-0.967,0.117-1.237,0.301
			c-0.271,0.183-0.406,0.462-0.406,0.837c0,0.538,0.308,0.807,0.925,0.807c0.441,0,0.795-0.127,1.06-0.382
			c0.264-0.254,0.396-0.591,0.396-1.012V24.707z"/>
		<path fill="#2C3E50" d="M79.522,27.944h-1.906v-4.081c0-0.504-0.084-0.883-0.253-1.135s-0.435-0.378-0.797-0.378
			c-0.487,0-0.842,0.18-1.062,0.537c-0.221,0.358-0.331,0.948-0.331,1.77v3.287h-1.906v-6.987h1.456l0.257,0.894h0.105
			c0.188-0.32,0.459-0.572,0.812-0.753c0.354-0.182,0.761-0.272,1.219-0.272c1.046,0,1.755,0.342,2.125,1.025h0.169
			c0.188-0.325,0.464-0.577,0.828-0.756c0.364-0.18,0.776-0.27,1.234-0.27c0.792,0,1.391,0.203,1.797,0.609s0.609,1.058,0.609,1.953
			v4.557h-1.912v-4.081c0-0.504-0.085-0.883-0.253-1.135c-0.169-0.252-0.435-0.378-0.797-0.378c-0.467,0-0.816,0.167-1.047,0.5
			c-0.231,0.333-0.348,0.862-0.348,1.588V27.944z"/>
		<path fill="#2C3E50" d="M88.998,28.069c-1.125,0-2.004-0.311-2.637-0.932c-0.634-0.62-0.95-1.5-0.95-2.637
			c0-1.171,0.292-2.076,0.878-2.716c0.585-0.64,1.395-0.96,2.428-0.96c0.988,0,1.757,0.281,2.307,0.844s0.825,1.34,0.825,2.332
			v0.925h-4.507c0.021,0.542,0.182,0.965,0.481,1.269c0.3,0.305,0.721,0.456,1.263,0.456c0.421,0,0.818-0.044,1.193-0.131
			c0.375-0.088,0.767-0.228,1.176-0.419v1.475c-0.334,0.167-0.69,0.291-1.069,0.372S89.544,28.069,88.998,28.069z M88.729,22.182
			c-0.404,0-0.721,0.128-0.95,0.385c-0.229,0.256-0.36,0.62-0.394,1.091h2.675c-0.008-0.471-0.131-0.835-0.368-1.091
			C89.455,22.31,89.134,22.182,88.729,22.182z"/>
		<path fill="#2C3E50" d="M24.661,37.93l1.906-3.763h2.087l-3.031,5.581v3.557h-1.925v-3.494l-3.031-5.644h2.1L24.661,37.93z"/>
		<path fill="#2C3E50" d="M36.004,39.799c0,1.137-0.3,2.026-0.899,2.668c-0.601,0.643-1.436,0.963-2.507,0.963
			c-0.671,0-1.262-0.146-1.774-0.44s-0.906-0.716-1.182-1.266c-0.274-0.55-0.412-1.191-0.412-1.925c0-1.142,0.298-2.029,0.894-2.663
			c0.596-0.633,1.434-0.95,2.513-0.95c0.671,0,1.263,0.146,1.774,0.438c0.513,0.292,0.906,0.711,1.182,1.257
			S36.004,39.065,36.004,39.799z M31.173,39.799c0,0.691,0.113,1.214,0.341,1.568c0.227,0.354,0.597,0.531,1.109,0.531
			c0.508,0,0.874-0.176,1.097-0.528c0.223-0.352,0.335-0.876,0.335-1.571c0-0.692-0.113-1.211-0.338-1.557s-0.594-0.519-1.106-0.519
			c-0.508,0-0.875,0.172-1.1,0.516C31.285,38.583,31.173,39.103,31.173,39.799z"/>
		<path fill="#2C3E50" d="M42.529,43.305l-0.257-0.894h-0.1c-0.204,0.325-0.494,0.576-0.869,0.753s-0.802,0.266-1.281,0.266
			c-0.82,0-1.439-0.22-1.855-0.659c-0.417-0.439-0.625-1.072-0.625-1.897v-4.556h1.906v4.081c0,0.504,0.089,0.883,0.269,1.135
			c0.179,0.252,0.464,0.378,0.856,0.378c0.533,0,0.918-0.179,1.156-0.534c0.237-0.356,0.355-0.947,0.355-1.772v-3.287h1.906v6.987
			H42.529z"/>
		<path fill="#2C3E50" d="M49.893,36.186c0.258,0,0.473,0.02,0.644,0.057l-0.144,1.787c-0.154-0.041-0.342-0.062-0.562-0.062
			c-0.608,0-1.083,0.156-1.422,0.469c-0.34,0.312-0.51,0.75-0.51,1.312v3.557h-1.906v-6.987h1.443l0.281,1.175h0.094
			c0.217-0.392,0.51-0.707,0.879-0.947C49.058,36.306,49.459,36.186,49.893,36.186z"/>
		<path fill="#2C3E50" d="M60.874,43.305l-0.663-2.175H56.88l-0.662,2.175H54.13l3.225-9.175h2.369l3.237,9.175H60.874z
			 M59.749,39.505c-0.613-1.971-0.958-3.086-1.035-3.344c-0.077-0.259-0.132-0.463-0.165-0.612
			c-0.138,0.533-0.531,1.852-1.182,3.956H59.749z"/>
		<path fill="#2C3E50" d="M66.174,43.43c-0.821,0-1.466-0.318-1.935-0.956s-0.703-1.521-0.703-2.65c0-1.146,0.238-2.038,0.716-2.678
			c0.477-0.64,1.134-0.96,1.972-0.96c0.879,0,1.55,0.342,2.013,1.025h0.062c-0.097-0.521-0.145-0.985-0.145-1.394V33.58h1.913v9.725
			h-1.463l-0.368-0.906h-0.082C67.722,43.086,67.061,43.43,66.174,43.43z M66.842,41.911c0.488,0,0.845-0.142,1.072-0.425
			c0.227-0.283,0.351-0.765,0.372-1.444v-0.206c0-0.75-0.116-1.287-0.347-1.612c-0.231-0.325-0.607-0.487-1.129-0.487
			c-0.425,0-0.755,0.18-0.99,0.54s-0.354,0.885-0.354,1.572s0.119,1.203,0.356,1.547S66.4,41.911,66.842,41.911z"/>
		<path fill="#2C3E50" d="M74.273,43.43c-0.821,0-1.466-0.318-1.935-0.956s-0.703-1.521-0.703-2.65c0-1.146,0.238-2.038,0.716-2.678
			c0.477-0.64,1.134-0.96,1.972-0.96c0.879,0,1.55,0.342,2.013,1.025h0.062c-0.097-0.521-0.145-0.985-0.145-1.394V33.58h1.913v9.725
			h-1.463l-0.368-0.906h-0.082C75.821,43.086,75.16,43.43,74.273,43.43z M74.941,41.911c0.488,0,0.845-0.142,1.072-0.425
			c0.227-0.283,0.351-0.765,0.372-1.444v-0.206c0-0.75-0.116-1.287-0.347-1.612c-0.231-0.325-0.607-0.487-1.129-0.487
			c-0.425,0-0.755,0.18-0.99,0.54s-0.354,0.885-0.354,1.572s0.119,1.203,0.356,1.547S74.5,41.911,74.941,41.911z"/>
		<path fill="#2C3E50" d="M84.062,36.186c0.258,0,0.473,0.02,0.644,0.057l-0.144,1.787c-0.154-0.041-0.342-0.062-0.562-0.062
			c-0.608,0-1.083,0.156-1.422,0.469c-0.34,0.312-0.51,0.75-0.51,1.312v3.557h-1.906v-6.987h1.443l0.281,1.175h0.094
			c0.217-0.392,0.51-0.707,0.879-0.947C83.227,36.306,83.628,36.186,84.062,36.186z"/>
		<path fill="#2C3E50" d="M89.136,43.43c-1.125,0-2.004-0.311-2.637-0.932c-0.634-0.62-0.95-1.5-0.95-2.637
			c0-1.171,0.292-2.076,0.878-2.716c0.585-0.64,1.395-0.96,2.428-0.96c0.988,0,1.757,0.281,2.307,0.844s0.825,1.34,0.825,2.332
			v0.925h-4.507c0.021,0.542,0.182,0.965,0.481,1.269c0.3,0.305,0.721,0.456,1.263,0.456c0.421,0,0.818-0.044,1.193-0.131
			c0.375-0.088,0.767-0.228,1.176-0.419v1.475c-0.334,0.167-0.69,0.291-1.069,0.372S89.682,43.43,89.136,43.43z M88.867,37.542
			c-0.404,0-0.721,0.128-0.95,0.385c-0.229,0.256-0.36,0.62-0.394,1.091h2.675c-0.008-0.471-0.131-0.835-0.368-1.091
			C89.593,37.67,89.271,37.542,88.867,37.542z"/>
		<path fill="#2C3E50" d="M98.411,41.229c0,0.717-0.249,1.263-0.747,1.638s-1.242,0.562-2.234,0.562c-0.508,0-0.941-0.034-1.3-0.104
			c-0.358-0.068-0.693-0.169-1.006-0.303v-1.575c0.354,0.167,0.753,0.307,1.196,0.419c0.444,0.112,0.835,0.169,1.172,0.169
			c0.691,0,1.038-0.2,1.038-0.601c0-0.149-0.046-0.271-0.138-0.365s-0.25-0.2-0.476-0.318c-0.225-0.119-0.524-0.258-0.899-0.416
			c-0.538-0.225-0.933-0.434-1.185-0.625s-0.436-0.411-0.55-0.659c-0.115-0.248-0.172-0.554-0.172-0.916
			c0-0.62,0.24-1.101,0.722-1.44s1.163-0.51,2.047-0.51c0.842,0,1.66,0.184,2.456,0.551l-0.575,1.375
			c-0.35-0.15-0.677-0.273-0.98-0.369c-0.305-0.096-0.615-0.144-0.932-0.144c-0.562,0-0.844,0.152-0.844,0.456
			c0,0.171,0.091,0.318,0.271,0.443c0.182,0.125,0.578,0.311,1.191,0.557c0.545,0.221,0.945,0.427,1.199,0.619
			c0.255,0.191,0.442,0.412,0.562,0.662C98.351,40.586,98.411,40.884,98.411,41.229z"/>
		<path fill="#2C3E50" d="M104.773,41.229c0,0.717-0.249,1.263-0.747,1.638s-1.242,0.562-2.234,0.562
			c-0.508,0-0.941-0.034-1.3-0.104c-0.358-0.068-0.693-0.169-1.006-0.303v-1.575c0.354,0.167,0.753,0.307,1.196,0.419
			c0.444,0.112,0.835,0.169,1.172,0.169c0.691,0,1.038-0.2,1.038-0.601c0-0.149-0.046-0.271-0.138-0.365s-0.25-0.2-0.476-0.318
			c-0.225-0.119-0.524-0.258-0.899-0.416c-0.538-0.225-0.933-0.434-1.185-0.625s-0.436-0.411-0.55-0.659
			c-0.115-0.248-0.172-0.554-0.172-0.916c0-0.62,0.24-1.101,0.722-1.44s1.163-0.51,2.047-0.51c0.842,0,1.66,0.184,2.456,0.551
			l-0.575,1.375c-0.35-0.15-0.677-0.273-0.98-0.369c-0.305-0.096-0.615-0.144-0.932-0.144c-0.562,0-0.844,0.152-0.844,0.456
			c0,0.171,0.091,0.318,0.271,0.443c0.182,0.125,0.578,0.311,1.191,0.557c0.545,0.221,0.945,0.427,1.199,0.619
			c0.255,0.191,0.442,0.412,0.562,0.662C104.713,40.586,104.773,40.884,104.773,41.229z"/>
	</g>
	<g>
		<path fill="#2C3E50" d="M426.433,30.687h-1.266v-8.141c0-0.677,0.021-1.317,0.062-1.922c-0.109,0.109-0.231,0.224-0.367,0.344
			s-0.755,0.628-1.859,1.523l-0.688-0.891l3.023-2.336h1.094V30.687z"/>
		<path fill="#2C3E50" d="M438.347,24.96c0,1.974-0.312,3.448-0.934,4.422s-1.574,1.461-2.855,1.461
			c-1.229,0-2.164-0.499-2.805-1.496s-0.961-2.46-0.961-4.387c0-1.989,0.31-3.466,0.93-4.43s1.565-1.445,2.836-1.445
			c1.239,0,2.181,0.503,2.824,1.508S438.347,23.054,438.347,24.96z M432.104,24.96c0,1.661,0.195,2.871,0.586,3.629
			s1.013,1.137,1.867,1.137c0.864,0,1.491-0.384,1.879-1.152s0.582-1.973,0.582-3.613s-0.194-2.843-0.582-3.605
			s-1.015-1.145-1.879-1.145c-0.854,0-1.477,0.376-1.867,1.129S432.104,23.299,432.104,24.96z"/>
		<path fill="#2C3E50" d="M447.495,24.96c0,1.974-0.312,3.448-0.934,4.422s-1.574,1.461-2.855,1.461
			c-1.229,0-2.164-0.499-2.805-1.496s-0.961-2.46-0.961-4.387c0-1.989,0.31-3.466,0.93-4.43s1.565-1.445,2.836-1.445
			c1.239,0,2.181,0.503,2.824,1.508S447.495,23.054,447.495,24.96z M441.253,24.96c0,1.661,0.195,2.871,0.586,3.629
			s1.013,1.137,1.867,1.137c0.864,0,1.491-0.384,1.879-1.152s0.582-1.973,0.582-3.613s-0.194-2.843-0.582-3.605
			s-1.015-1.145-1.879-1.145c-0.854,0-1.477,0.376-1.867,1.129S441.253,23.299,441.253,24.96z"/>
		<path fill="#2C3E50" d="M453.878,30.687h-1.266v-8.141c0-0.677,0.021-1.317,0.062-1.922c-0.109,0.109-0.231,0.224-0.367,0.344
			s-0.755,0.628-1.859,1.523l-0.688-0.891l3.023-2.336h1.094V30.687z"/>
	</g>
	<g>
		<path fill="#2C3E50" d="M24.661,138.897l1.906-3.763h2.087l-3.031,5.581v3.556h-1.925v-3.494l-3.031-5.644h2.1L24.661,138.897z"/>
		<path fill="#2C3E50" d="M36.004,140.767c0,1.136-0.3,2.027-0.899,2.667c-0.601,0.643-1.436,0.963-2.507,0.963
			c-0.671,0-1.262-0.146-1.774-0.439c-0.513-0.295-0.906-0.717-1.182-1.266c-0.274-0.551-0.412-1.192-0.412-1.925
			c0-1.142,0.298-2.029,0.894-2.663c0.596-0.633,1.434-0.95,2.513-0.95c0.671,0,1.263,0.146,1.774,0.438
			c0.513,0.292,0.906,0.711,1.182,1.257S36.004,140.033,36.004,140.767z M31.173,140.767c0,0.691,0.113,1.214,0.341,1.568
			c0.227,0.355,0.597,0.531,1.109,0.531c0.508,0,0.874-0.176,1.097-0.527s0.335-0.876,0.335-1.572c0-0.692-0.113-1.211-0.338-1.557
			s-0.594-0.519-1.106-0.519c-0.508,0-0.875,0.172-1.1,0.516C31.285,139.551,31.173,140.07,31.173,140.767z"/>
		<path fill="#2C3E50" d="M42.529,144.272l-0.257-0.893h-0.1c-0.204,0.324-0.494,0.576-0.869,0.752
			c-0.375,0.178-0.802,0.266-1.281,0.266c-0.82,0-1.439-0.219-1.855-0.658c-0.417-0.439-0.625-1.072-0.625-1.898v-4.556h1.906v4.081
			c0,0.504,0.089,0.882,0.269,1.134c0.179,0.252,0.464,0.379,0.856,0.379c0.533,0,0.918-0.18,1.156-0.535
			c0.237-0.355,0.355-0.947,0.355-1.772v-3.287h1.906v6.987H42.529z"/>
		<path fill="#2C3E50" d="M49.893,137.153c0.258,0,0.473,0.02,0.644,0.057l-0.144,1.787c-0.154-0.041-0.342-0.062-0.562-0.062
			c-0.608,0-1.083,0.156-1.422,0.469c-0.34,0.312-0.51,0.75-0.51,1.312v3.556h-1.906v-6.987h1.443l0.281,1.175h0.094
			c0.217-0.392,0.51-0.707,0.879-0.947C49.058,137.273,49.459,137.153,49.893,137.153z"/>
		<path fill="#2C3E50" d="M55.28,135.135h2.844c1.295,0,2.236,0.185,2.821,0.554c0.586,0.368,0.878,0.955,0.878,1.759
			c0,0.546-0.128,0.994-0.384,1.344c-0.257,0.351-0.597,0.561-1.022,0.632v0.062c0.579,0.129,0.997,0.37,1.254,0.725
			c0.256,0.354,0.384,0.825,0.384,1.412c0,0.833-0.301,1.484-0.903,1.951c-0.602,0.467-1.42,0.699-2.453,0.699H55.28V135.135z
			 M57.218,138.754h1.125c0.524,0,0.904-0.081,1.141-0.244c0.235-0.162,0.353-0.431,0.353-0.806c0-0.351-0.128-0.602-0.384-0.754
			c-0.257-0.151-0.662-0.228-1.216-0.228h-1.019V138.754z M57.218,140.291v2.381h1.262c0.533,0,0.928-0.102,1.182-0.307
			c0.254-0.203,0.381-0.516,0.381-0.937c0-0.758-0.541-1.138-1.625-1.138H57.218z"/>
		<path fill="#2C3E50" d="M68.167,144.272l-0.369-0.949h-0.05c-0.32,0.404-0.651,0.684-0.99,0.84
			c-0.34,0.156-0.782,0.234-1.328,0.234c-0.671,0-1.199-0.191-1.585-0.574c-0.385-0.383-0.578-0.93-0.578-1.639
			c0-0.741,0.26-1.288,0.778-1.64c0.519-0.352,1.301-0.547,2.347-0.584l1.213-0.037v-0.307c0-0.708-0.362-1.062-1.088-1.062
			c-0.558,0-1.214,0.169-1.969,0.506l-0.631-1.287c0.804-0.421,1.695-0.631,2.675-0.631c0.938,0,1.656,0.204,2.156,0.612
			s0.75,1.029,0.75,1.862v4.656H68.167z M67.604,141.035l-0.737,0.024c-0.555,0.018-0.967,0.117-1.237,0.301
			c-0.271,0.183-0.406,0.462-0.406,0.837c0,0.537,0.308,0.807,0.925,0.807c0.441,0,0.795-0.127,1.06-0.383
			c0.264-0.254,0.396-0.59,0.396-1.011V141.035z"/>
		<path fill="#2C3E50" d="M77.911,144.272h-1.906v-4.081c0-0.504-0.09-0.883-0.269-1.135c-0.18-0.252-0.465-0.378-0.856-0.378
			c-0.533,0-0.919,0.178-1.156,0.534s-0.356,0.947-0.356,1.772v3.287h-1.906v-6.987h1.456l0.257,0.894h0.105
			c0.213-0.338,0.506-0.593,0.879-0.766c0.372-0.173,0.797-0.26,1.271-0.26c0.812,0,1.429,0.221,1.85,0.66s0.632,1.073,0.632,1.902
			V144.272z"/>
		<path fill="#2C3E50" d="M81.704,140.473l0.831-1.062l1.957-2.125h2.149l-2.774,3.031l2.943,3.956h-2.2l-2.013-2.831l-0.818,0.657
			v2.174h-1.906v-9.724h1.906v4.337l-0.1,1.588H81.704z"/>
		<path fill="#2C3E50" d="M99.392,144.272H96.93l-3.976-6.912h-0.056c0.079,1.221,0.118,2.092,0.118,2.612v4.299h-1.73v-9.137h2.443
			l3.969,6.844h0.044c-0.062-1.188-0.094-2.027-0.094-2.519v-4.325h1.743V144.272z"/>
		<path fill="#2C3E50" d="M105.979,144.272l-0.369-0.949h-0.05c-0.32,0.404-0.651,0.684-0.99,0.84
			c-0.34,0.156-0.782,0.234-1.328,0.234c-0.671,0-1.199-0.191-1.585-0.574c-0.385-0.383-0.578-0.93-0.578-1.639
			c0-0.741,0.26-1.288,0.778-1.64c0.519-0.352,1.301-0.547,2.347-0.584l1.213-0.037v-0.307c0-0.708-0.362-1.062-1.088-1.062
			c-0.558,0-1.214,0.169-1.969,0.506l-0.631-1.287c0.804-0.421,1.695-0.631,2.675-0.631c0.938,0,1.656,0.204,2.156,0.612
			s0.75,1.029,0.75,1.862v4.656H105.979z M105.417,141.035l-0.737,0.024c-0.555,0.018-0.967,0.117-1.237,0.301
			c-0.271,0.183-0.406,0.462-0.406,0.837c0,0.537,0.308,0.807,0.925,0.807c0.441,0,0.795-0.127,1.06-0.383
			c0.264-0.254,0.396-0.59,0.396-1.011V141.035z"/>
		<path fill="#2C3E50" d="M115.529,144.272h-1.906v-4.081c0-0.504-0.084-0.883-0.253-1.135s-0.435-0.378-0.797-0.378
			c-0.487,0-0.842,0.18-1.062,0.537c-0.221,0.358-0.331,0.948-0.331,1.77v3.287h-1.906v-6.987h1.456l0.257,0.894h0.105
			c0.188-0.32,0.459-0.572,0.812-0.753c0.354-0.182,0.761-0.272,1.219-0.272c1.046,0,1.755,0.342,2.125,1.025h0.169
			c0.188-0.325,0.464-0.577,0.828-0.756c0.364-0.18,0.776-0.27,1.234-0.27c0.792,0,1.391,0.203,1.797,0.609s0.609,1.058,0.609,1.953
			v4.556h-1.912v-4.081c0-0.504-0.085-0.883-0.253-1.135c-0.169-0.252-0.435-0.378-0.797-0.378c-0.467,0-0.816,0.167-1.047,0.5
			c-0.231,0.333-0.348,0.862-0.348,1.588V144.272z"/>
		<path fill="#2C3E50" d="M125.004,144.397c-1.125,0-2.004-0.311-2.637-0.932c-0.634-0.619-0.95-1.5-0.95-2.636
			c0-1.171,0.292-2.076,0.878-2.716c0.585-0.64,1.395-0.96,2.428-0.96c0.988,0,1.757,0.281,2.307,0.844s0.825,1.34,0.825,2.332
			v0.925h-4.507c0.021,0.542,0.182,0.965,0.481,1.268c0.3,0.305,0.721,0.457,1.263,0.457c0.421,0,0.818-0.045,1.193-0.131
			c0.375-0.088,0.767-0.229,1.176-0.42v1.475c-0.334,0.168-0.69,0.291-1.069,0.373C126.013,144.356,125.55,144.397,125.004,144.397z
			 M124.735,138.51c-0.404,0-0.721,0.128-0.95,0.385c-0.229,0.256-0.36,0.62-0.394,1.091h2.675
			c-0.008-0.471-0.131-0.835-0.368-1.091C125.461,138.638,125.14,138.51,124.735,138.51z"/>
	</g>
	<g>
		<g>
			<path fill="#2C3E50" d="M295.258,54.459c0,0.966-0.269,1.704-0.805,2.215c-0.535,0.511-1.308,0.766-2.315,0.766h-1.636v-5.848
				h1.808c0.931,0,1.654,0.25,2.172,0.752C294.999,52.845,295.258,53.55,295.258,54.459z M294.249,54.491
				c0-1.399-0.654-2.1-1.964-2.1h-0.828v4.244h0.681C293.546,56.636,294.249,55.921,294.249,54.491z"/>
			<path fill="#2C3E50" d="M300.142,57.439l-0.584-1.624h-2.236l-0.572,1.624h-1.008l2.188-5.872h1.039l2.188,5.872H300.142z
				 M299.306,54.991l-0.549-1.592c-0.04-0.106-0.095-0.274-0.166-0.504c-0.07-0.229-0.119-0.397-0.146-0.504
				c-0.072,0.328-0.178,0.687-0.316,1.076l-0.527,1.523H299.306z"/>
			<path fill="#2C3E50" d="M303.949,57.439h-0.956v-5.028h-1.72v-0.819h4.396v0.819h-1.72V57.439z"/>
			<path fill="#2C3E50" d="M309.874,57.439h-3.308v-5.848h3.308v0.808h-2.353v1.592h2.204v0.8h-2.204v1.837h2.353V57.439z"/>
		</g>
		<g>
			<rect x="289.729" y="60.845" fill="#95A5A6" width="131.456" height="1"/>
		</g>
	</g>
	<g>
		<g>
			<g>
				<path fill="#2C3E50" d="M17.88,177.463l-1.696-4.883h-0.031c0.045,0.725,0.067,1.404,0.067,2.039v2.844h-0.867v-5.848H16.7
					l1.624,4.652h0.023l1.673-4.652h1.352v5.848h-0.92v-2.891c0-0.291,0.007-0.67,0.021-1.137s0.027-0.75,0.038-0.848H20.48
					l-1.757,4.875H17.88z"/>
				<path fill="#2C3E50" d="M26.22,177.463h-3.308v-5.848h3.308v0.809h-2.353v1.592h2.204v0.799h-2.204v1.838h2.353V177.463z"/>
				<path fill="#2C3E50" d="M30.012,177.463l-1.696-4.883h-0.031c0.045,0.725,0.067,1.404,0.067,2.039v2.844h-0.867v-5.848h1.348
					l1.624,4.652h0.023l1.673-4.652h1.352v5.848h-0.92v-2.891c0-0.291,0.007-0.67,0.021-1.137s0.027-0.75,0.038-0.848h-0.031
					l-1.757,4.875H30.012z"/>
				<path fill="#2C3E50" d="M40.236,174.532c0,0.951-0.238,1.691-0.714,2.221c-0.476,0.527-1.15,0.791-2.022,0.791
					c-0.882,0-1.561-0.262-2.033-0.785c-0.474-0.525-0.71-1.27-0.71-2.234s0.237-1.707,0.714-2.225
					c0.476-0.518,1.155-0.775,2.038-0.775c0.869,0,1.541,0.262,2.016,0.787S40.236,173.577,40.236,174.532z M35.772,174.532
					c0,0.721,0.146,1.266,0.436,1.639c0.291,0.371,0.722,0.557,1.292,0.557c0.568,0,0.997-0.184,1.286-0.551
					c0.29-0.369,0.435-0.916,0.435-1.645c0-0.717-0.144-1.262-0.431-1.633c-0.286-0.369-0.714-0.555-1.281-0.555
					c-0.573,0-1.006,0.186-1.298,0.555C35.919,173.27,35.772,173.815,35.772,174.532z"/>
			</g>
			<g>
				<rect x="14.58" y="180.868" fill="#95A5A6" width="182.967" height="1"/>
			</g>
		</g>
		<g>
			<g>
				<rect x="227.212" y="180.868" fill="#95A5A6" width="236.313" height="1"/>
			</g>
		</g>
	</g>
	<g>
		<g>
			<path fill="#95A5A6" d="M464.525,97.562h-73.982V77.88h73.982V97.562z M392.543,95.562h69.982V79.88h-69.982V95.562z"/>
		</g>
		<g>
			<path fill="#2C3E50" d="M19.224,83.474c0,0.61-0.199,1.079-0.6,1.404s-0.97,0.487-1.708,0.487h-0.608v2.188h-0.955v-5.848h1.684
				c0.73,0,1.278,0.149,1.642,0.447C19.042,82.452,19.224,82.893,19.224,83.474z M16.308,84.562h0.509
				c0.49,0,0.851-0.085,1.08-0.256c0.229-0.171,0.344-0.438,0.344-0.8c0-0.336-0.103-0.587-0.309-0.752
				c-0.205-0.165-0.525-0.248-0.96-0.248h-0.664V84.562z"/>
			<path fill="#2C3E50" d="M24.021,87.554l-0.584-1.624H21.2l-0.572,1.624H19.62l2.188-5.872h1.039l2.188,5.872H24.021z
				 M23.185,85.105l-0.549-1.592c-0.04-0.106-0.095-0.274-0.166-0.504c-0.07-0.229-0.119-0.397-0.146-0.504
				c-0.072,0.328-0.178,0.687-0.316,1.076l-0.527,1.523H23.185z"/>
			<path fill="#2C3E50" d="M27.46,84.374l1.384-2.668h1.04l-1.947,3.58v2.268h-0.96v-2.236l-1.94-3.611h1.04L27.46,84.374z"/>
			<path fill="#2C3E50" d="M34.804,87.554h-0.956v-5.028h-1.72v-0.819h4.396v0.819h-1.72V87.554z"/>
			<path fill="#2C3E50" d="M42.612,84.622c0,0.951-0.238,1.691-0.714,2.22s-1.15,0.792-2.022,0.792
				c-0.882,0-1.561-0.262-2.033-0.786c-0.474-0.524-0.71-1.269-0.71-2.234c0-0.965,0.237-1.706,0.714-2.224
				c0.476-0.518,1.155-0.776,2.038-0.776c0.869,0,1.541,0.263,2.016,0.788S42.612,83.667,42.612,84.622z M38.148,84.622
				c0,0.72,0.146,1.266,0.436,1.638c0.291,0.372,0.722,0.558,1.292,0.558c0.568,0,0.997-0.184,1.286-0.552
				c0.29-0.368,0.435-0.916,0.435-1.644c0-0.718-0.144-1.262-0.431-1.633c-0.286-0.37-0.714-0.556-1.281-0.556
				c-0.573,0-1.006,0.186-1.298,0.556C38.295,83.36,38.148,83.904,38.148,84.622z"/>
			<path fill="#2C3E50" d="M48.016,87.554H47.06v-5.028h-1.72v-0.819h4.396v0.819h-1.72V87.554z"/>
			<path fill="#2C3E50" d="M55.244,87.554h-0.96v-2.636h-2.696v2.636h-0.955v-5.848h0.955v2.392h2.696v-2.392h0.96V87.554z"/>
			<path fill="#2C3E50" d="M60.092,87.554h-3.308v-5.848h3.308v0.808h-2.353v1.592h2.204v0.8h-2.204v1.837h2.353V87.554z"/>
			<path fill="#2C3E50" d="M20.544,94.452c0,0.951-0.238,1.691-0.714,2.22s-1.15,0.792-2.022,0.792
				c-0.882,0-1.561-0.262-2.033-0.786c-0.474-0.524-0.71-1.269-0.71-2.234c0-0.965,0.237-1.706,0.714-2.224
				c0.476-0.518,1.155-0.776,2.038-0.776c0.869,0,1.541,0.263,2.016,0.788S20.544,93.497,20.544,94.452z M16.08,94.452
				c0,0.72,0.146,1.266,0.436,1.638c0.291,0.372,0.722,0.558,1.292,0.558c0.568,0,0.997-0.184,1.286-0.552
				c0.29-0.368,0.435-0.916,0.435-1.644c0-0.718-0.144-1.262-0.431-1.633c-0.286-0.37-0.714-0.556-1.281-0.556
				c-0.573,0-1.006,0.186-1.298,0.556C16.227,93.19,16.08,93.734,16.08,94.452z"/>
			<path fill="#2C3E50" d="M22.756,95.048v2.336h-0.955v-5.848h1.651c0.755,0,1.313,0.141,1.676,0.424
				c0.363,0.282,0.544,0.709,0.544,1.28c0,0.728-0.378,1.246-1.136,1.556l1.652,2.588h-1.088l-1.4-2.336H22.756z M22.756,94.256
				h0.664c0.445,0,0.769-0.083,0.969-0.248c0.199-0.165,0.3-0.411,0.3-0.736c0-0.33-0.108-0.567-0.324-0.712
				c-0.216-0.144-0.541-0.216-0.976-0.216h-0.633V94.256z"/>
			<path fill="#2C3E50" d="M31.792,94.403c0,0.966-0.269,1.704-0.805,2.215c-0.535,0.511-1.308,0.766-2.315,0.766h-1.636v-5.848
				h1.808c0.931,0,1.654,0.25,2.172,0.752C31.533,92.789,31.792,93.494,31.792,94.403z M30.783,94.436c0-1.399-0.654-2.1-1.964-2.1
				h-0.828v4.244h0.681C30.08,96.58,30.783,95.865,30.783,94.436z"/>
			<path fill="#2C3E50" d="M36.356,97.384h-3.308v-5.848h3.308v0.808h-2.353v1.592h2.204v0.8h-2.204v1.837h2.353V97.384z"/>
			<path fill="#2C3E50" d="M38.575,95.048v2.336H37.62v-5.848h1.651c0.755,0,1.313,0.141,1.676,0.424
				c0.363,0.282,0.544,0.709,0.544,1.28c0,0.728-0.378,1.246-1.136,1.556l1.652,2.588H40.92l-1.4-2.336H38.575z M38.575,94.256
				h0.664c0.445,0,0.769-0.083,0.969-0.248c0.199-0.165,0.3-0.411,0.3-0.736c0-0.33-0.108-0.567-0.324-0.712
				c-0.216-0.144-0.541-0.216-0.976-0.216h-0.633V94.256z"/>
			<path fill="#2C3E50" d="M50.176,94.452c0,0.951-0.238,1.691-0.714,2.22s-1.15,0.792-2.022,0.792
				c-0.882,0-1.561-0.262-2.033-0.786c-0.474-0.524-0.71-1.269-0.71-2.234c0-0.965,0.237-1.706,0.714-2.224
				c0.476-0.518,1.155-0.776,2.038-0.776c0.869,0,1.541,0.263,2.016,0.788S50.176,93.497,50.176,94.452z M45.712,94.452
				c0,0.72,0.146,1.266,0.436,1.638c0.291,0.372,0.722,0.558,1.292,0.558c0.568,0,0.997-0.184,1.286-0.552
				c0.29-0.368,0.435-0.916,0.435-1.644c0-0.718-0.144-1.262-0.431-1.633c-0.286-0.37-0.714-0.556-1.281-0.556
				c-0.573,0-1.006,0.186-1.298,0.556C45.858,93.19,45.712,93.734,45.712,94.452z"/>
			<path fill="#2C3E50" d="M52.38,97.384h-0.947v-5.848h3.3v0.808H52.38v1.828h2.204v0.812H52.38V97.384z"/>
		</g>
		<g>
			<g>
				<path fill="#2C3E50" d="M386.875,90.304c0,0.944-0.344,1.722-1.035,2.334c-0.689,0.612-1.686,0.989-2.988,1.133v2.119h-1.299
					v-2.061c-1.613-0.026-2.939-0.273-3.975-0.742v-2.061c0.561,0.273,1.215,0.503,1.963,0.688c0.75,0.186,1.42,0.281,2.012,0.288
					v-3.652l-0.82-0.303c-1.066-0.41-1.848-0.9-2.338-1.47c-0.492-0.569-0.738-1.274-0.738-2.114c0-0.898,0.35-1.638,1.051-2.217
					c0.699-0.579,1.648-0.931,2.846-1.055v-1.641h1.299v1.611c1.322,0.046,2.576,0.312,3.76,0.801l-0.713,1.787
					c-1.021-0.403-2.037-0.645-3.047-0.723v3.555l0.742,0.283c1.238,0.476,2.094,0.977,2.568,1.504
					C386.639,88.897,386.875,89.542,386.875,90.304z M379.951,84.444c0,0.371,0.115,0.681,0.348,0.928
					c0.23,0.247,0.648,0.491,1.254,0.732v-3.037c-0.52,0.078-0.918,0.237-1.191,0.479S379.951,84.086,379.951,84.444z M384.57,90.45
					c0-0.378-0.131-0.688-0.395-0.933s-0.705-0.48-1.324-0.708v3.115C383.998,91.749,384.57,91.258,384.57,90.45z"/>
			</g>
		</g>
		<g>
			<polygon fill="#95A5A6" points="367.867,97.193 63.363,97.193 63.363,96.193 366.867,96.193 366.867,87.555 367.867,87.555 			
				"/>
		</g>
		<g>
			<rect x="14.58" y="118.211" fill="#95A5A6" width="406.605" height="1"/>
		</g>
		<g>
			<g>
				<path fill="#2C3E50" d="M390.218,111.825c0,0.966-0.269,1.704-0.805,2.215c-0.535,0.511-1.308,0.766-2.315,0.766h-1.636v-5.848
					h1.808c0.931,0,1.654,0.25,2.172,0.752C389.959,110.211,390.218,110.916,390.218,111.825z M389.209,111.857
					c0-1.399-0.654-2.1-1.964-2.1h-0.828v4.244h0.681C388.506,114.002,389.209,113.287,389.209,111.857z"/>
				<path fill="#2C3E50" d="M396.665,111.874c0,0.951-0.238,1.691-0.714,2.22s-1.15,0.792-2.022,0.792
					c-0.882,0-1.561-0.262-2.033-0.786c-0.474-0.524-0.71-1.269-0.71-2.234c0-0.965,0.237-1.706,0.714-2.224
					c0.476-0.518,1.155-0.776,2.038-0.776c0.869,0,1.541,0.263,2.016,0.788S396.665,110.919,396.665,111.874z M392.201,111.874
					c0,0.72,0.146,1.266,0.436,1.638c0.291,0.372,0.722,0.558,1.292,0.558c0.568,0,0.997-0.184,1.286-0.552
					c0.29-0.368,0.435-0.916,0.435-1.644c0-0.718-0.144-1.262-0.431-1.633c-0.286-0.37-0.714-0.556-1.281-0.556
					c-0.573,0-1.006,0.186-1.298,0.556C392.348,110.612,392.201,111.156,392.201,111.874z"/>
				<path fill="#2C3E50" d="M397.922,114.806v-5.848h0.955v5.027h2.477v0.82H397.922z"/>
				<path fill="#2C3E50" d="M402.362,114.806v-5.848h0.955v5.027h2.477v0.82H402.362z"/>
				<path fill="#2C3E50" d="M410.43,114.806l-0.584-1.624h-2.236l-0.572,1.624h-1.008l2.188-5.872h1.039l2.188,5.872H410.43z
					 M409.594,112.357l-0.549-1.592c-0.04-0.106-0.095-0.274-0.166-0.504c-0.07-0.229-0.119-0.397-0.146-0.504
					c-0.072,0.328-0.178,0.687-0.316,1.076l-0.527,1.523H409.594z"/>
				<path fill="#2C3E50" d="M413.173,112.47v2.336h-0.955v-5.848h1.651c0.755,0,1.313,0.141,1.676,0.424
					c0.363,0.282,0.544,0.709,0.544,1.28c0,0.728-0.378,1.246-1.136,1.556l1.652,2.588h-1.088l-1.4-2.336H413.173z M413.173,111.678
					h0.664c0.445,0,0.769-0.083,0.969-0.248c0.199-0.165,0.3-0.411,0.3-0.736c0-0.33-0.108-0.567-0.324-0.712
					c-0.216-0.144-0.541-0.216-0.976-0.216h-0.633V111.678z"/>
				<path fill="#2C3E50" d="M420.825,113.218c0,0.52-0.188,0.928-0.563,1.224s-0.895,0.444-1.556,0.444
					c-0.662,0-1.203-0.103-1.624-0.308v-0.904c0.267,0.125,0.55,0.224,0.85,0.296s0.579,0.108,0.838,0.108
					c0.379,0,0.658-0.072,0.838-0.217c0.181-0.144,0.271-0.337,0.271-0.58c0-0.218-0.083-0.403-0.248-0.556
					c-0.166-0.152-0.507-0.332-1.024-0.54c-0.533-0.216-0.909-0.463-1.128-0.74s-0.328-0.61-0.328-1
					c0-0.487,0.174-0.872,0.521-1.151c0.347-0.28,0.812-0.42,1.396-0.42c0.561,0,1.117,0.122,1.672,0.367l-0.304,0.78
					c-0.52-0.219-0.984-0.328-1.392-0.328c-0.31,0-0.544,0.067-0.704,0.202s-0.24,0.312-0.24,0.534c0,0.152,0.032,0.282,0.096,0.39
					c0.064,0.108,0.17,0.21,0.316,0.307c0.146,0.096,0.41,0.223,0.792,0.38c0.429,0.179,0.744,0.345,0.944,0.5
					c0.199,0.154,0.346,0.329,0.439,0.523C420.779,112.725,420.825,112.954,420.825,113.218z"/>
			</g>
		</g>
	</g>
	<g>
		<g>
			<path fill="#2C3E50" d="M29.47,203.682h-1.013v-6.514c0-0.541,0.017-1.053,0.05-1.537c-0.087,0.088-0.186,0.18-0.293,0.275
				c-0.108,0.096-0.604,0.502-1.488,1.219l-0.55-0.713l2.419-1.869h0.875V203.682z"/>
			<path fill="#2C3E50" d="M38.95,203.682h-6.006v-0.895l2.406-2.418c0.733-0.742,1.217-1.271,1.45-1.588s0.408-0.625,0.524-0.926
				c0.117-0.299,0.176-0.623,0.176-0.969c0-0.486-0.148-0.873-0.444-1.158s-0.706-0.428-1.231-0.428
				c-0.379,0-0.738,0.062-1.078,0.188c-0.339,0.125-0.718,0.352-1.134,0.68l-0.55-0.705c0.841-0.701,1.758-1.051,2.75-1.051
				c0.857,0,1.531,0.221,2.019,0.66s0.731,1.029,0.731,1.771c0,0.58-0.163,1.152-0.488,1.719c-0.324,0.566-0.933,1.283-1.824,2.15
				l-2,1.955v0.051h4.699V203.682z"/>
			<path fill="#2C3E50" d="M45.926,196.694c0,0.584-0.163,1.061-0.49,1.432s-0.791,0.619-1.391,0.744v0.049
				c0.733,0.092,1.277,0.326,1.631,0.701c0.354,0.375,0.531,0.867,0.531,1.475c0,0.871-0.302,1.541-0.906,2.01
				c-0.604,0.469-1.462,0.703-2.574,0.703c-0.483,0-0.927-0.037-1.328-0.109c-0.402-0.074-0.793-0.201-1.172-0.385v-0.988
				c0.396,0.197,0.817,0.346,1.266,0.447c0.447,0.102,0.871,0.154,1.271,0.154c1.579,0,2.369-0.619,2.369-1.857
				c0-1.107-0.871-1.662-2.613-1.662H41.62v-0.895h0.912c0.713,0,1.277-0.156,1.694-0.471c0.416-0.314,0.625-0.752,0.625-1.311
				c0-0.445-0.153-0.795-0.46-1.049c-0.306-0.254-0.722-0.381-1.247-0.381c-0.399,0-0.776,0.053-1.131,0.162
				c-0.354,0.107-0.759,0.309-1.213,0.6l-0.524-0.699c0.375-0.297,0.807-0.529,1.297-0.697c0.489-0.17,1.005-0.254,1.547-0.254
				c0.888,0,1.577,0.203,2.068,0.609C45.681,195.428,45.926,195.987,45.926,196.694z"/>
			<path fill="#2C3E50" d="M54.02,201.583h-1.356v2.1H51.67v-2.1h-4.444v-0.906l4.338-6.182h1.1v6.143h1.356V201.583z
				 M51.67,200.637V197.6c0-0.596,0.021-1.268,0.062-2.018h-0.051c-0.199,0.398-0.387,0.73-0.562,0.992l-2.855,4.062H51.67z"/>
			<path fill="#2C3E50" d="M57.758,198.1c0.962,0,1.72,0.238,2.271,0.717c0.552,0.477,0.828,1.129,0.828,1.959
				c0,0.945-0.301,1.688-0.903,2.225c-0.602,0.537-1.432,0.807-2.49,0.807c-1.029,0-1.814-0.164-2.356-0.494v-1
				c0.292,0.188,0.654,0.334,1.088,0.441c0.433,0.105,0.86,0.158,1.281,0.158c0.733,0,1.303-0.172,1.709-0.518
				s0.609-0.846,0.609-1.5c0-1.275-0.781-1.914-2.344-1.914c-0.396,0-0.925,0.061-1.587,0.182l-0.538-0.344l0.344-4.275h4.544v0.957
				h-3.656l-0.231,2.744C56.806,198.149,57.282,198.1,57.758,198.1z"/>
			<path fill="#2C3E50" d="M62.326,199.776c0-1.797,0.349-3.139,1.047-4.029c0.697-0.889,1.729-1.334,3.097-1.334
				c0.471,0,0.842,0.039,1.112,0.119v0.895c-0.32-0.105-0.688-0.156-1.1-0.156c-0.979,0-1.728,0.305-2.244,0.914
				c-0.517,0.611-0.8,1.57-0.85,2.879h0.075c0.458-0.717,1.183-1.074,2.175-1.074c0.82,0,1.468,0.248,1.94,0.742
				c0.473,0.496,0.709,1.17,0.709,2.02c0,0.949-0.259,1.697-0.777,2.24c-0.52,0.545-1.221,0.816-2.104,0.816
				c-0.946,0-1.696-0.355-2.25-1.066C62.603,202.03,62.326,201.042,62.326,199.776z M65.395,202.926
				c0.592,0,1.051-0.188,1.378-0.561s0.491-0.91,0.491-1.615c0-0.604-0.152-1.08-0.456-1.426c-0.305-0.346-0.759-0.518-1.363-0.518
				c-0.375,0-0.719,0.076-1.031,0.23s-0.562,0.367-0.746,0.639c-0.186,0.27-0.278,0.551-0.278,0.844c0,0.428,0.083,0.828,0.25,1.199
				c0.166,0.371,0.403,0.664,0.709,0.881C64.654,202.817,65.003,202.926,65.395,202.926z"/>
			<path fill="#2C3E50" d="M70.694,203.682l3.787-8.182h-4.98v-0.957h6.081v0.832l-3.737,8.307H70.694z"/>
			<path fill="#2C3E50" d="M79.883,194.413c0.833,0,1.493,0.193,1.98,0.582c0.488,0.387,0.731,0.922,0.731,1.605
				c0,0.451-0.14,0.861-0.419,1.232c-0.279,0.369-0.725,0.707-1.337,1.012c0.741,0.354,1.269,0.727,1.581,1.115
				c0.312,0.391,0.469,0.842,0.469,1.354c0,0.758-0.265,1.363-0.794,1.816c-0.529,0.451-1.254,0.678-2.175,0.678
				c-0.975,0-1.725-0.215-2.25-0.641c-0.525-0.428-0.787-1.033-0.787-1.816c0-1.045,0.637-1.859,1.912-2.443
				c-0.575-0.324-0.987-0.676-1.237-1.053s-0.375-0.799-0.375-1.266c0-0.662,0.244-1.191,0.734-1.584
				C78.406,194.61,79.062,194.413,79.883,194.413z M77.907,201.375c0,0.5,0.174,0.889,0.522,1.168
				c0.348,0.279,0.836,0.42,1.465,0.42c0.621,0,1.104-0.146,1.45-0.438c0.346-0.293,0.519-0.691,0.519-1.201
				c0-0.404-0.162-0.764-0.487-1.078s-0.892-0.619-1.7-0.914c-0.62,0.266-1.07,0.561-1.35,0.883
				C78.047,200.54,77.907,200.926,77.907,201.375z M79.87,195.256c-0.521,0-0.93,0.125-1.226,0.375s-0.443,0.584-0.443,1
				c0,0.383,0.123,0.713,0.369,0.988c0.245,0.275,0.699,0.549,1.362,0.824c0.596-0.25,1.018-0.518,1.266-0.807
				c0.248-0.287,0.372-0.623,0.372-1.006c0-0.42-0.151-0.754-0.453-1.002C80.814,195.381,80.399,195.256,79.87,195.256z"/>
			<path fill="#2C3E50" d="M90.182,198.444c0,3.576-1.383,5.363-4.149,5.363c-0.483,0-0.867-0.043-1.15-0.125v-0.895
				c0.333,0.109,0.713,0.162,1.138,0.162c1,0,1.755-0.309,2.266-0.928s0.788-1.566,0.834-2.846h-0.074
				c-0.229,0.346-0.534,0.609-0.913,0.789c-0.379,0.182-0.806,0.273-1.281,0.273c-0.809,0-1.45-0.242-1.925-0.727
				c-0.475-0.482-0.713-1.158-0.713-2.023c0-0.951,0.266-1.701,0.797-2.25c0.531-0.551,1.23-0.826,2.098-0.826
				c0.62,0,1.163,0.16,1.628,0.479c0.464,0.318,0.821,0.783,1.071,1.395C90.057,196.895,90.182,197.616,90.182,198.444z
				 M87.107,195.301c-0.597,0-1.057,0.191-1.382,0.574s-0.487,0.916-0.487,1.6c0,0.6,0.15,1.072,0.45,1.416s0.756,0.516,1.368,0.516
				c0.38,0,0.729-0.076,1.047-0.23c0.319-0.154,0.57-0.365,0.754-0.633c0.183-0.266,0.274-0.545,0.274-0.836
				c0-0.438-0.085-0.842-0.256-1.213s-0.409-0.662-0.716-0.875S87.503,195.301,87.107,195.301z"/>
			<path fill="#2C3E50" d="M114.176,199.1c0,1.58-0.249,2.758-0.747,3.537s-1.26,1.17-2.284,1.17c-0.983,0-1.731-0.398-2.244-1.197
				s-0.769-1.967-0.769-3.51c0-1.592,0.248-2.773,0.743-3.543c0.496-0.771,1.252-1.156,2.27-1.156c0.991,0,1.744,0.402,2.259,1.205
				C113.918,196.411,114.176,197.575,114.176,199.1z M109.182,199.1c0,1.33,0.156,2.297,0.469,2.904
				c0.312,0.605,0.811,0.908,1.494,0.908c0.691,0,1.192-0.307,1.503-0.922c0.311-0.613,0.466-1.578,0.466-2.891
				s-0.155-2.273-0.466-2.885c-0.311-0.609-0.812-0.914-1.503-0.914c-0.684,0-1.182,0.301-1.494,0.902
				S109.182,197.772,109.182,199.1z"/>
			<path fill="#2C3E50" d="M121.495,199.1c0,1.58-0.249,2.758-0.747,3.537s-1.26,1.17-2.284,1.17c-0.983,0-1.731-0.398-2.244-1.197
				s-0.769-1.967-0.769-3.51c0-1.592,0.248-2.773,0.743-3.543c0.496-0.771,1.252-1.156,2.27-1.156c0.991,0,1.744,0.402,2.259,1.205
				C121.237,196.411,121.495,197.575,121.495,199.1z M116.501,199.1c0,1.33,0.156,2.297,0.469,2.904
				c0.312,0.605,0.811,0.908,1.494,0.908c0.691,0,1.192-0.307,1.503-0.922c0.311-0.613,0.466-1.578,0.466-2.891
				s-0.155-2.273-0.466-2.885c-0.311-0.609-0.812-0.914-1.503-0.914c-0.684,0-1.182,0.301-1.494,0.902
				S116.501,197.772,116.501,199.1z"/>
			<path fill="#2C3E50" d="M128.813,199.1c0,1.58-0.249,2.758-0.747,3.537s-1.26,1.17-2.284,1.17c-0.983,0-1.731-0.398-2.244-1.197
				s-0.769-1.967-0.769-3.51c0-1.592,0.248-2.773,0.743-3.543c0.496-0.771,1.252-1.156,2.27-1.156c0.991,0,1.744,0.402,2.259,1.205
				C128.556,196.411,128.813,197.575,128.813,199.1z M123.819,199.1c0,1.33,0.156,2.297,0.469,2.904
				c0.312,0.605,0.811,0.908,1.494,0.908c0.691,0,1.192-0.307,1.503-0.922c0.311-0.613,0.466-1.578,0.466-2.891
				s-0.155-2.273-0.466-2.885c-0.311-0.609-0.812-0.914-1.503-0.914c-0.684,0-1.182,0.301-1.494,0.902
				S123.819,197.772,123.819,199.1z"/>
			<path fill="#2C3E50" d="M136.133,199.1c0,1.58-0.249,2.758-0.747,3.537s-1.26,1.17-2.284,1.17c-0.983,0-1.731-0.398-2.244-1.197
				s-0.769-1.967-0.769-3.51c0-1.592,0.248-2.773,0.743-3.543c0.496-0.771,1.252-1.156,2.27-1.156c0.991,0,1.744,0.402,2.259,1.205
				C135.875,196.411,136.133,197.575,136.133,199.1z M131.139,199.1c0,1.33,0.156,2.297,0.469,2.904
				c0.312,0.605,0.811,0.908,1.494,0.908c0.691,0,1.192-0.307,1.503-0.922c0.311-0.613,0.466-1.578,0.466-2.891
				s-0.155-2.273-0.466-2.885c-0.311-0.609-0.812-0.914-1.503-0.914c-0.684,0-1.182,0.301-1.494,0.902
				S131.139,197.772,131.139,199.1z"/>
			<path fill="#2C3E50" d="M143.451,199.1c0,1.58-0.249,2.758-0.747,3.537s-1.26,1.17-2.284,1.17c-0.983,0-1.731-0.398-2.244-1.197
				s-0.769-1.967-0.769-3.51c0-1.592,0.248-2.773,0.743-3.543c0.496-0.771,1.252-1.156,2.27-1.156c0.991,0,1.744,0.402,2.259,1.205
				C143.193,196.411,143.451,197.575,143.451,199.1z M138.457,199.1c0,1.33,0.156,2.297,0.469,2.904
				c0.312,0.605,0.811,0.908,1.494,0.908c0.691,0,1.192-0.307,1.503-0.922c0.311-0.613,0.466-1.578,0.466-2.891
				s-0.155-2.273-0.466-2.885c-0.311-0.609-0.812-0.914-1.503-0.914c-0.684,0-1.182,0.301-1.494,0.902
				S138.457,197.772,138.457,199.1z"/>
			<path fill="#2C3E50" d="M150.77,199.1c0,1.58-0.249,2.758-0.747,3.537s-1.26,1.17-2.284,1.17c-0.983,0-1.731-0.398-2.244-1.197
				s-0.769-1.967-0.769-3.51c0-1.592,0.248-2.773,0.743-3.543c0.496-0.771,1.252-1.156,2.27-1.156c0.991,0,1.744,0.402,2.259,1.205
				C150.512,196.411,150.77,197.575,150.77,199.1z M145.775,199.1c0,1.33,0.156,2.297,0.469,2.904
				c0.312,0.605,0.811,0.908,1.494,0.908c0.691,0,1.192-0.307,1.503-0.922c0.311-0.613,0.466-1.578,0.466-2.891
				s-0.155-2.273-0.466-2.885c-0.311-0.609-0.812-0.914-1.503-0.914c-0.684,0-1.182,0.301-1.494,0.902
				S145.775,197.772,145.775,199.1z"/>
			<path fill="#2C3E50" d="M158.038,198.444c0,3.576-1.383,5.363-4.149,5.363c-0.483,0-0.867-0.043-1.15-0.125v-0.895
				c0.333,0.109,0.713,0.162,1.138,0.162c1,0,1.755-0.309,2.266-0.928s0.788-1.566,0.834-2.846h-0.074
				c-0.229,0.346-0.534,0.609-0.913,0.789c-0.379,0.182-0.806,0.273-1.281,0.273c-0.809,0-1.45-0.242-1.925-0.727
				c-0.475-0.482-0.713-1.158-0.713-2.023c0-0.951,0.266-1.701,0.797-2.25c0.531-0.551,1.23-0.826,2.098-0.826
				c0.62,0,1.163,0.16,1.628,0.479c0.464,0.318,0.821,0.783,1.071,1.395C157.913,196.895,158.038,197.616,158.038,198.444z
				 M154.964,195.301c-0.597,0-1.057,0.191-1.382,0.574s-0.487,0.916-0.487,1.6c0,0.6,0.15,1.072,0.45,1.416
				s0.756,0.516,1.368,0.516c0.38,0,0.729-0.076,1.047-0.23c0.319-0.154,0.57-0.365,0.754-0.633
				c0.183-0.266,0.274-0.545,0.274-0.836c0-0.438-0.085-0.842-0.256-1.213s-0.409-0.662-0.716-0.875
				S155.359,195.301,154.964,195.301z"/>
			<path fill="#2C3E50" d="M162.376,194.413c0.833,0,1.493,0.193,1.98,0.582c0.488,0.387,0.731,0.922,0.731,1.605
				c0,0.451-0.14,0.861-0.419,1.232c-0.279,0.369-0.725,0.707-1.337,1.012c0.741,0.354,1.269,0.727,1.581,1.115
				c0.312,0.391,0.469,0.842,0.469,1.354c0,0.758-0.265,1.363-0.794,1.816c-0.529,0.451-1.254,0.678-2.175,0.678
				c-0.975,0-1.725-0.215-2.25-0.641c-0.525-0.428-0.787-1.033-0.787-1.816c0-1.045,0.637-1.859,1.912-2.443
				c-0.575-0.324-0.987-0.676-1.237-1.053s-0.375-0.799-0.375-1.266c0-0.662,0.244-1.191,0.734-1.584
				C160.899,194.61,161.555,194.413,162.376,194.413z M160.4,201.375c0,0.5,0.174,0.889,0.522,1.168
				c0.348,0.279,0.836,0.42,1.465,0.42c0.621,0,1.104-0.146,1.45-0.438c0.346-0.293,0.519-0.691,0.519-1.201
				c0-0.404-0.162-0.764-0.487-1.078s-0.892-0.619-1.7-0.914c-0.62,0.266-1.07,0.561-1.35,0.883
				C160.54,200.54,160.4,200.926,160.4,201.375z M162.363,195.256c-0.521,0-0.93,0.125-1.226,0.375s-0.443,0.584-0.443,1
				c0,0.383,0.123,0.713,0.369,0.988c0.245,0.275,0.699,0.549,1.362,0.824c0.596-0.25,1.018-0.518,1.266-0.807
				c0.248-0.287,0.372-0.623,0.372-1.006c0-0.42-0.151-0.754-0.453-1.002C163.308,195.381,162.893,195.256,162.363,195.256z"/>
			<path fill="#2C3E50" d="M167.826,203.682l3.787-8.182h-4.98v-0.957h6.081v0.832l-3.737,8.307H167.826z"/>
			<path fill="#2C3E50" d="M174.095,199.776c0-1.797,0.349-3.139,1.047-4.029c0.697-0.889,1.729-1.334,3.097-1.334
				c0.471,0,0.842,0.039,1.112,0.119v0.895c-0.32-0.105-0.688-0.156-1.1-0.156c-0.979,0-1.728,0.305-2.244,0.914
				c-0.517,0.611-0.8,1.57-0.85,2.879h0.075c0.458-0.717,1.183-1.074,2.175-1.074c0.82,0,1.468,0.248,1.94,0.742
				c0.473,0.496,0.709,1.17,0.709,2.02c0,0.949-0.259,1.697-0.777,2.24c-0.52,0.545-1.221,0.816-2.104,0.816
				c-0.946,0-1.696-0.355-2.25-1.066C174.371,202.03,174.095,201.042,174.095,199.776z M177.163,202.926
				c0.592,0,1.051-0.188,1.378-0.561s0.491-0.91,0.491-1.615c0-0.604-0.152-1.08-0.456-1.426c-0.305-0.346-0.759-0.518-1.363-0.518
				c-0.375,0-0.719,0.076-1.031,0.23s-0.562,0.367-0.746,0.639c-0.186,0.27-0.278,0.551-0.278,0.844c0,0.428,0.083,0.828,0.25,1.199
				c0.166,0.371,0.403,0.664,0.709,0.881C176.423,202.817,176.771,202.926,177.163,202.926z"/>
			<path fill="#2C3E50" d="M184.163,198.1c0.962,0,1.72,0.238,2.271,0.717c0.552,0.477,0.828,1.129,0.828,1.959
				c0,0.945-0.301,1.688-0.903,2.225c-0.602,0.537-1.432,0.807-2.49,0.807c-1.029,0-1.814-0.164-2.356-0.494v-1
				c0.292,0.188,0.654,0.334,1.088,0.441c0.433,0.105,0.86,0.158,1.281,0.158c0.733,0,1.303-0.172,1.709-0.518
				s0.609-0.846,0.609-1.5c0-1.275-0.781-1.914-2.344-1.914c-0.396,0-0.925,0.061-1.587,0.182l-0.538-0.344l0.344-4.275h4.544v0.957
				h-3.656l-0.231,2.744C183.211,198.149,183.688,198.1,184.163,198.1z"/>
			<path fill="#2C3E50" d="M195.063,201.583h-1.356v2.1h-0.993v-2.1h-4.444v-0.906l4.338-6.182h1.1v6.143h1.356V201.583z
				 M192.714,200.637V197.6c0-0.596,0.021-1.268,0.062-2.018h-0.051c-0.199,0.398-0.387,0.73-0.562,0.992l-2.855,4.062H192.714z"/>
			<path fill="#2C3E50" d="M201.606,196.694c0,0.584-0.163,1.061-0.49,1.432s-0.791,0.619-1.391,0.744v0.049
				c0.733,0.092,1.277,0.326,1.631,0.701c0.354,0.375,0.531,0.867,0.531,1.475c0,0.871-0.302,1.541-0.906,2.01
				c-0.604,0.469-1.462,0.703-2.574,0.703c-0.483,0-0.927-0.037-1.328-0.109c-0.402-0.074-0.793-0.201-1.172-0.385v-0.988
				c0.396,0.197,0.817,0.346,1.266,0.447c0.447,0.102,0.871,0.154,1.271,0.154c1.579,0,2.369-0.619,2.369-1.857
				c0-1.107-0.871-1.662-2.613-1.662h-0.899v-0.895h0.912c0.713,0,1.277-0.156,1.694-0.471c0.416-0.314,0.625-0.752,0.625-1.311
				c0-0.445-0.153-0.795-0.46-1.049c-0.306-0.254-0.722-0.381-1.247-0.381c-0.399,0-0.776,0.053-1.131,0.162
				c-0.354,0.107-0.759,0.309-1.213,0.6l-0.524-0.699c0.375-0.297,0.807-0.529,1.297-0.697c0.489-0.17,1.005-0.254,1.547-0.254
				c0.888,0,1.577,0.203,2.068,0.609C201.361,195.428,201.606,195.987,201.606,196.694z"/>
			<path fill="#2C3E50" d="M209.27,203.682h-6.006v-0.895l2.406-2.418c0.733-0.742,1.217-1.271,1.45-1.588s0.408-0.625,0.524-0.926
				c0.117-0.299,0.176-0.623,0.176-0.969c0-0.486-0.148-0.873-0.444-1.158s-0.706-0.428-1.231-0.428
				c-0.379,0-0.738,0.062-1.078,0.188c-0.339,0.125-0.718,0.352-1.134,0.68l-0.55-0.705c0.841-0.701,1.758-1.051,2.75-1.051
				c0.857,0,1.531,0.221,2.019,0.66s0.731,1.029,0.731,1.771c0,0.58-0.163,1.152-0.488,1.719c-0.324,0.566-0.933,1.283-1.824,2.15
				l-2,1.955v0.051h4.699V203.682z"/>
			<path fill="#2C3E50" d="M214.426,203.682h-1.013v-6.514c0-0.541,0.017-1.053,0.05-1.537c-0.087,0.088-0.186,0.18-0.293,0.275
				c-0.108,0.096-0.604,0.502-1.488,1.219l-0.55-0.713l2.419-1.869h0.875V203.682z"/>
			<path fill="#2C3E50" d="M254.994,203.682h-1.013v-6.514c0-0.541,0.017-1.053,0.05-1.537c-0.087,0.088-0.186,0.18-0.293,0.275
				c-0.108,0.096-0.604,0.502-1.488,1.219l-0.55-0.713l2.419-1.869h0.875V203.682z"/>
			<path fill="#2C3E50" d="M264.526,199.1c0,1.58-0.249,2.758-0.747,3.537s-1.26,1.17-2.284,1.17c-0.983,0-1.731-0.398-2.244-1.197
				s-0.769-1.967-0.769-3.51c0-1.592,0.248-2.773,0.743-3.543c0.496-0.771,1.252-1.156,2.27-1.156c0.991,0,1.744,0.402,2.259,1.205
				C264.269,196.411,264.526,197.575,264.526,199.1z M259.532,199.1c0,1.33,0.156,2.297,0.469,2.904
				c0.312,0.605,0.811,0.908,1.494,0.908c0.691,0,1.192-0.307,1.503-0.922c0.311-0.613,0.466-1.578,0.466-2.891
				s-0.155-2.273-0.466-2.885c-0.311-0.609-0.812-0.914-1.503-0.914c-0.684,0-1.182,0.301-1.494,0.902
				S259.532,197.772,259.532,199.1z"/>
			<path fill="#2C3E50" d="M271.845,199.1c0,1.58-0.249,2.758-0.747,3.537s-1.26,1.17-2.284,1.17c-0.983,0-1.731-0.398-2.244-1.197
				s-0.769-1.967-0.769-3.51c0-1.592,0.248-2.773,0.743-3.543c0.496-0.771,1.252-1.156,2.27-1.156c0.991,0,1.744,0.402,2.259,1.205
				C271.587,196.411,271.845,197.575,271.845,199.1z M266.851,199.1c0,1.33,0.156,2.297,0.469,2.904
				c0.312,0.605,0.811,0.908,1.494,0.908c0.691,0,1.192-0.307,1.503-0.922c0.311-0.613,0.466-1.578,0.466-2.891
				s-0.155-2.273-0.466-2.885c-0.311-0.609-0.812-0.914-1.503-0.914c-0.684,0-1.182,0.301-1.494,0.902
				S266.851,197.772,266.851,199.1z"/>
			<path fill="#2C3E50" d="M276.951,203.682h-1.013v-6.514c0-0.541,0.017-1.053,0.05-1.537c-0.087,0.088-0.186,0.18-0.293,0.275
				c-0.108,0.096-0.604,0.502-1.488,1.219l-0.55-0.713l2.419-1.869h0.875V203.682z"/>
		</g>
		<g>
			<g>
				<g>
					<rect x="14.58" y="195.793" fill="#2C3E50" width="2.615" height="7.256"/>
				</g>
			</g>
			<g>
				<g>
					<g>
						<rect x="19.028" y="194.321" fill="#2C3E50" width="2.946" height="2.945"/>
					</g>
				</g>
				<g>
					<g>
						<rect x="19.028" y="201.375" fill="#2C3E50" width="2.946" height="2.945"/>
					</g>
				</g>
			</g>
		</g>
		<g>
			<g>
				<g>
					<rect x="95.922" y="195.594" fill="#2C3E50" width="2.615" height="7.254"/>
				</g>
			</g>
			<g>
				<g>
					<g>
						<rect x="100.37" y="201.375" fill="#2C3E50" width="2.946" height="2.945"/>
					</g>
				</g>
				<g>
					<g>
						<rect x="100.37" y="194.321" fill="#2C3E50" width="2.946" height="2.947"/>
					</g>
				</g>
			</g>
		</g>
		<g>
			<g>
				<g>
					<rect x="219.511" y="195.594" fill="#2C3E50" width="2.615" height="7.254"/>
				</g>
			</g>
			<g>
				<g>
					<g>
						<rect x="223.959" y="201.375" fill="#2C3E50" width="2.946" height="2.945"/>
					</g>
				</g>
				<g>
					<g>
						<rect x="223.959" y="194.321" fill="#2C3E50" width="2.946" height="2.947"/>
					</g>
				</g>
			</g>
		</g>
	</g>
	<g>
		<path fill="#E74C3C" d="M6.744,233.063c0,1.801-0.363,3.145-1.088,4.031c-0.725,0.889-1.816,1.332-3.275,1.332
			c-0.554,0-0.952-0.033-1.193-0.1v-1.232c0.371,0.105,0.744,0.156,1.119,0.156c0.991,0,1.73-0.266,2.219-0.799
			c0.487-0.533,0.754-1.371,0.8-2.514H5.25c-0.246,0.375-0.543,0.646-0.891,0.812C4.012,234.918,3.604,235,3.138,235
			c-0.809,0-1.444-0.252-1.906-0.756c-0.463-0.504-0.694-1.195-0.694-2.074c0-0.955,0.268-1.715,0.804-2.279
			c0.535-0.564,1.266-0.846,2.19-0.846c0.65,0,1.217,0.158,1.7,0.475s0.856,0.775,1.118,1.377
			C6.612,231.5,6.744,232.221,6.744,233.063z M3.557,230.264c-0.509,0-0.898,0.164-1.169,0.496
			c-0.271,0.332-0.406,0.797-0.406,1.396c0,0.521,0.126,0.93,0.378,1.229s0.635,0.447,1.146,0.447c0.496,0,0.913-0.148,1.25-0.443
			c0.338-0.297,0.507-0.643,0.507-1.039c0-0.369-0.072-0.717-0.216-1.039c-0.144-0.324-0.345-0.578-0.604-0.766
			C4.186,230.358,3.89,230.264,3.557,230.264z"/>
		<path fill="#E74C3C" d="M7.757,235.495v-1.25h3.212v1.25H7.757z"/>
		<path fill="#E74C3C" d="M20.062,233.645c0,1.508-0.419,2.66-1.257,3.459c-0.837,0.799-2.043,1.197-3.618,1.197h-2.557v-9.139
			h2.825c1.454,0,2.585,0.393,3.394,1.176S20.062,232.223,20.062,233.645z M18.487,233.694c0-2.188-1.023-3.281-3.068-3.281h-1.294
			v6.633h1.062C17.388,237.045,18.487,235.928,18.487,233.694z"/>
		<path fill="#E74C3C" d="M21.781,229.557c0-0.262,0.071-0.465,0.215-0.605c0.145-0.143,0.35-0.213,0.616-0.213
			c0.258,0,0.459,0.07,0.603,0.213c0.145,0.141,0.216,0.344,0.216,0.605c0,0.25-0.071,0.447-0.216,0.59
			c-0.144,0.145-0.345,0.217-0.603,0.217c-0.267,0-0.472-0.072-0.616-0.217C21.853,230.004,21.781,229.807,21.781,229.557z
			 M23.337,238.301h-1.469v-6.912h1.469V238.301z"/>
		<path fill="#E74C3C" d="M31.275,231.389v0.805l-1.182,0.219c0.108,0.146,0.198,0.326,0.269,0.539
			c0.071,0.211,0.106,0.438,0.106,0.674c0,0.713-0.246,1.273-0.737,1.682c-0.492,0.408-1.169,0.613-2.031,0.613
			c-0.221,0-0.421-0.018-0.6-0.051c-0.317,0.195-0.476,0.426-0.476,0.688c0,0.158,0.074,0.277,0.222,0.355
			c0.148,0.08,0.42,0.119,0.816,0.119h1.206c0.763,0,1.342,0.162,1.737,0.488c0.396,0.324,0.594,0.793,0.594,1.406
			c0,0.783-0.323,1.387-0.969,1.812c-0.646,0.424-1.579,0.637-2.8,0.637c-0.942,0-1.661-0.166-2.156-0.5
			c-0.496-0.334-0.744-0.809-0.744-1.424c0-0.426,0.135-0.783,0.403-1.072s0.645-0.49,1.128-0.604
			c-0.195-0.084-0.357-0.217-0.484-0.402s-0.19-0.381-0.19-0.586c0-0.258,0.073-0.477,0.219-0.656
			c0.146-0.178,0.362-0.355,0.65-0.531c-0.358-0.154-0.649-0.404-0.872-0.752c-0.224-0.348-0.335-0.756-0.335-1.223
			c0-0.75,0.236-1.33,0.71-1.744c0.473-0.412,1.146-0.617,2.021-0.617c0.196,0,0.401,0.014,0.616,0.039
			c0.214,0.027,0.376,0.057,0.484,0.086H31.275z M25.844,239.375c0,0.316,0.143,0.561,0.429,0.732
			c0.285,0.17,0.686,0.256,1.203,0.256c0.8,0,1.396-0.115,1.787-0.344c0.392-0.23,0.588-0.533,0.588-0.912
			c0-0.301-0.107-0.514-0.322-0.641c-0.215-0.129-0.613-0.191-1.197-0.191h-1.112c-0.421,0-0.755,0.1-1.003,0.297
			S25.844,239.038,25.844,239.375z M26.476,233.625c0,0.434,0.111,0.768,0.334,1c0.223,0.234,0.543,0.35,0.959,0.35
			c0.851,0,1.275-0.453,1.275-1.361c0-0.451-0.105-0.797-0.315-1.041c-0.211-0.244-0.53-0.365-0.96-0.365
			c-0.425,0-0.746,0.121-0.965,0.361C26.585,232.811,26.476,233.163,26.476,233.625z"/>
		<path fill="#E74C3C" d="M32.469,229.557c0-0.262,0.071-0.465,0.215-0.605c0.145-0.143,0.35-0.213,0.616-0.213
			c0.258,0,0.459,0.07,0.603,0.213c0.145,0.141,0.216,0.344,0.216,0.605c0,0.25-0.071,0.447-0.216,0.59
			c-0.144,0.145-0.345,0.217-0.603,0.217c-0.267,0-0.472-0.072-0.616-0.217C32.54,230.004,32.469,229.807,32.469,229.557z
			 M34.024,238.301h-1.469v-6.912h1.469V238.301z"/>
		<path fill="#E74C3C" d="M38.7,237.239c0.358,0,0.717-0.057,1.075-0.17v1.107c-0.163,0.07-0.372,0.129-0.628,0.178
			c-0.257,0.047-0.522,0.072-0.797,0.072c-1.393,0-2.088-0.734-2.088-2.201V232.5h-0.943v-0.65l1.012-0.537l0.5-1.463h0.906v1.539
			h1.969v1.111h-1.969v3.701c0,0.354,0.089,0.615,0.266,0.783C38.181,237.155,38.413,237.239,38.7,237.239z"/>
		<path fill="#E74C3C" d="M46.132,234.651v3.65h-1.494v-9.139h2.581c1.18,0,2.053,0.221,2.619,0.664c0.566,0.441,0.85,1.107,0.85,2
			c0,1.137-0.592,1.947-1.774,2.43l2.581,4.045h-1.7l-2.188-3.65H46.132z M46.132,233.413h1.037c0.696,0,1.2-0.129,1.513-0.387
			s0.469-0.643,0.469-1.15c0-0.516-0.169-0.887-0.506-1.111c-0.338-0.227-0.847-0.338-1.525-0.338h-0.987V233.413z"/>
		<path fill="#E74C3C" d="M58.794,234.833c0,1.129-0.29,2.01-0.869,2.643c-0.579,0.635-1.386,0.951-2.419,0.951
			c-0.646,0-1.217-0.146-1.712-0.438c-0.496-0.293-0.878-0.711-1.145-1.256c-0.267-0.547-0.399-1.18-0.399-1.9
			c0-1.121,0.287-1.996,0.862-2.625s1.386-0.943,2.432-0.943c1,0,1.791,0.32,2.375,0.965
			C58.502,232.874,58.794,233.741,58.794,234.833z M53.763,234.833c0,1.596,0.589,2.393,1.769,2.393c1.166,0,1.75-0.797,1.75-2.393
			c0-1.58-0.588-2.369-1.763-2.369c-0.617,0-1.063,0.205-1.341,0.613S53.763,234.069,53.763,234.833z"/>
		<path fill="#E74C3C" d="M65.356,238.301l-0.206-0.906h-0.075c-0.204,0.32-0.495,0.572-0.872,0.756s-0.807,0.275-1.29,0.275
			c-0.838,0-1.463-0.209-1.875-0.625c-0.413-0.418-0.619-1.049-0.619-1.895v-4.518H61.9v4.262c0,0.529,0.108,0.926,0.325,1.191
			c0.217,0.264,0.556,0.396,1.019,0.396c0.616,0,1.069-0.186,1.359-0.553c0.289-0.369,0.435-0.986,0.435-1.854v-3.443h1.475v6.912
			H65.356z"/>
		<path fill="#E74C3C" d="M71.182,237.239c0.358,0,0.717-0.057,1.075-0.17v1.107c-0.163,0.07-0.372,0.129-0.628,0.178
			c-0.257,0.047-0.522,0.072-0.797,0.072c-1.393,0-2.088-0.734-2.088-2.201V232.5h-0.943v-0.65l1.012-0.537l0.5-1.463h0.906v1.539
			h1.969v1.111h-1.969v3.701c0,0.354,0.089,0.615,0.266,0.783C70.662,237.155,70.895,237.239,71.182,237.239z"/>
		<path fill="#E74C3C" d="M73.551,229.557c0-0.262,0.071-0.465,0.215-0.605c0.145-0.143,0.35-0.213,0.616-0.213
			c0.258,0,0.459,0.07,0.603,0.213c0.145,0.141,0.216,0.344,0.216,0.605c0,0.25-0.071,0.447-0.216,0.59
			c-0.144,0.145-0.345,0.217-0.603,0.217c-0.267,0-0.472-0.072-0.616-0.217C73.622,230.004,73.551,229.807,73.551,229.557z
			 M75.106,238.301h-1.469v-6.912h1.469V238.301z"/>
		<path fill="#E74C3C" d="M83.287,238.301h-1.475v-4.25c0-0.533-0.107-0.932-0.322-1.193c-0.214-0.264-0.555-0.395-1.021-0.395
			c-0.621,0-1.075,0.184-1.362,0.551c-0.288,0.365-0.432,0.98-0.432,1.844v3.443h-1.469v-6.912h1.15l0.206,0.906h0.075
			c0.208-0.33,0.504-0.584,0.888-0.764c0.383-0.18,0.808-0.268,1.274-0.268c1.658,0,2.487,0.844,2.487,2.531V238.301z"/>
		<path fill="#E74C3C" d="M91.169,231.389v0.805l-1.182,0.219c0.108,0.146,0.198,0.326,0.269,0.539
			c0.071,0.211,0.106,0.438,0.106,0.674c0,0.713-0.246,1.273-0.737,1.682c-0.492,0.408-1.169,0.613-2.031,0.613
			c-0.221,0-0.421-0.018-0.6-0.051c-0.317,0.195-0.476,0.426-0.476,0.688c0,0.158,0.074,0.277,0.222,0.355
			c0.148,0.08,0.42,0.119,0.816,0.119h1.206c0.763,0,1.342,0.162,1.737,0.488c0.396,0.324,0.594,0.793,0.594,1.406
			c0,0.783-0.323,1.387-0.969,1.812c-0.646,0.424-1.579,0.637-2.8,0.637c-0.942,0-1.661-0.166-2.156-0.5
			c-0.496-0.334-0.744-0.809-0.744-1.424c0-0.426,0.135-0.783,0.403-1.072s0.645-0.49,1.128-0.604
			c-0.195-0.084-0.357-0.217-0.484-0.402s-0.19-0.381-0.19-0.586c0-0.258,0.073-0.477,0.219-0.656
			c0.146-0.178,0.362-0.355,0.65-0.531c-0.358-0.154-0.649-0.404-0.872-0.752c-0.224-0.348-0.335-0.756-0.335-1.223
			c0-0.75,0.236-1.33,0.71-1.744c0.473-0.412,1.146-0.617,2.021-0.617c0.196,0,0.401,0.014,0.616,0.039
			c0.214,0.027,0.376,0.057,0.484,0.086H91.169z M85.737,239.375c0,0.316,0.143,0.561,0.429,0.732
			c0.285,0.17,0.686,0.256,1.203,0.256c0.8,0,1.396-0.115,1.787-0.344c0.392-0.23,0.588-0.533,0.588-0.912
			c0-0.301-0.107-0.514-0.322-0.641c-0.215-0.129-0.613-0.191-1.197-0.191h-1.112c-0.421,0-0.755,0.1-1.003,0.297
			S85.737,239.038,85.737,239.375z M86.369,233.625c0,0.434,0.111,0.768,0.334,1c0.223,0.234,0.543,0.35,0.959,0.35
			c0.851,0,1.275-0.453,1.275-1.361c0-0.451-0.105-0.797-0.315-1.041c-0.211-0.244-0.53-0.365-0.96-0.365
			c-0.425,0-0.746,0.121-0.965,0.361C86.479,232.811,86.369,233.163,86.369,233.625z"/>
		<path fill="#E74C3C" d="M103.543,238.301h-1.831l-4.493-7.281h-0.051l0.031,0.406c0.059,0.775,0.088,1.482,0.088,2.125v4.75
			h-1.356v-9.139h1.812l4.481,7.244h0.037c-0.008-0.096-0.024-0.445-0.05-1.047c-0.024-0.602-0.037-1.072-0.037-1.408v-4.789h1.368
			V238.301z"/>
		<path fill="#E74C3C" d="M110.675,238.301l-0.206-0.906h-0.075c-0.204,0.32-0.495,0.572-0.872,0.756s-0.807,0.275-1.29,0.275
			c-0.838,0-1.463-0.209-1.875-0.625c-0.413-0.418-0.619-1.049-0.619-1.895v-4.518h1.481v4.262c0,0.529,0.108,0.926,0.325,1.191
			c0.217,0.264,0.556,0.396,1.019,0.396c0.616,0,1.069-0.186,1.359-0.553c0.289-0.369,0.435-0.986,0.435-1.854v-3.443h1.475v6.912
			H110.675z"/>
		<path fill="#E74C3C" d="M119.75,238.301h-1.475v-4.264c0-0.529-0.101-0.924-0.301-1.184c-0.199-0.26-0.512-0.391-0.938-0.391
			c-0.566,0-0.982,0.184-1.246,0.553c-0.265,0.369-0.397,0.982-0.397,1.842v3.443h-1.469v-6.912h1.15l0.206,0.906h0.075
			c0.191-0.33,0.47-0.584,0.834-0.764s0.766-0.268,1.203-0.268c1.062,0,1.767,0.361,2.112,1.086h0.101
			c0.204-0.342,0.491-0.607,0.862-0.799s0.796-0.287,1.275-0.287c0.824,0,1.426,0.207,1.803,0.625
			c0.377,0.416,0.565,1.051,0.565,1.906v4.506h-1.469v-4.264c0-0.529-0.101-0.924-0.303-1.184s-0.516-0.391-0.94-0.391
			c-0.571,0-0.989,0.178-1.254,0.535c-0.265,0.355-0.396,0.902-0.396,1.641V238.301z"/>
		<path fill="#E74C3C" d="M129.693,231.264c0.862,0,1.534,0.312,2.016,0.938s0.722,1.502,0.722,2.631
			c0,1.133-0.243,2.016-0.73,2.646c-0.488,0.631-1.165,0.947-2.031,0.947c-0.875,0-1.555-0.314-2.038-0.943h-0.1l-0.269,0.818
			h-1.101v-9.725h1.469v2.312c0,0.17-0.008,0.424-0.024,0.762c-0.018,0.338-0.029,0.553-0.038,0.645h0.062
			C128.098,231.608,128.785,231.264,129.693,231.264z M129.312,232.463c-0.592,0-1.018,0.174-1.278,0.521s-0.395,0.93-0.403,1.748
			v0.1c0,0.842,0.134,1.451,0.4,1.828s0.702,0.564,1.306,0.564c0.521,0,0.916-0.205,1.185-0.617c0.269-0.414,0.403-1.01,0.403-1.789
			C130.925,233.249,130.388,232.463,129.312,232.463z"/>
		<path fill="#E74C3C" d="M137.155,238.426c-1.074,0-1.915-0.314-2.521-0.941s-0.909-1.49-0.909-2.59
			c0-1.129,0.281-2.018,0.844-2.662c0.562-0.646,1.335-0.969,2.318-0.969c0.913,0,1.634,0.275,2.163,0.83
			c0.528,0.555,0.793,1.316,0.793,2.287v0.795h-4.605c0.021,0.67,0.201,1.186,0.543,1.547c0.342,0.359,0.823,0.541,1.444,0.541
			c0.408,0,0.788-0.039,1.141-0.117c0.352-0.076,0.729-0.205,1.134-0.383v1.193c-0.358,0.17-0.721,0.291-1.087,0.361
			C138.045,238.391,137.626,238.426,137.155,238.426z M136.887,232.375c-0.467,0-0.841,0.148-1.122,0.443
			c-0.281,0.297-0.448,0.729-0.503,1.295h3.138c-0.009-0.57-0.146-1.004-0.412-1.297
			C137.72,232.522,137.354,232.375,136.887,232.375z"/>
		<path fill="#E74C3C" d="M145.019,231.264c0.295,0,0.539,0.02,0.73,0.062l-0.144,1.367c-0.208-0.049-0.425-0.074-0.649-0.074
			c-0.588,0-1.064,0.191-1.429,0.574c-0.364,0.385-0.547,0.883-0.547,1.494v3.613h-1.469v-6.912h1.15l0.193,1.219h0.075
			c0.229-0.414,0.528-0.74,0.896-0.982C144.196,231.383,144.593,231.264,145.019,231.264z"/>
	</g>
	<g>
		<path fill="#E74C3C" d="M90.032,209.602H27.306c-2.068,0-3.75-1.682-3.75-3.75v-13.568c0-2.066,1.682-3.75,3.75-3.75h62.727
			c2.068,0,3.75,1.684,3.75,3.75v13.568C93.782,207.92,92.1,209.602,90.032,209.602z M27.306,190.034c-1.241,0-2.25,1.01-2.25,2.25
			v13.568c0,1.24,1.009,2.25,2.25,2.25h62.727c1.241,0,2.25-1.01,2.25-2.25v-13.568c0-1.24-1.009-2.25-2.25-2.25H27.306z"/>
	</g>
	<g>
		<rect x="57.919" y="208.852" fill="#E74C3C" width="1.5" height="16.092"/>
	</g>
</g>
</svg>
