<?xml version="1.0" encoding="utf-8"?>
<!-- Generator: Adobe Illustrator 18.0.0, SVG Export Plug-In . SVG Version: 6.00 Build 0)  -->
<!DOCTYPE svg PUBLIC "-//W3C//DTD SVG 1.1//EN" "http://www.w3.org/Graphics/SVG/1.1/DTD/svg11.dtd">
<svg version="1.1" id="Layer_1" xmlns="http://www.w3.org/2000/svg" xmlns:xlink="http://www.w3.org/1999/xlink" x="0px" y="0px"
	 viewBox="0 0 86 51.6" enable-background="new 0 0 86 51.6" xml:space="preserve">
<g>
	<g>
		<path fill="#444545" d="M78.1,16.7h-1.1v-4.3h-1.4v-0.9h4v0.9h-1.4V16.7z"/>
		<path fill="#444545" d="M82.5,16.7l-1.3-4.1h0c0,0.8,0.1,1.4,0.1,1.7v2.4h-1v-5.3h1.5l1.2,4h0l1.3-4h1.5v5.3h-1v-2.5
			c0-0.1,0-0.3,0-0.4c0-0.2,0-0.6,0-1.2h0l-1.4,4.1H82.5z"/>
	</g>
	<g>
		<path fill="#3B96D2" d="M73.5,0.9l-1.8-0.6c-1.4-0.5-3-0.2-4.1,0.9L24.3,43.5L1.2,25.4l-1,4.9c-0.3,1.5,0.1,3,1.1,4.1l15.8,17.3
			h17.5L73.5,0.9z"/>
		<polygon fill="#245D81" points="24.3,43.5 34.6,51.6 37.2,48.3 		"/>
	</g>
</g>
</svg>
